<svg width="64" height="64" viewBox="0 0 64 64" fill="none" xmlns="http://www.w3.org/2000/svg">
<path d="M32.4741 57.3657H35.0758C35.404 57.3657 35.6972 57.1599 35.8085 56.8509C35.7455 56.6797 35.7455 56.4912 35.8085 56.3199C35.6972 56.011 35.404 55.8052 35.0758 55.8047H32.4741C32.905 55.8047 33.2546 56.1543 33.2546 56.5852C33.2546 57.0166 32.905 57.3657 32.4741 57.3657Z" fill="#D4E1F4"/>
<path d="M28.2271 57.6056V57.3657H25.6255V57.6056C25.627 58.5344 26.3679 59.2936 27.2967 59.3169H29.8984C28.9695 59.2936 28.2286 58.5344 28.2271 57.6056Z" fill="#D4E1F4"/>
<path d="M28.2271 53.8536H30.2632C30.6941 53.8536 31.0437 53.5045 31.0437 53.0731C31.0437 52.6422 30.6941 52.2926 30.2632 52.2926H28.2271V50.4715H25.6255V52.2926H27.6616C28.0925 52.2926 28.4421 52.6422 28.4421 53.0731C28.4421 53.5045 28.0925 53.8536 27.6616 53.8536H25.6255V55.8048H28.2271V53.8536Z" fill="#D4E1F4"/>
<path d="M24.3862 38.2403C21.3456 35.4481 19.5808 31.5325 19.5031 27.405C19.4248 23.2779 21.0402 19.2982 23.9726 16.3928C26.4746 13.8989 29.778 12.3699 33.2983 12.0757C32.9147 12.0427 32.529 12.0244 32.1408 12.0198C32.0935 12.0198 32.0458 12.0193 31.9985 12.0193C25.7744 12.0193 20.188 15.8389 17.9289 21.6387C15.6698 27.4385 17.2008 34.03 21.7851 38.2403C24.2429 40.5203 25.6352 43.7241 25.6256 47.0767V48.9105H28.2272V47.0767C28.2368 43.7241 26.844 40.5203 24.3862 38.2403Z" fill="#D4E1F4"/>
<path d="M56.0812 40.4074L58.8734 33.1727C58.9918 32.8653 58.9044 32.5167 58.6549 32.3013L55.7341 29.7804C55.9882 27.5274 55.9293 25.2505 55.5588 23.0137L58.3688 20.3191C58.6051 20.0924 58.6747 19.7429 58.5436 19.4431L55.4338 12.3354C55.3017 12.032 54.9923 11.845 54.662 11.8699L50.7707 12.156C49.3856 10.3557 47.7311 8.77998 45.8658 7.48374L45.9801 3.59605C45.9903 3.26526 45.7901 2.96394 45.4811 2.84503L38.2464 0.0523588C37.939 -0.0660351 37.5899 0.0213629 37.3744 0.270854L34.8536 3.19259C32.6006 2.93802 30.3231 2.99696 28.0864 3.36739L25.3912 0.557947C25.1646 0.321667 24.815 0.251545 24.5152 0.382642L17.4075 3.49239C17.1042 3.62552 16.9177 3.93497 16.9421 4.26475L17.2281 8.156C15.4284 9.54065 13.8527 11.1951 12.5569 13.0605L8.66872 12.9461C8.33742 12.9344 8.03559 13.1351 7.91771 13.4451L5.12554 20.6804C5.00715 20.9878 5.09454 21.3363 5.34404 21.5518L8.26527 24.0731C8.0112 26.3257 8.07015 28.6031 8.44057 30.8394L5.63062 33.534C5.39434 33.7606 5.32473 34.1102 5.45582 34.41L8.56557 41.5177C8.69769 41.8221 9.00764 42.0091 9.33793 41.9831L13.2292 41.6971C14.6143 43.4974 16.2688 45.0731 18.1341 46.3688L18.0198 50.257C18.0102 50.5878 18.2099 50.8886 18.5188 51.008L24.5726 53.3444C24.9746 53.4984 25.4248 53.2981 25.5798 52.8967C25.7347 52.4953 25.5355 52.0441 25.1346 51.8881L19.596 49.7504L19.7068 45.9872C19.7149 45.7184 19.5838 45.4643 19.3597 45.3149C17.377 43.9948 15.6392 42.3398 14.2236 40.4237C14.065 40.2077 13.8059 40.0888 13.5391 40.1097L9.77441 40.3866L7.10419 34.2835L9.82065 31.6783C10.0097 31.4969 10.095 31.2327 10.0483 30.9745C9.6174 28.6249 9.55541 26.223 9.86384 23.8546C9.89788 23.594 9.7988 23.3343 9.60012 23.1626L6.78001 20.7291L9.17482 14.5228L12.9385 14.6336C13.2078 14.6433 13.4624 14.5117 13.6108 14.2866C14.9309 12.3039 16.5859 10.566 18.5015 9.1504C18.717 8.99136 18.8359 8.73272 18.8161 8.46595L18.5396 4.70123L24.6423 2.03152L27.2474 4.74798C27.4288 4.93751 27.6931 5.02287 27.9512 4.97562C30.3008 4.54523 32.7032 4.48324 35.0726 4.79168C35.3328 4.8247 35.5924 4.72562 35.7637 4.52694L38.1971 1.70683L44.4034 4.10214L44.2926 7.86535C44.285 8.13415 44.4161 8.38821 44.6402 8.5376C46.6224 9.85772 48.3602 11.5132 49.7758 13.4288C49.9349 13.6448 50.1935 13.7632 50.4608 13.7429L54.225 13.4664L56.8952 19.5691L54.1783 22.1743C53.9887 22.3557 53.9034 22.6204 53.9506 22.878C54.381 25.2276 54.443 27.6295 54.1346 29.9984C54.101 30.2586 54.2001 30.5182 54.3988 30.69L57.2184 33.1234L54.8231 39.3297L51.0599 39.2189C50.7911 39.2113 50.537 39.3424 50.3876 39.5665C49.067 41.5487 47.412 43.287 45.4964 44.7021C45.2809 44.8617 45.1625 45.1198 45.1823 45.3871L45.4588 49.1518L38.8572 52.0395C38.4623 52.2123 38.282 52.6726 38.4552 53.0675C38.628 53.4623 39.0878 53.6422 39.4827 53.4694L46.5904 50.3607C46.8937 50.228 47.0802 49.9186 47.0558 49.5883L46.7697 45.6971C48.57 44.3119 50.1457 42.6574 51.4415 40.7921L55.3292 40.9064C55.661 40.9191 55.9638 40.7179 56.0812 40.4074Z" fill="#A9B0B9"/>
<path d="M43.6707 15.2474C39.3791 11.0299 33.1469 9.45526 27.3669 11.128C21.5874 12.8003 17.1591 17.4603 15.7831 23.318C14.4076 29.1752 16.2978 35.3195 20.7282 39.3901C22.8649 41.3739 24.0747 44.161 24.0646 47.0766V57.605C24.0646 59.383 25.5193 60.8779 27.2968 60.8779H31.219V63.2194C31.219 63.6508 31.5681 63.9998 31.9995 63.9998C32.4304 63.9998 32.78 63.6508 32.78 63.2194V60.8779H36.7017C38.4792 60.8779 39.9345 59.383 39.9345 57.6055V47.0649C39.9543 44.1173 41.1936 41.3094 43.3582 39.3083C46.8506 36.0512 48.7789 31.4527 48.6544 26.6788C48.5462 22.3643 46.7581 18.2627 43.6707 15.2474ZM36.7017 59.3169H27.2973C26.3679 59.2936 25.6271 58.5349 25.6255 57.6055V57.3657H32.4741C32.905 57.3657 33.2546 57.0166 33.2546 56.5852C33.2546 56.1543 32.905 55.8047 32.4741 55.8047H25.6255V53.8535H27.6616C28.0925 53.8535 28.4421 53.5044 28.4421 53.073C28.4421 52.6421 28.0925 52.2926 27.6616 52.2926H25.6255V50.4714H38.3735V52.2926H32.1143C31.6835 52.2926 31.3339 52.6421 31.3339 53.073C31.3339 53.5044 31.6835 53.8535 32.1143 53.8535H38.3735V55.8047H36.5417C36.1108 55.8047 35.7612 56.1543 35.7612 56.5852C35.7612 57.0166 36.1108 57.3657 36.5417 57.3657H38.3735V57.6055C38.372 58.5344 37.6306 59.2936 36.7017 59.3169ZM30.9634 24.1326C30.3613 23.5304 30.3613 22.5548 30.9634 21.9527C31.5651 21.3511 32.5412 21.3511 33.1428 21.9527C33.7449 22.5548 33.7449 23.5304 33.1428 24.1326C32.5407 24.7332 31.5656 24.7332 30.9634 24.1326ZM43.5859 36.7992C43.1839 37.2809 42.7525 37.7377 42.2942 38.1666C39.811 40.4659 38.3913 43.692 38.3735 47.0766V48.9104H35.7719V38.6137C35.7927 37.7311 36.5153 37.0273 37.3979 37.0299C39.1423 37.0309 40.563 35.629 40.5849 33.8846V33.4649C41.1133 33.3282 41.595 33.0502 41.9771 32.66C43.1814 31.443 43.1743 29.4821 41.9624 28.2733C40.749 27.064 38.7861 27.064 37.5727 28.2733C36.9888 28.8516 36.6606 29.6402 36.6621 30.4618C36.6621 31.2906 36.9843 32.1305 37.5701 32.6508H37.5899C37.9909 33.0396 38.4843 33.3195 39.0239 33.4649V33.8846C39.0031 34.7672 38.2805 35.4709 37.3979 35.4689C35.6535 35.4674 34.2327 36.8693 34.2109 38.6137V48.9104H32.78V26.0406C33.3227 25.9054 33.8196 25.6275 34.2195 25.2357C35.4228 24.0253 35.4187 22.069 34.2109 20.8633C33.0026 19.658 31.0463 19.658 29.8384 20.8633C28.6301 22.069 28.626 24.0253 29.8293 25.2357C30.2109 25.626 30.6911 25.9039 31.219 26.0406V48.9104H29.7881V38.6137C29.7922 37.7824 29.4655 36.9837 28.8796 36.3932C28.2942 35.8033 27.4975 35.4704 26.6662 35.4689C26.2485 35.4674 25.8486 35.2992 25.5554 35.0019C25.2627 34.7042 25.1001 34.3023 25.1052 33.8846V33.4649C25.6408 33.319 26.1301 33.039 26.527 32.6503H26.5315C27.1169 32.13 27.4421 31.2906 27.4421 30.4618C27.4355 29.0614 26.4914 27.8389 25.1383 27.4791C23.7851 27.1188 22.3583 27.7103 21.6566 28.9222C20.9553 30.1346 21.153 31.6661 22.1398 32.6605C22.5265 33.0502 23.0117 33.3287 23.5443 33.4649V33.8846C23.5397 34.7159 23.8664 35.5152 24.4523 36.1051C25.0381 36.695 25.8344 37.0279 26.6662 37.0299C27.0839 37.0309 27.4833 37.1991 27.7765 37.4964C28.0696 37.7941 28.2317 38.196 28.2272 38.6137V48.9104H25.6255V47.0766C25.6352 43.724 24.2424 40.5197 21.7846 38.2397C17.2008 34.0294 15.6703 27.4384 17.9294 21.6392C20.1886 15.8394 25.7744 12.0203 31.998 12.0198C32.0452 12.0198 32.093 12.0198 32.1403 12.0203C37.9766 12.0747 43.2586 15.4883 45.7063 20.787C48.1539 26.0858 47.3282 32.3206 43.5859 36.7992ZM38.6738 31.5568C38.0722 30.9552 38.0722 29.9791 38.6738 29.3775C39.2759 28.7753 40.2515 28.7753 40.8537 29.3775C41.4553 29.9791 41.4553 30.9552 40.8531 31.5568C40.5655 31.8485 40.1733 32.0121 39.7637 32.0121C39.3542 32.0121 38.9614 31.848 38.6738 31.5563V31.5568ZM23.2526 31.5568C22.651 30.9552 22.651 29.9791 23.2526 29.3775C23.8547 28.7758 24.8303 28.7758 25.4319 29.3775C26.0341 29.9791 26.0341 30.9552 25.4319 31.5568C25.1443 31.8485 24.7521 32.0126 24.3425 32.0121C23.933 32.0121 23.5402 31.848 23.2526 31.5563V31.5568Z" fill="#1AE5BE"/>
</svg>
