<svg width="64" height="64" viewBox="0 0 64 64" fill="none" xmlns="http://www.w3.org/2000/svg">
<path d="M6 49.5289V4.70388C6.00003 4.34871 6.07003 3.99703 6.20599 3.66893C6.34196 3.34082 6.54123 3.04271 6.79242 2.79162C7.04361 2.54054 7.3418 2.34139 7.66997 2.20556C7.99813 2.06974 8.34984 1.99989 8.705 2H4.955C4.59984 1.99989 4.24813 2.06974 3.91997 2.20556C3.5918 2.34139 3.29361 2.54054 3.04242 2.79162C2.79123 3.04271 2.59196 3.34082 2.45599 3.66893C2.32003 3.99703 2.25003 4.34871 2.25 4.70388V49.5289C2.25007 50.2463 2.53508 50.9343 3.04235 51.4415C3.54962 51.9488 4.23761 52.2338 4.955 52.2339H8.705C7.98761 52.2338 7.29962 51.9488 6.79235 51.4415C6.28508 50.9343 6.00007 50.2463 6 49.5289Z" fill="#D4E1F4"/>
<path d="M13.5984 21.2875C13.7973 21.2875 13.9881 21.2085 14.1287 21.0678C14.2694 20.9272 14.3484 20.7364 14.3484 20.5375C14.3484 20.3386 14.2694 20.1478 14.1287 20.0071C13.9881 19.8665 13.7973 19.7875 13.5984 19.7875H10.0094C9.71968 19.7877 9.44191 19.9029 9.23702 20.1077C9.03214 20.3125 8.91687 20.5903 8.9165 20.88V28.0487C8.9169 28.3384 9.03218 28.6161 9.23706 28.8209C9.44194 29.0257 9.71969 29.1409 10.0094 29.1412H17.1875C17.4772 29.1409 17.7549 29.0257 17.9598 28.8209C18.1647 28.6161 18.28 28.3384 18.2804 28.0487V25.622C18.2804 25.4231 18.2014 25.2323 18.0607 25.0916C17.9201 24.951 17.7293 24.872 17.5304 24.872C17.3315 24.872 17.1407 24.951 17 25.0916C16.8594 25.2323 16.7804 25.4231 16.7804 25.622V27.6412H10.4165V21.2875H13.5984Z" fill="#A9B0B9"/>
<path d="M18.9001 19.3666C18.8244 19.3036 18.737 19.2562 18.643 19.2269C18.5489 19.1977 18.45 19.1873 18.3519 19.1962C18.2539 19.2052 18.1585 19.2334 18.0713 19.2793C17.9842 19.3251 17.9069 19.3877 17.8439 19.4634L14.2661 23.7625L13.1181 22.8336C13.0417 22.7703 12.9534 22.7228 12.8585 22.6938C12.7636 22.6649 12.6639 22.655 12.5651 22.6649C12.4664 22.6748 12.3706 22.7041 12.2832 22.7513C12.1959 22.7985 12.1188 22.8625 12.0564 22.9397C11.994 23.0168 11.9476 23.1056 11.9197 23.2009C11.8919 23.2962 11.8833 23.396 11.8943 23.4946C11.9053 23.5932 11.9358 23.6887 11.984 23.7755C12.0323 23.8622 12.0972 23.9385 12.1751 24L13.5551 25.1165C13.7819 25.303 14.0696 25.3991 14.363 25.3861C14.6563 25.3731 14.9344 25.2521 15.1439 25.0463L15.174 25.0174L18.997 20.4231C19.06 20.3474 19.1075 20.26 19.1368 20.1659C19.166 20.0718 19.1764 19.9729 19.1674 19.8748C19.1584 19.7767 19.1302 19.6813 19.0843 19.5941C19.0385 19.5069 18.9759 19.4296 18.9001 19.3666Z" fill="#A9B0B9"/>
<path d="M8.9165 43.9447C8.91687 44.2344 9.03213 44.5122 9.23702 44.717C9.4419 44.9218 9.71966 45.0371 10.0094 45.0373H17.1875C17.4772 45.0371 17.755 44.9218 17.9599 44.717C18.1647 44.5122 18.28 44.2344 18.2804 43.9447V41.518C18.2804 41.3191 18.2014 41.1283 18.0607 40.9876C17.9201 40.847 17.7293 40.768 17.5304 40.768C17.3315 40.768 17.1407 40.847 17 40.9876C16.8594 41.1283 16.7804 41.3191 16.7804 41.518V43.5375H10.4165V37.1835H13.5984C13.7973 37.1835 13.9881 37.1045 14.1287 36.9638C14.2694 36.8232 14.3484 36.6324 14.3484 36.4335C14.3484 36.2346 14.2694 36.0438 14.1287 35.9031C13.9881 35.7625 13.7973 35.6835 13.5984 35.6835H10.0094C9.71969 35.6838 9.44194 35.799 9.23706 36.0038C9.03218 36.2086 8.9169 36.4863 8.9165 36.776V43.9447Z" fill="#A9B0B9"/>
<path d="M18.8999 35.2625C18.8242 35.1995 18.7368 35.152 18.6428 35.1228C18.5487 35.0936 18.4498 35.0832 18.3517 35.0922C18.2537 35.1012 18.1583 35.1294 18.0711 35.1753C17.984 35.2211 17.9067 35.2837 17.8437 35.3594L14.2663 39.6584L13.1183 38.7296C13.0419 38.6665 12.9537 38.619 12.8588 38.5902C12.764 38.5613 12.6643 38.5515 12.5657 38.5614C12.467 38.5713 12.3713 38.6006 12.284 38.6477C12.1968 38.6948 12.1197 38.7588 12.0573 38.8359C11.995 38.913 11.9485 39.0016 11.9206 39.0968C11.8928 39.192 11.884 39.2917 11.8949 39.3903C11.9059 39.4888 11.9362 39.5842 11.9843 39.671C12.0323 39.7577 12.0971 39.8341 12.1748 39.8956L13.5548 41.0121C13.7816 41.1987 14.0693 41.2947 14.3626 41.2817C14.6559 41.2688 14.9341 41.1478 15.1435 40.942L15.1737 40.913L18.9967 36.3188C19.0597 36.2431 19.1071 36.1557 19.1364 36.0616C19.1656 35.9676 19.176 35.8687 19.1671 35.7706C19.1581 35.6725 19.1299 35.5772 19.084 35.49C19.0382 35.4028 18.9756 35.3255 18.8999 35.2625Z" fill="#A9B0B9"/>
<path d="M59.0455 1.25H4.9545C4.03869 1.25096 3.16066 1.61515 2.51304 2.26268C1.86541 2.91021 1.50109 3.78819 1.5 4.704V49.529C1.50082 50.444 1.86434 51.3213 2.51089 51.9687C3.15744 52.6161 4.03428 52.9808 4.94925 52.9829L34.1326 53.1893L34.1432 51.6893L4.9545 51.4827C4.43648 51.4823 3.93981 51.2763 3.57341 50.9101C3.207 50.544 3.00079 50.0474 3 49.5294V13.7976H61V49.5294C60.9993 50.0475 60.7932 50.5442 60.4268 50.9105C60.0604 51.2768 59.5636 51.4828 59.0455 51.4832C59.0319 51.4832 59.0182 51.4832 59.0046 51.4845L55.2214 51.6909L55.303 53.1885L59.0671 52.9832C59.9791 52.9766 60.8516 52.6099 61.4945 51.963C62.1375 51.3161 62.4989 50.4414 62.5 49.5294V4.704C62.4989 3.78819 62.1346 2.91021 61.487 2.26268C60.8393 1.61515 59.9613 1.25096 59.0455 1.25ZM3 12.2976V4.704C3.00063 4.18587 3.20677 3.68916 3.57318 3.32283C3.9396 2.95651 4.43637 2.7505 4.9545 2.75H59.0455C59.5636 2.7505 60.0604 2.95651 60.4268 3.32283C60.7932 3.68916 60.9994 4.18587 61 4.704V12.2976H3Z" fill="#A9B0B9"/>
<path d="M7.77515 4.55493C7.20653 4.55493 6.65067 4.72355 6.17788 5.03946C5.70509 5.35537 5.3366 5.80438 5.11899 6.32972C4.90139 6.85505 4.84446 7.43312 4.95539 7.99081C5.06632 8.54851 5.34014 9.06078 5.74222 9.46286C6.14429 9.86494 6.65657 10.1388 7.21426 10.2497C7.77196 10.3606 8.35002 10.3037 8.87536 10.0861C9.4007 9.86848 9.84971 9.49998 10.1656 9.02719C10.4815 8.5544 10.6501 7.99855 10.6501 7.42993C10.6494 6.66768 10.3462 5.93687 9.8072 5.39788C9.26821 4.85888 8.5374 4.55573 7.77515 4.55493ZM7.77515 8.80393C7.5032 8.80393 7.23736 8.72329 7.01124 8.5722C6.78512 8.42111 6.60888 8.20637 6.50481 7.95512C6.40074 7.70387 6.37351 7.4274 6.42657 7.16068C6.47962 6.89396 6.61058 6.64896 6.80288 6.45666C6.99517 6.26436 7.24017 6.13341 7.5069 6.08035C7.77362 6.0273 8.05009 6.05453 8.30134 6.1586C8.55259 6.26267 8.76733 6.4389 8.91842 6.66502C9.06951 6.89114 9.15015 7.15698 9.15015 7.42893C9.14978 7.79349 9.0048 8.14302 8.74702 8.4008C8.48923 8.65858 8.13971 8.80357 7.77515 8.80393Z" fill="#A9B0B9"/>
<path d="M15.354 4.55493C14.7854 4.55493 14.2295 4.72355 13.7567 5.03946C13.2839 5.35537 12.9155 5.80438 12.6979 6.32972C12.4802 6.85505 12.4233 7.43312 12.5342 7.99081C12.6452 8.54851 12.919 9.06078 13.3211 9.46286C13.7231 9.86494 14.2354 10.1388 14.7931 10.2497C15.3508 10.3606 15.9289 10.3037 16.4542 10.0861C16.9796 9.86848 17.4286 9.49998 17.7445 9.02719C18.0604 8.5544 18.229 7.99855 18.229 7.42993C18.2282 6.66768 17.9251 5.93687 17.3861 5.39788C16.8471 4.85888 16.1163 4.55573 15.354 4.55493ZM15.354 8.80393C15.0821 8.80393 14.8162 8.72329 14.5901 8.5722C14.364 8.42111 14.1877 8.20637 14.0837 7.95512C13.9796 7.70387 13.9524 7.4274 14.0054 7.16068C14.0585 6.89396 14.1894 6.64896 14.3817 6.45666C14.574 6.26436 14.819 6.13341 15.0858 6.08035C15.3525 6.0273 15.6289 6.05453 15.8802 6.1586C16.1314 6.26267 16.3462 6.4389 16.4973 6.66502C16.6484 6.89114 16.729 7.15698 16.729 7.42893C16.7286 7.79349 16.5837 8.14302 16.3259 8.4008C16.0681 8.65858 15.7186 8.80357 15.354 8.80393Z" fill="#A9B0B9"/>
<path d="M22.9334 4.55493C22.3647 4.55493 21.8089 4.72355 21.3361 5.03946C20.8633 5.35537 20.4948 5.80438 20.2772 6.32972C20.0596 6.85505 20.0027 7.43312 20.1136 7.99081C20.2245 8.54851 20.4983 9.06078 20.9004 9.46286C21.3025 9.86494 21.8148 10.1388 22.3725 10.2497C22.9302 10.3606 23.5082 10.3037 24.0336 10.0861C24.5589 9.86848 25.0079 9.49998 25.3238 9.02719C25.6397 8.5544 25.8084 7.99855 25.8084 7.42993C25.8076 6.66768 25.5044 5.93687 24.9654 5.39788C24.4264 4.85888 23.6956 4.55573 22.9334 4.55493ZM22.9334 8.80393C22.6614 8.80393 22.3956 8.72329 22.1694 8.5722C21.9433 8.42111 21.7671 8.20637 21.663 7.95512C21.5589 7.70387 21.5317 7.4274 21.5848 7.16068C21.6378 6.89396 21.7688 6.64896 21.9611 6.45666C22.1534 6.26436 22.3984 6.13341 22.6651 6.08035C22.9318 6.0273 23.2083 6.05453 23.4595 6.1586C23.7108 6.26267 23.9255 6.4389 24.0766 6.66502C24.2277 6.89114 24.3084 7.15698 24.3084 7.42893C24.308 7.7935 24.1631 8.14305 23.9053 8.40084C23.6475 8.65863 23.2979 8.8036 22.9334 8.80393Z" fill="#A9B0B9"/>
<path d="M58.4916 6.53748H34.125C33.9261 6.53748 33.7353 6.61649 33.5947 6.75715C33.454 6.8978 33.375 7.08856 33.375 7.28748C33.375 7.48639 33.454 7.67716 33.5947 7.81781C33.7353 7.95846 33.9261 8.03748 34.125 8.03748H58.4916C58.6905 8.03748 58.8813 7.95846 59.022 7.81781C59.1626 7.67716 59.2416 7.48639 59.2416 7.28748C59.2416 7.08856 59.1626 6.8978 59.022 6.75715C58.8813 6.61649 58.6905 6.53748 58.4916 6.53748Z" fill="#A9B0B9"/>
<path d="M25.9968 21.8103H55.2625C55.4614 21.8103 55.6521 21.7313 55.7928 21.5906C55.9334 21.45 56.0125 21.2592 56.0125 21.0603C56.0125 20.8614 55.9334 20.6706 55.7928 20.53C55.6521 20.3893 55.4614 20.3103 55.2625 20.3103H25.9968C25.7979 20.3103 25.6071 20.3893 25.4665 20.53C25.3258 20.6706 25.2468 20.8614 25.2468 21.0603C25.2468 21.2592 25.3258 21.45 25.4665 21.5906C25.6071 21.7313 25.7979 21.8103 25.9968 21.8103Z" fill="#1AE5BE"/>
<path d="M25.9968 28.0241H55.2625C55.4614 28.0241 55.6521 27.9451 55.7928 27.8044C55.9334 27.6638 56.0125 27.473 56.0125 27.2741C56.0125 27.0752 55.9334 26.8844 55.7928 26.7438C55.6521 26.6031 55.4614 26.5241 55.2625 26.5241H25.9968C25.7979 26.5241 25.6071 26.6031 25.4665 26.7438C25.3258 26.8844 25.2468 27.0752 25.2468 27.2741C25.2468 27.473 25.3258 27.6638 25.4665 27.8044C25.6071 27.9451 25.7979 28.0241 25.9968 28.0241Z" fill="#1AE5BE"/>
<path d="M55.2624 36.2062H49.1689C48.97 36.2062 48.7793 36.2853 48.6386 36.4259C48.498 36.5666 48.4189 36.7573 48.4189 36.9562C48.4189 37.1552 48.498 37.3459 48.6386 37.4866C48.7793 37.6272 48.97 37.7062 49.1689 37.7062H55.2624C55.4614 37.7062 55.6521 37.6272 55.7928 37.4866C55.9334 37.3459 56.0124 37.1552 56.0124 36.9562C56.0124 36.7573 55.9334 36.5666 55.7928 36.4259C55.6521 36.2853 55.4614 36.2062 55.2624 36.2062Z" fill="#1AE5BE"/>
<path d="M25.9968 37.7062H35.5017C35.7006 37.7062 35.8914 37.6272 36.032 37.4866C36.1727 37.3459 36.2517 37.1552 36.2517 36.9562C36.2517 36.7573 36.1727 36.5666 36.032 36.4259C35.8914 36.2853 35.7006 36.2062 35.5017 36.2062H25.9968C25.7979 36.2062 25.6071 36.2853 25.4665 36.4259C25.3258 36.5666 25.2468 36.7573 25.2468 36.9562C25.2468 37.1552 25.3258 37.3459 25.4665 37.4866C25.6071 37.6272 25.7979 37.7062 25.9968 37.7062Z" fill="#1AE5BE"/>
<path d="M25.9968 43.9202H28.5585C28.7574 43.9202 28.9481 43.8411 29.0888 43.7005C29.2294 43.5598 29.3085 43.3691 29.3085 43.1702C29.3085 42.9713 29.2294 42.7805 29.0888 42.6398C28.9481 42.4992 28.7574 42.4202 28.5585 42.4202H25.9968C25.7979 42.4202 25.6071 42.4992 25.4665 42.6398C25.3258 42.7805 25.2468 42.9713 25.2468 43.1702C25.2468 43.3691 25.3258 43.5598 25.4665 43.7005C25.6071 43.8411 25.7979 43.9202 25.9968 43.9202Z" fill="#1AE5BE"/>
<path d="M41.5125 31.1665C40.7405 31.1676 40.0005 31.4748 39.4548 32.0208C38.9091 32.5669 38.6023 33.307 38.6017 34.079V49.0365L38.5465 48.9565C37.9548 48.0988 37.1636 47.3977 36.241 46.9133C35.3184 46.429 34.292 46.176 33.25 46.176C32.9989 46.176 32.7517 46.2389 32.5311 46.3589C32.3105 46.4788 32.1234 46.6521 31.9869 46.8629C31.8503 47.0736 31.7687 47.3152 31.7493 47.5656C31.73 47.8159 31.7736 48.0672 31.8762 48.2964L32.0026 48.5791C32.5866 49.8851 33.0578 51.2387 33.4111 52.625L35.0029 58.88C35.0054 58.8901 35.0082 58.9003 35.0112 58.9104C35.339 60.0228 36.0192 60.9987 36.9495 61.6911C37.8798 62.3836 39.0098 62.7552 40.1695 62.75H50.6269C52.0549 62.7481 53.424 62.1798 54.4336 61.1698C55.4432 60.1598 56.0111 58.7906 56.0125 57.3625V48.8971C56.0131 48.4093 55.8824 47.9302 55.6341 47.5103C55.3858 47.0904 55.029 46.745 54.6012 46.5105C54.1734 46.276 53.6903 46.161 53.2027 46.1775C52.7152 46.1941 52.241 46.3416 51.8301 46.6045C51.6725 46.256 51.4427 45.945 51.1558 45.6919C50.869 45.4389 50.5317 45.2497 50.1662 45.1368C49.8008 45.0239 49.4155 44.99 49.036 45.0371C48.6564 45.0843 48.2912 45.2115 47.9645 45.4104C47.8223 45.0885 47.6164 44.7988 47.3592 44.5586C47.1021 44.3185 46.799 44.1329 46.4682 44.0129C46.1374 43.893 45.7857 43.8413 45.4344 43.8609C45.0831 43.8805 44.7394 43.971 44.424 44.127V34.0786C44.4233 33.3066 44.1163 32.5664 43.5705 32.0204C43.0246 31.4745 42.2845 31.1674 41.5125 31.1665ZM44.4552 46.4768C44.4552 46.18 44.5731 45.8955 44.7829 45.6857C44.9927 45.4759 45.2773 45.358 45.574 45.358C45.8707 45.358 46.1552 45.4759 46.3651 45.6857C46.5749 45.8955 46.6927 46.18 46.6927 46.4768V47.3268C46.6733 47.4577 46.6636 47.5898 46.6635 47.7221V50.6661C46.6635 50.865 46.7425 51.0558 46.8832 51.1965C47.0238 51.3371 47.2146 51.4161 47.4135 51.4161H47.4281C47.4281 51.4161 47.4377 51.4161 47.4427 51.4161C47.6416 51.4161 47.8324 51.3371 47.9731 51.1965C48.1137 51.0558 48.1927 50.865 48.1927 50.6661V47.4609C48.2565 47.171 48.4252 46.9149 48.6664 46.7418C48.9075 46.5687 49.2042 46.4909 49.4992 46.5232C49.7943 46.5555 50.067 46.6958 50.265 46.917C50.4629 47.1382 50.5721 47.4248 50.5716 47.7216V51.4435C50.5716 51.6424 50.6506 51.8332 50.7913 51.9738C50.9319 52.1145 51.1227 52.1935 51.3216 52.1935C51.5205 52.1935 51.7113 52.1145 51.8519 51.9738C51.9926 51.8332 52.0716 51.6424 52.0716 51.4435V48.8971C52.07 48.7359 52.1003 48.5759 52.1609 48.4264C52.2215 48.277 52.3111 48.141 52.4246 48.0264C52.538 47.9118 52.6731 47.8208 52.8219 47.7587C52.9707 47.6966 53.1304 47.6647 53.2917 47.6647C53.4529 47.6647 53.6126 47.6966 53.7614 47.7587C53.9103 47.8208 54.0453 47.9118 54.1588 48.0264C54.2722 48.141 54.3618 48.277 54.4224 48.4264C54.483 48.5759 54.5134 48.7359 54.5117 48.8971V57.3625C54.5107 58.3928 54.1012 59.3806 53.3729 60.1094C52.6447 60.8381 51.6571 61.2483 50.6269 61.25H40.1695C39.3353 61.2537 38.5224 60.9872 37.8523 60.4903C37.1823 59.9934 36.6912 59.2929 36.4525 58.4936L34.865 52.2548C34.4907 50.7857 33.9915 49.3513 33.3727 47.9673L33.25 47.676C34.0492 47.676 34.8365 47.87 35.5441 48.2415C36.2517 48.6129 36.8586 49.1507 37.3125 49.8085L38.6022 51.6771V54.4625C38.6022 54.6614 38.6812 54.8522 38.8219 54.9928C38.9625 55.1335 39.1533 55.2125 39.3522 55.2125C39.5511 55.2125 39.7419 55.1335 39.8826 54.9928C40.0232 54.8522 40.1022 54.6614 40.1022 54.4625V34.0786C40.1022 33.7045 40.2509 33.3456 40.5154 33.0811C40.78 32.8165 41.1388 32.6679 41.513 32.6679C41.8871 32.6679 42.246 32.8165 42.5105 33.0811C42.7751 33.3456 42.9237 33.7045 42.9237 34.0786V47.392C42.9238 47.4653 42.9345 47.5381 42.9557 47.6083V50.6656C42.9557 50.8645 43.0347 51.0553 43.1754 51.196C43.3161 51.3366 43.5068 51.4156 43.7057 51.4156C43.9046 51.4156 44.0954 51.3366 44.2361 51.196C44.3767 51.0553 44.4557 50.8645 44.4557 50.6656L44.4552 46.4768Z" fill="#1AE5BE"/>
</svg>
