<svg width="64" height="64" viewBox="0 0 64 64" fill="none" xmlns="http://www.w3.org/2000/svg">
<path d="M35.75 46.9894C35.5819 45.1845 33.9626 41.1701 33.8942 41.0001C33.8852 40.9777 33.8751 40.9558 33.8638 40.9345C32.7966 38.9015 32.265 36.63 32.3191 34.3346C32.3731 32.0391 33.011 29.7952 34.1727 27.8146C35.2347 25.9679 36.727 24.405 38.5226 23.2587C40.3183 22.1125 42.3641 21.4167 44.4863 21.2306C44.0128 21.1901 43.5353 21.1725 43.0538 21.1776C42.9273 21.1791 42.8013 21.182 42.6758 21.1865C40.4298 21.2657 38.2409 21.9158 36.3158 23.0755C34.3907 24.2352 32.7927 25.8662 31.6727 27.8146C30.511 29.7952 29.8731 32.0391 29.8191 34.3346C29.765 36.63 30.2966 38.9015 31.3638 40.9345C31.3751 40.9558 31.3852 40.9777 31.3942 41.0001C31.463 41.1701 33.0817 45.1845 33.25 46.9894C33.7038 51.8644 33.4133 58.891 33.2947 61.25H35.7947C35.9135 58.891 36.204 51.8644 35.75 46.9894Z" fill="#D4E1F4"/>
<path d="M50.8641 54.4683H50.8516C50.7704 54.4683 50.6891 54.472 50.6099 54.4785C51.9802 54.4854 52.7397 54.491 52.8747 54.4951C52.9953 54.4979 53.116 54.4926 53.2359 54.4791C52.5889 54.4757 51.7983 54.4721 50.8641 54.4683Z" fill="#D4E1F4"/>
<path d="M44.0184 10.5191L39.3764 5.81763C39.2446 5.68401 39.0675 5.60467 38.88 5.59528C38.6926 5.58588 38.5084 5.64711 38.3639 5.76687L34.9729 8.575C33.3253 7.56214 31.5334 6.80558 29.6584 6.33125L29.2334 1.928C29.2155 1.74253 29.1292 1.57035 28.9913 1.44502C28.8535 1.31968 28.6739 1.25016 28.4875 1.25H21.8219C21.6355 1.25001 21.4557 1.31946 21.3177 1.44481C21.1797 1.57016 21.0933 1.74242 21.0754 1.928L20.6504 6.331C18.7717 6.79719 16.9769 7.5529 15.3305 8.571L11.945 5.76687C11.8012 5.64773 11.6181 5.58654 11.4315 5.59528C11.2449 5.60402 11.0683 5.68206 10.9363 5.81413L6.23478 10.5156C6.10254 10.6477 6.02439 10.8244 6.01565 11.0112C6.00691 11.1979 6.06821 11.3811 6.18753 11.525L8.99603 14.9164C7.98305 16.564 7.2264 18.356 6.75203 20.231L2.34865 20.656C2.16307 20.6739 1.99081 20.7603 1.86546 20.8983C1.74011 21.0363 1.67066 21.2161 1.67065 21.4025V28.068C1.67066 28.2544 1.74011 28.4342 1.86546 28.5722C1.99081 28.7102 2.16307 28.7966 2.34865 28.8145L6.75153 29.2375C7.21761 31.1163 7.97337 32.9111 8.99166 34.5574L6.18753 37.9437C6.06844 38.0876 6.00729 38.2707 6.01606 38.4572C6.02482 38.6438 6.10286 38.8203 6.2349 38.9524L10.9363 43.6539C11.0683 43.786 11.2449 43.864 11.4315 43.8728C11.6181 43.8815 11.8012 43.8204 11.945 43.7012L15.3363 40.8929C16.9839 41.906 18.7759 42.6629 20.6509 43.1375L21.0759 47.5407C21.0938 47.7263 21.1802 47.8986 21.3182 48.0239C21.4562 48.1493 21.636 48.2187 21.8224 48.2188H28.4875C28.674 48.2188 28.8538 48.1493 28.9918 48.024C29.1299 47.8986 29.2163 47.7263 29.2342 47.5407L29.6592 43.1379C30.1805 43.0085 30.6999 42.8559 31.2092 42.6816L30.7238 41.2622C30.0953 41.4772 29.4548 41.6555 28.8057 41.7961C28.6503 41.8298 28.5097 41.912 28.4041 42.0308C28.2985 42.1496 28.2334 42.2989 28.2182 42.4571L27.8074 46.7188H22.503L22.0923 42.4571C22.077 42.2988 22.0118 42.1495 21.9061 42.0307C21.8004 41.9118 21.6596 41.8297 21.5042 41.7961C19.4312 41.3353 17.4587 40.5031 15.682 39.3399C15.5481 39.2535 15.3901 39.212 15.2309 39.2214C15.0718 39.2309 14.9198 39.2908 14.797 39.3925L11.514 42.1105L7.77828 38.375L10.4969 35.092C10.5998 34.9677 10.6599 34.8136 10.6682 34.6525C10.6766 34.4914 10.6328 34.3319 10.5433 34.1976C9.37294 32.429 8.54212 30.4579 8.09328 28.3851C8.05957 28.2298 7.97739 28.0892 7.85858 27.9836C7.73978 27.878 7.5905 27.8129 7.43228 27.7976L3.17065 27.3867V22.0825L7.43228 21.6717C7.5905 21.6565 7.73978 21.5914 7.85858 21.4858C7.97739 21.3802 8.05957 21.2396 8.09328 21.0842C8.55416 19.011 9.3865 17.0383 10.55 15.2615C10.6365 15.1275 10.6779 14.9695 10.6685 14.8104C10.659 14.6513 10.5991 14.4993 10.4974 14.3765L7.77828 11.0936L11.514 7.35763L14.797 10.0763C14.9213 10.1791 15.0754 10.2392 15.2365 10.2476C15.3977 10.2559 15.5572 10.2121 15.6914 10.1226C17.4601 8.9524 19.4312 8.12158 21.5039 7.67263C21.6594 7.63904 21.8001 7.5569 21.9058 7.43809C22.0115 7.31927 22.0767 7.16993 22.092 7.01162L22.503 2.75H27.8062L28.2169 7.01162C28.2322 7.16984 28.2973 7.31912 28.4029 7.43793C28.5085 7.55673 28.6491 7.63892 28.8044 7.67263C30.8774 8.13347 32.85 8.96563 34.6267 10.1289C34.7606 10.2153 34.9186 10.2568 35.0778 10.2473C35.2369 10.2379 35.3889 10.1779 35.5117 10.0763L38.7912 7.36037L42.475 11.0903L39.7535 14.3765C39.6506 14.5008 39.5906 14.6549 39.5822 14.816C39.5738 14.9771 39.6177 15.1366 39.7072 15.2709C40.7873 16.9043 41.5789 18.7111 42.0475 20.6125L43.504 20.2537C43.0377 18.3669 42.2799 16.5643 41.2582 14.9109L44.0625 11.525C44.1813 11.3817 44.2425 11.1994 44.2343 11.0136C44.2262 10.8277 44.1492 10.6514 44.0184 10.5191Z" fill="#1AE5BE"/>
<path d="M25.1546 11.0066C23.1666 11.0081 21.2026 11.4414 19.3985 12.2766C17.5944 13.1117 15.9932 14.3287 14.7056 15.8435C13.418 17.3583 12.4749 19.1346 11.9413 21.0497C11.4077 22.9648 11.2965 24.973 11.6153 26.9353C11.934 28.8976 12.6752 30.7673 13.7876 32.415C14.9 34.0627 16.357 35.4492 18.0578 36.4785C19.7587 37.5078 21.6628 38.1553 23.6385 38.3764C25.6142 38.5975 27.6144 38.3869 29.5006 37.759L29.0256 36.3361C26.6964 37.113 24.1872 37.1708 21.8247 36.5019C19.4622 35.833 17.3558 34.4683 15.7796 32.5856C14.2034 30.7029 13.2305 28.3894 12.9874 25.946C12.7444 23.5027 13.2425 21.0428 14.4169 18.8865C15.5913 16.7302 17.3876 14.9773 19.572 13.8561C21.7565 12.7349 24.2279 12.2972 26.6645 12.6C29.1011 12.9029 31.3902 13.9322 33.2337 15.5541C35.0772 17.1759 36.3898 19.3151 37.0006 21.6933L38.4538 21.3215C37.698 18.369 35.9805 15.7523 33.5722 13.8845C31.164 12.0167 28.2023 11.0041 25.1546 11.0066Z" fill="#1AE5BE"/>
<path d="M29.9782 20.8214L23.5862 27.0625L20.2715 23.8263C20.1289 23.6888 19.9377 23.6133 19.7396 23.6163C19.5415 23.6193 19.3527 23.7006 19.2143 23.8423C19.076 23.984 18.9993 24.1748 19.001 24.3728C19.0027 24.5709 19.0828 24.7602 19.2236 24.8995L23.0623 28.6473C23.2024 28.7841 23.3905 28.8606 23.5863 28.8606C23.7821 28.8606 23.9701 28.7841 24.1102 28.6473L31.0261 21.8951C31.0973 21.8265 31.1542 21.7445 31.1936 21.6538C31.233 21.563 31.254 21.4654 31.2555 21.3665C31.257 21.2677 31.2389 21.1694 31.2023 21.0776C31.1657 20.9857 31.1113 20.902 31.0422 20.8312C30.9731 20.7605 30.8907 20.7041 30.7998 20.6653C30.7088 20.6265 30.6111 20.6061 30.5122 20.6052C30.4133 20.6043 30.3152 20.623 30.2235 20.6602C30.1319 20.6974 30.0485 20.7524 29.9782 20.8219V20.8214Z" fill="#1AE5BE"/>
<path d="M62.2346 45.5938L59.3354 37.9993C59.3335 37.2993 59.3266 35.1685 59.3104 34.9071C59.0848 30.7923 57.2911 26.9204 54.2982 24.0875C51.3053 21.2546 47.3407 19.6762 43.2198 19.6768C43.1591 19.6768 43.0979 19.6768 43.0374 19.6778C42.8986 19.6793 42.7603 19.6825 42.6224 19.6875C40.1229 19.7751 37.687 20.498 35.5444 21.788C33.4018 23.078 31.6232 24.8925 30.3763 27.0605C29.0897 29.2545 28.3818 31.7394 28.319 34.282C28.2563 36.8245 28.8407 39.3414 30.0174 41.5961C30.473 42.726 31.6351 45.8239 31.7566 47.1284C32.212 52.021 31.8878 59.38 31.7838 61.417C31.7751 61.5879 31.8011 61.7587 31.8602 61.9193C31.9193 62.0799 32.0102 62.2268 32.1276 62.3513C32.2463 62.4772 32.3895 62.5775 32.5483 62.6461C32.7072 62.7146 32.8784 62.75 33.0514 62.75H46.2139C46.4128 62.75 46.6036 62.671 46.7442 62.5303C46.8849 62.3897 46.9639 62.1989 46.9639 62V56.9884C47.0562 56.6924 47.2407 56.4337 47.4906 56.2502C47.7404 56.0666 48.0425 55.9678 48.3525 55.9683H48.3585C51.0241 55.9794 52.6535 55.9889 52.8286 55.9944C53.3899 56.0131 53.9491 55.9171 54.472 55.7123C54.9949 55.5075 55.4705 55.1981 55.8698 54.8031C56.2695 54.4031 56.5856 53.9275 56.7997 53.404C57.0138 52.8806 57.1216 52.3198 57.1168 51.7543V47.5375H60.8568C61.2237 47.5429 61.5796 47.4119 61.8555 47.17C62.0703 46.9762 62.2215 46.7219 62.2891 46.4406C62.3568 46.1593 62.3378 45.8641 62.2346 45.5938ZM56.3661 46.0375C56.1672 46.0375 55.9765 46.1165 55.8358 46.2572C55.6952 46.3978 55.6161 46.5886 55.6161 46.7875V51.8309C55.6161 52.1873 55.5447 52.5401 55.406 52.8684C55.2672 53.1966 55.0641 53.4938 54.8085 53.7422C54.5529 53.9906 54.2501 54.1852 53.918 54.3145C53.5859 54.4439 53.2313 54.5053 52.875 54.4951C52.6788 54.489 51.1611 54.48 48.3643 54.4683H48.3518C47.6932 54.4674 47.0533 54.687 46.5339 55.0919C46.0146 55.4969 45.6457 56.064 45.486 56.7029C45.4709 56.7627 45.4633 56.8242 45.4633 56.8859V61.25H33.2949C33.4135 58.891 33.704 51.8644 33.2503 46.9894C33.0821 45.1845 31.4628 41.1701 31.3944 41.0001C31.3854 40.9777 31.3753 40.9558 31.364 40.9345C30.2969 38.9015 29.7652 36.63 29.8193 34.3346C29.8733 32.0391 30.5112 29.7952 31.6729 27.8146C32.7929 25.8662 34.3909 24.2352 36.316 23.0755C38.2411 21.9158 40.43 21.2657 42.676 21.1865C42.8016 21.182 42.9276 21.1791 43.054 21.1776C46.8205 21.1342 50.4583 22.547 53.2083 25.1212C55.9582 27.6953 57.6079 31.232 57.8131 34.9931C57.8248 35.1866 57.8331 37.0261 57.8358 38.1401C57.836 38.231 57.8526 38.321 57.885 38.4059L60.7986 46.0375H56.3661Z" fill="#A9B0B9"/>
</svg>
