<svg width="64" height="64" viewBox="0 0 64 64" fill="none" xmlns="http://www.w3.org/2000/svg">
<g clip-path="url(#clip0)">
<path d="M31.9335 58.1624V22.2173C31.9335 21.7274 31.5477 21.3248 31.0583 21.3046C27.4178 21.1554 23.7886 20.8046 20.1867 20.2546C19.9589 20.2207 19.8008 20.0108 19.8311 19.7825L22.0274 2.21426C21.1326 2.0787 20.33 1.9467 19.6652 1.83254C19.5517 1.81292 19.4351 1.84087 19.3424 1.90984C19.2502 1.97881 19.1896 2.08226 19.1753 2.19701L16.7869 21.3046C16.7566 21.5323 16.9148 21.7428 17.1425 21.7767C20.7444 22.3267 24.3736 22.6775 28.0141 22.8267C28.5035 22.8469 28.8893 23.2495 28.8893 23.7394V59.6845L32.0614 61.7994L34.725 60.0234L31.9335 58.1624Z" fill="#D4E1F4"/>
<path d="M12.8086 50.9153H14.3711C15.983 50.9165 17.4652 50.0324 18.2304 48.6137C18.6764 47.7861 19.5403 47.2706 20.4803 47.27L27.9415 47.295L27.9474 45.4685L20.4832 45.4435C18.8714 45.4423 17.3885 46.3264 16.6233 47.7457C16.1768 48.5739 15.3117 49.0894 14.3705 49.0888H12.783C12.3109 47.6339 10.8459 46.7432 9.33689 46.9929C7.82788 47.2426 6.72793 48.5578 6.74933 50.0871C6.77133 51.6169 7.90755 52.9006 9.4231 53.1075C10.9387 53.315 12.3775 52.3827 12.8086 50.9153ZM8.57822 50.0443C8.57822 49.345 9.14484 48.7784 9.84405 48.7784C10.5427 48.7784 11.1093 49.345 11.1093 50.0443C11.1093 50.7429 10.5427 51.3095 9.84405 51.3095C9.14544 51.3089 8.57941 50.7429 8.57822 50.0443Z" fill="#A9B0B9"/>
<path d="M14.7571 61.8209H16.448C18.6111 61.8126 20.5131 60.3892 21.132 58.3171C21.5191 57.0197 22.71 56.1291 24.0639 56.1231H28.0058V54.2966H24.0639C21.9008 54.3055 19.9988 55.7289 19.3799 57.8016C18.9922 59.0984 17.8019 59.9896 16.448 59.995H14.7571C14.3052 58.5341 12.8533 57.6226 11.3413 57.851C9.82872 58.0793 8.71094 59.379 8.71094 60.9082C8.71094 62.4374 9.82872 63.7372 11.3413 63.9655C12.8533 64.1938 14.3052 63.2823 14.7571 61.8215V61.8209ZM10.5374 60.9076C10.5374 60.209 11.1041 59.6424 11.8027 59.6424C12.5019 59.6424 13.0685 60.209 13.0685 60.9076C13.0685 61.6068 12.5019 62.1735 11.8027 62.1735C11.1041 62.1729 10.538 61.6062 10.5374 60.9076Z" fill="#A9B0B9"/>
<path d="M9.10024 32.357C10.4553 32.3553 11.6521 31.4729 12.0541 30.1785H16.3558C17.0764 30.1815 17.6989 30.6833 17.8552 31.3867C18.1971 32.9272 19.5605 34.026 21.139 34.0331H28.0063V32.2066H21.139C20.4184 32.203 19.7959 31.7018 19.6401 30.9985C19.2977 29.4579 17.9343 28.3592 16.3558 28.352H12.0541C11.5849 26.8347 10.0426 25.9197 8.48606 26.2348C6.93007 26.5499 5.8652 27.9935 6.02395 29.5739C6.18211 31.1536 7.51216 32.357 9.10024 32.357ZM9.10024 27.9995C9.79886 27.9995 10.3655 28.5661 10.3655 29.2653C10.3655 29.9639 9.79886 30.5305 9.10024 30.5305C8.40103 30.5305 7.83501 29.9639 7.83501 29.2653C7.8356 28.5667 8.40163 28.0006 9.10024 27.9995Z" fill="#A9B0B9"/>
<path d="M21.9364 39.4431C21.2895 37.883 19.7662 36.8669 18.0771 36.8699H17.2494C16.7981 35.4084 15.3462 34.4975 13.8336 34.7259C12.3216 34.9542 11.2039 36.2539 11.2039 37.7831C11.2039 39.3123 12.3216 40.6121 13.8336 40.8404C15.3462 41.0687 16.7981 40.1572 17.2494 38.6964H18.0771C19.0284 38.6946 19.8863 39.2666 20.2508 40.1453C20.8977 41.7055 22.4216 42.721 24.1107 42.718H27.9451V40.8915H24.1107C23.1594 40.8933 22.3015 40.3213 21.9364 39.4431ZM14.2956 39.0483C13.597 39.0483 13.0304 38.4817 13.0304 37.7831C13.0304 37.0839 13.597 36.5173 14.2962 36.5173C14.9948 36.5179 15.5614 37.0839 15.5614 37.7831C15.5603 38.4817 14.9942 39.0478 14.2956 39.0483Z" fill="#A9B0B9"/>
<path d="M57.3202 50.0443C57.3202 48.5233 56.2143 47.2284 54.7124 46.9906C53.2106 46.7527 51.7586 47.6422 51.2889 49.0888H49.7008C48.7596 49.0894 47.8945 48.5739 47.448 47.7457C46.6822 46.3258 45.1982 45.4417 43.5851 45.4435L35.9622 45.4685L35.9681 47.295L43.5881 47.27C44.5293 47.2694 45.3944 47.7855 45.8409 48.6137C46.6061 50.0324 48.089 50.9165 49.7008 50.9153H51.2633C51.6962 52.3904 53.1475 53.3239 54.6696 53.1045C56.1911 52.8857 57.3208 51.5818 57.3202 50.0443ZM54.2279 51.3095C53.5292 51.3095 52.9626 50.7429 52.9626 50.0443C52.9626 49.345 53.5292 48.7784 54.2279 48.7784C54.9271 48.7784 55.4937 49.345 55.4937 50.0443C55.4925 50.7429 54.9265 51.3089 54.2279 51.3095Z" fill="#A9B0B9"/>
<path d="M49.1777 60.9075C49.1777 62.6157 50.5619 63.9999 52.2695 63.9999C53.9771 63.9999 55.3612 62.6157 55.3612 60.9075C55.3612 59.1999 53.9771 57.8158 52.2695 57.8158C50.5625 57.8176 49.1795 59.2011 49.1777 60.9075ZM53.5347 60.9075C53.5347 61.6067 52.9681 62.1734 52.2695 62.1734C51.5703 62.1734 51.0042 61.6067 51.0042 60.9075C51.0042 60.2089 51.5703 59.6423 52.2695 59.6423C52.9681 59.6429 53.5341 60.2089 53.5347 60.9075Z" fill="#A9B0B9"/>
<path d="M54.9717 26.173C53.6167 26.1748 52.4199 27.0577 52.0179 28.3521H47.7162C46.1377 28.3592 44.7743 29.458 44.4318 30.9985C44.2761 31.7019 43.6535 32.2031 42.9335 32.2067H36.0657V34.0332H42.9335C44.5115 34.026 45.8749 32.9273 46.2173 31.3867C46.3731 30.6834 46.9956 30.1816 47.7162 30.1786H52.0179C52.487 31.6959 54.0293 32.611 55.5859 32.2958C57.1425 31.9801 58.2068 30.5371 58.0486 28.9567C57.8899 27.3764 56.5598 26.173 54.9717 26.173ZM54.9717 30.5306C54.2731 30.5306 53.7065 29.9639 53.7065 29.2653C53.7065 28.5661 54.2731 27.9995 54.9717 27.9995C55.6709 27.9995 56.2376 28.5661 56.2376 29.2653C56.2364 29.9639 55.6704 30.53 54.9717 30.5306Z" fill="#A9B0B9"/>
<path d="M43.8212 40.1453C44.1857 39.2665 45.0437 38.6946 45.995 38.6958H46.8226C47.2739 40.1572 48.7258 41.0687 50.2384 40.8398C51.7504 40.6115 52.8682 39.3117 52.8682 37.7825C52.8682 36.2533 51.7504 34.9535 50.2384 34.7252C48.7258 34.4969 47.2739 35.4084 46.8226 36.8692H45.995C44.3064 36.8669 42.7819 37.8824 42.1356 39.4431C41.7712 40.3213 40.9126 40.8939 39.9613 40.8921H36.127V42.7186H39.9613C41.6505 42.7216 43.1743 41.7055 43.8212 40.1453ZM49.7764 36.5173C50.4756 36.5173 51.0416 37.0839 51.0416 37.7831C51.0416 38.4817 50.475 39.0483 49.7764 39.0483C49.0772 39.0483 48.5112 38.4817 48.5112 37.7825C48.5118 37.0839 49.0778 36.5179 49.7764 36.5173Z" fill="#A9B0B9"/>
<path d="M41.6831 12.141L41.1379 7.7834C41.0796 7.3018 40.6545 6.95101 40.1711 6.98549L36.3177 7.24235C33.4834 7.43023 30.639 7.43023 27.8047 7.24235L23.9519 6.98549C23.4685 6.9516 23.0428 7.3024 22.9846 7.7834L22.4399 12.141C22.3852 12.5792 22.6522 12.9942 23.0738 13.1256L31.7889 15.8505C31.9661 15.9058 32.1564 15.9058 32.3341 15.8505L41.0493 13.1256C41.4708 12.9942 41.7372 12.5792 41.6831 12.141ZM32.0612 14.021L24.3467 11.61L24.6904 8.86551L27.6828 9.06469C30.5986 9.25852 33.5239 9.25852 36.4396 9.06469L39.4327 8.86551L39.7757 11.61L32.0612 14.021Z" fill="#1AE5BE"/>
<path d="M32.0612 28.8817C31.557 28.8817 31.1479 29.2902 31.1479 29.795V58.3508C31.1479 58.855 31.557 59.2641 32.0612 59.2641C32.566 59.2641 32.9745 58.855 32.9745 58.3508V29.795C32.9745 29.2902 32.566 28.8817 32.0612 28.8817Z" fill="#1AE5BE"/>
<path d="M44.6923 57.8008C44.0734 55.7288 42.1714 54.3054 40.0089 54.2965H37.0599V24.6121C40.4745 24.4421 43.8784 24.0978 47.2579 23.5811C48.4655 23.4022 49.3068 22.2885 49.1492 21.078L46.7638 1.99832C46.6871 1.38235 46.3589 0.825243 45.8571 0.45899C45.3553 0.0933309 44.7244 -0.0487705 44.1144 0.06717C41.5964 0.544608 36.7453 1.34549 32.5483 1.34549C28.0908 1.34549 22.2706 0.426883 19.975 0.0320906C19.3697 -0.0713642 18.7478 0.076683 18.2549 0.442937C17.7614 0.808595 17.4391 1.36035 17.363 1.97038L14.9747 21.078C14.8165 22.2885 15.6578 23.4028 16.8654 23.5811C20.2449 24.0978 23.6488 24.4421 27.0634 24.6121V60.1738C27.0634 60.4788 27.2162 60.7636 27.4701 60.933L31.5554 63.6567C31.8622 63.8607 32.2617 63.8607 32.5685 63.6567L36.6538 60.933C36.9077 60.7636 37.0605 60.4788 37.0605 60.1732V56.123H40.0089C41.3628 56.1283 42.5531 57.0196 42.9401 58.3169C43.5591 60.389 45.4611 61.8124 47.6241 61.8213H50.1748V59.9948H47.6241C46.2703 59.9894 45.0794 59.0982 44.6923 57.8008ZM35.2334 23.7393V59.6844L32.0613 61.7993L28.8893 59.6844V23.7393C28.8893 23.2494 28.5035 22.8468 28.0141 22.8266C24.3736 22.6774 20.7443 22.3266 17.1425 21.7766C16.9147 21.7427 16.7566 21.5328 16.7869 21.3045L19.1753 2.19691C19.1896 2.08275 19.2502 1.9793 19.3424 1.91033C19.4351 1.84136 19.5516 1.81341 19.6652 1.83303C22.5738 2.33307 28.1152 3.1726 32.5483 3.1726C36.8952 3.1726 41.8735 2.3515 44.4545 1.86157C44.5687 1.84017 44.687 1.86693 44.7815 1.9359C44.8755 2.00486 44.9367 2.10951 44.951 2.22485L47.3364 21.3045C47.3661 21.5328 47.208 21.7427 46.9808 21.7766C43.3789 22.3266 39.7497 22.6774 36.1092 22.8266C35.6198 22.8468 35.2334 23.2494 35.2334 23.7393Z" fill="#1AE5BE"/>
</g>
<defs>
<clipPath id="clip0">
<rect width="64" height="64" fill="white"/>
</clipPath>
</defs>
</svg>
