<svg width="64" height="64" viewBox="0 0 64 64" fill="none" xmlns="http://www.w3.org/2000/svg">
<path d="M35.4775 43.8302H12.0883C9.15765 43.8277 6.78222 41.4527 6.77963 38.522V7.71773C6.77963 7.47075 6.79731 7.22376 6.83179 6.9798C4.21283 7.35049 2.26498 9.59014 2.26196 12.235V43.0402C2.26498 45.9703 4.63998 48.3445 7.56972 48.3479H36.8564L35.4775 43.8302Z" fill="#D4E1F4"/>
<path d="M50.8004 12.2733V30.863C50.1625 30.7526 49.5172 30.6901 48.8698 30.6755V18.9389H3.91681V42.4186C3.91983 44.9302 5.9556 46.9651 8.46724 46.969H35.4004C35.5409 47.6259 35.7319 48.2712 35.9715 48.8992H8.46724C4.88965 48.8945 1.99095 45.9958 1.98621 42.4186V12.2733C1.99052 8.69531 4.88965 5.79661 8.46724 5.7923H44.3194C47.897 5.79618 50.7966 8.69531 50.8004 12.2733ZM48.8698 17.0082V12.2733C48.8672 9.76169 46.8315 7.72549 44.3194 7.7229H8.46724C5.9556 7.72592 3.91983 9.76169 3.91681 12.2733V17.0082H48.8698Z" fill="#A9B0B9"/>
<path d="M50.8005 30.863C50.1626 30.7526 49.5173 30.6901 48.8699 30.6755C48.7613 30.672 48.6505 30.6712 48.5402 30.6712C48.007 30.6712 47.5751 31.1031 47.5751 31.6363C47.5751 32.1694 48.007 32.6018 48.5402 32.6018C48.9371 32.6018 49.3289 32.622 49.7164 32.6608C55.435 33.2501 59.8432 37.9669 60.0445 43.7121C60.2462 49.4574 56.1798 54.4716 50.5169 55.4608C44.8539 56.4496 39.3289 53.1112 37.5708 47.6375C37.4527 47.269 37.3535 46.8953 37.2746 46.5164H39.0212C39.3738 46.516 39.6979 46.3242 39.8677 46.0151C40.0367 45.7065 40.0242 45.3298 39.8354 45.0324L37.0458 40.6535C36.8682 40.3746 36.5613 40.2061 36.2311 40.2061C35.9014 40.2061 35.5945 40.3746 35.4173 40.6535L32.6276 45.0324C32.438 45.3298 32.4264 45.7069 32.5958 46.016C32.7656 46.3246 33.0897 46.5164 33.4427 46.5164H35.3113C35.3384 46.6677 35.3673 46.8199 35.4005 46.969C35.541 47.6259 35.732 48.2712 35.9716 48.8992C38.2863 54.9845 44.6281 58.5367 51.0268 57.3328C57.4246 56.1285 62.0414 50.5138 61.9858 44.0031C61.9302 37.4927 57.2182 31.9574 50.8005 30.863ZM35.2018 44.5858L36.2324 42.9686L37.2621 44.5858H35.2018Z" fill="#1AE5BE"/>
<path d="M47.8852 37.2556C47.3516 37.2556 46.9197 37.6875 46.9197 38.2207V45.1005C46.9197 45.6332 47.3516 46.0656 47.8852 46.0656H53.1266C53.6593 46.0656 54.0916 45.6332 54.0916 45.1005C54.0916 44.5673 53.6593 44.135 53.1266 44.135H48.8503V38.2207C48.8498 37.688 48.4179 37.2561 47.8852 37.2556Z" fill="#1AE5BE"/>
<path d="M23.6186 9.73798H23.6109C22.1208 9.73496 20.9109 10.941 20.9087 12.4311C20.9061 13.9216 22.1121 15.1311 23.6027 15.1332H23.6109C25.0966 15.132 26.3022 13.9302 26.3091 12.4444C26.313 10.9548 25.1091 9.74315 23.6186 9.73798ZM23.6109 13.2031H23.6091C23.1859 13.2018 22.8427 12.8569 22.844 12.4332C22.8458 12.0108 23.1884 11.669 23.6109 11.6682H23.6134C24.0371 11.669 24.3802 12.013 24.3794 12.4371C24.379 12.8608 24.0346 13.2035 23.6109 13.2031Z" fill="#1AE5BE"/>
<path d="M15.8362 9.71427H15.8276C14.3379 9.71211 13.128 10.9181 13.1259 12.4078C13.1237 13.8979 14.3297 15.1074 15.8198 15.1095H15.8276C17.3138 15.1074 18.5198 13.9056 18.5263 12.4199V12.4112C18.5246 10.925 17.3224 9.71987 15.8362 9.71427ZM15.8276 13.1794H15.825C15.4013 13.1785 15.0586 12.8345 15.059 12.4104C15.0595 11.9867 15.4039 11.644 15.8276 11.6444H15.8306C16.2543 11.6457 16.597 11.9906 16.5957 12.4138C16.5935 12.8367 16.2504 13.1785 15.8276 13.1794Z" fill="#1AE5BE"/>
<path d="M8.05349 9.68927H8.0453C6.55521 9.68712 5.34573 10.8932 5.34314 12.3832C5.34099 13.8729 6.54702 15.0828 8.03668 15.085H8.0453C9.53108 15.0832 10.7358 13.8815 10.7423 12.3962V12.3863C10.7414 10.9009 9.5397 9.69531 8.05349 9.68927ZM8.0453 13.1544H8.04271C7.61901 13.1539 7.2759 12.8095 7.27633 12.3858C7.2772 11.9617 7.62159 11.6186 8.0453 11.6199H8.04832C8.47202 11.6203 8.8147 11.9647 8.81427 12.3884C8.81297 12.8125 8.46901 13.1556 8.0453 13.1544Z" fill="#1AE5BE"/>
</svg>
