<svg width="64" height="64" viewBox="0 0 64 64" fill="none" xmlns="http://www.w3.org/2000/svg">
<path d="M27.5645 58.0645V57.7535H24.8384V58.0645C24.8384 59.1123 25.6473 60.0645 26.6951 60.0645H29.4212C28.3739 60.0645 27.5645 59.1123 27.5645 58.0645Z" fill="#D4E1F4"/>
<path d="M27.5645 53.9304H30.0879C30.1026 53.9304 30.1168 53.9289 30.1316 53.9278C29.6966 53.906 29.3557 53.5472 29.3557 53.1123C29.3557 52.6773 29.6966 52.3186 30.1316 52.2967C30.1168 52.2957 30.1026 52.2942 30.0879 52.2942H27.5645V49.9893H24.8384V52.2942H27.1016C27.5533 52.2942 27.9197 52.6606 27.9197 53.1123C27.9197 53.564 27.5533 53.9304 27.1016 53.9304H24.8384V56.2469H27.5645V53.9304Z" fill="#D4E1F4"/>
<path d="M23.2601 39.6098C19.8663 36.4888 17.8968 32.1159 17.8094 27.5061C17.7215 22.8963 19.5228 18.4512 22.7952 15.2038C25.6092 12.3994 29.3302 10.689 33.2906 10.3791C32.8907 10.3471 32.4888 10.3288 32.0838 10.3247C32.031 10.3247 31.9786 10.3247 31.9258 10.3242C22.6158 10.3247 15.0711 17.876 15.0792 27.1855C15.0848 31.9065 17.062 36.4106 20.5335 39.6098C23.0716 41.9395 24.5929 45.1733 24.7693 48.6138H27.4954C27.3196 45.1733 25.7982 41.9395 23.2601 39.6098Z" fill="#D4E1F4"/>
<path d="M32.6134 6.76728C33.0443 6.76728 33.3939 6.41768 33.3939 5.98679V0.780488C33.3939 0.349593 33.0443 0 32.6134 0C32.182 0 31.8329 0.349593 31.8329 0.780488V5.98679C31.8329 6.41768 32.182 6.76728 32.6134 6.76728Z" fill="#A9B0B9"/>
<path d="M51.5645 26.4065H56.7714C57.2023 26.4065 57.5518 26.0569 57.5518 25.626C57.5518 25.1951 57.2023 24.8455 56.7714 24.8455H51.5645C51.1337 24.8455 50.7841 25.1951 50.7841 25.626C50.7841 26.0569 51.1337 26.4065 51.5645 26.4065Z" fill="#A9B0B9"/>
<path d="M12.3608 26.4065C12.7917 26.4065 13.1413 26.0569 13.1413 25.626C13.1413 25.1951 12.7917 24.8455 12.3608 24.8455H7.15451C6.72362 24.8455 6.37402 25.1951 6.37402 25.626C6.37402 26.0569 6.72362 26.4065 7.15451 26.4065H12.3608Z" fill="#A9B0B9"/>
<path d="M50.8191 6.7322C50.5143 6.42732 50.0204 6.42732 49.7155 6.7322L45.653 10.7947C45.3481 11.0996 45.3481 11.594 45.653 11.8989C45.9579 12.2037 46.4518 12.2037 46.7566 11.8989L50.8191 7.83586C51.124 7.53149 51.124 7.03708 50.8191 6.7322Z" fill="#A9B0B9"/>
<path d="M18.2729 11.8989C18.5778 11.594 18.5778 11.0996 18.2729 10.7947L14.2099 6.73223C13.9045 6.43193 13.4136 6.43396 13.1108 6.73681C12.808 7.03965 12.8059 7.53051 13.1062 7.83589L17.1687 11.8989C17.4736 12.2038 17.968 12.2038 18.2729 11.8989Z" fill="#A9B0B9"/>
<path d="M31.9629 64C32.3938 64 32.7434 63.6504 32.7434 63.2195V61.6585H37.1829C39.1133 61.6519 40.6758 60.0864 40.6783 58.156V49.3435C40.7017 46.0473 42.0889 42.9075 44.5101 40.6702C50.0122 35.532 51.8333 27.5625 49.1087 20.5442C46.3841 13.5259 39.6626 8.87298 32.1346 8.79371C32.0767 8.79269 32.0193 8.79269 31.9614 8.79269C24.3735 8.7932 17.5635 13.4502 14.8099 20.5208C12.0564 27.5915 13.9238 35.6276 19.5127 40.7597C21.9034 42.9782 23.2576 46.0955 23.2474 49.3567V58.156C23.25 60.0864 24.812 61.6519 26.7424 61.6585H31.1824V63.2195C31.1824 63.6504 31.5315 64 31.9629 64ZM20.5701 39.5823C15.4573 34.8887 13.75 27.5381 16.2698 21.0711C18.7901 14.6042 25.0213 10.3471 31.9619 10.3506C32.0137 10.3506 32.0676 10.3527 32.1199 10.3532C39.0112 10.4101 45.1707 14.6626 47.6666 21.0864C50.1626 27.5097 48.4893 34.8054 43.4446 39.5C40.9085 41.8455 39.3674 45.0737 39.1382 48.5203H24.7876C24.5859 45.1087 23.0752 41.907 20.5701 39.5823ZM24.8084 58.156V57.7561H34.1982C34.6296 57.7561 34.9786 57.4065 34.9786 56.9756C34.9786 56.5447 34.6296 56.1951 34.1982 56.1951H24.8084V53.8537H27.1473C27.5787 53.8537 27.9278 53.5041 27.9278 53.0732C27.9278 52.6423 27.5787 52.2927 27.1473 52.2927H24.8084V50.0813H39.1174V52.2927H29.9542C29.5234 52.2927 29.1738 52.6423 29.1738 53.0732C29.1738 53.5041 29.5234 53.8537 29.9542 53.8537H39.1174V56.1951H37.0051C36.5742 56.1951 36.2246 56.5447 36.2246 56.9756C36.2246 57.4065 36.5742 57.7561 37.0051 57.7561H39.1174V58.156C39.1153 59.2251 38.2515 60.092 37.1829 60.0976H26.7424C25.6738 60.092 24.8099 59.2251 24.8084 58.156Z" fill="#A9B0B9"/>
<path d="M38.6925 15.2688C38.6925 15.247 38.6946 15.2251 38.6946 15.2038C38.6946 13.4167 37.2459 11.968 35.4588 11.968C33.6717 11.968 32.223 13.4167 32.223 15.2038V35.3013C32.2291 36.717 33.0381 38.0071 34.3099 38.6296C35.5818 39.2515 37.0965 39.0991 38.2185 38.2353C38.723 38.4873 39.2799 38.6184 39.8445 38.6184C41.8887 38.6153 43.5437 36.9553 43.5401 34.9106V34.0391C44.9786 33.4263 46.0157 32.1357 46.3048 30.5991C46.594 29.0625 46.096 27.4827 44.9786 26.3897C45.0945 26.2617 45.2017 26.1255 45.2982 25.9827C46.3882 24.3404 45.9425 22.1255 44.3023 21.0325C44.2195 20.9776 44.1351 20.9268 44.0487 20.8791C44.378 19.3598 43.9329 17.7764 42.8592 16.6519C41.786 15.5279 40.2251 15.0091 38.6925 15.2683V15.2688ZM42.597 19.8867C42.597 20.4345 42.4532 20.9726 42.1793 21.4477C42.1626 21.4771 42.1478 21.5076 42.1346 21.5391C42.0203 21.2154 41.7073 21.0051 41.3643 21.0203C41.0213 21.0356 40.7286 21.2734 40.6432 21.6062C40.5061 22.1453 40.5736 22.716 40.8328 23.2078C40.7982 23.2962 40.7454 23.376 40.6783 23.4431C40.3739 23.7449 40.3699 24.2358 40.6697 24.5427C40.9695 24.8491 41.4603 24.8567 41.7693 24.5595C41.8663 24.4644 41.9542 24.3613 42.0325 24.251C42.0797 24.2602 42.128 24.2652 42.1763 24.2658C42.5401 24.2663 42.8556 24.0152 42.9375 23.6606C43.0193 23.3064 42.8455 22.9426 42.5188 22.7835C42.2749 22.6631 42.125 22.4106 42.1356 22.1392C42.2403 22.3902 42.4679 22.5686 42.7367 22.6098C43.005 22.6509 43.2759 22.5488 43.4507 22.3404C43.9629 22.6839 44.2886 23.2439 44.3338 23.8587C44.379 24.4741 44.1392 25.0757 43.6829 25.4903C43.0675 25.2048 42.3973 25.0569 41.7185 25.0574C41.2876 25.0574 40.938 25.4065 40.938 25.8379C40.938 26.2688 41.2876 26.6184 41.7185 26.6184C43.443 26.6184 44.8404 28.0158 44.8404 29.7403C44.8404 31.4644 43.443 32.8623 41.7185 32.8623C41.2876 32.8623 40.938 33.2114 40.938 33.6428C40.9344 33.8476 41.0137 34.0457 41.157 34.1926C41.3008 34.3389 41.4969 34.4223 41.7022 34.4233C41.7947 34.4248 41.8866 34.4212 41.9786 34.4131V34.9111C41.9786 36.0894 41.0233 37.0447 39.8445 37.0447C38.6661 37.0447 37.7103 36.0894 37.7103 34.9111C37.7103 34.4812 37.3623 34.1331 36.9329 34.1331C36.5035 34.1331 36.1554 34.4812 36.1554 34.9111C36.1554 35.7424 36.4359 36.5493 36.9522 37.2012C36.6407 37.3623 36.2962 37.4461 35.9456 37.4477C34.7576 37.4472 33.7926 36.4888 33.784 35.3008V15.2033C33.784 14.2805 34.532 13.5325 35.4547 13.5325C36.3775 13.5325 37.1255 14.2805 37.1255 15.2033C37.126 15.4573 37.0675 15.7083 36.9552 15.9365C36.8653 15.9939 36.7794 16.0534 36.693 16.1174C36.346 16.374 36.2728 16.8628 36.5294 17.2099C36.786 17.5564 37.2749 17.6296 37.6219 17.373C38.5701 16.6743 39.8307 16.5686 40.8821 17.0996C41.9334 17.6306 42.5965 18.7083 42.597 19.8862V19.8867Z" fill="#1AE5BE"/>
<path d="M37.1589 27.809C37.2113 27.967 37.2275 28.1342 37.2057 28.2993C37.1498 28.7266 37.4506 29.1184 37.8779 29.1748C38.3058 29.2307 38.6976 28.9299 38.754 28.5026C38.8993 27.3918 38.3337 26.3084 37.3393 25.7932C37.2382 25.4482 37.3119 25.0757 37.5365 24.7947C37.8063 24.4589 37.7524 23.9675 37.4161 23.6977C37.0802 23.4279 36.5888 23.4817 36.319 23.8181C35.9318 24.2993 35.7255 24.9009 35.7362 25.5183C35.3078 25.5762 34.9003 25.7393 34.5502 25.9929C34.321 26.1545 34.196 26.4268 34.2235 26.7063C34.2509 26.9858 34.4257 27.2287 34.6823 27.3435C34.9384 27.4578 35.2367 27.4253 35.4628 27.2592C35.7484 27.0539 36.1152 26.9965 36.4501 27.1052C36.785 27.2139 37.0482 27.4751 37.1589 27.809Z" fill="#1AE5BE"/>
<path d="M38.9862 17.8745C38.1 17.6473 37.1646 17.9807 36.6224 18.7175C36.4227 18.7322 36.2265 18.658 36.0873 18.5147C35.7855 18.2068 35.2916 18.2012 34.9831 18.5025C34.6752 18.8038 34.6696 19.2983 34.971 19.6062C35.2077 19.8486 35.4959 20.034 35.815 20.1484C35.9364 20.1921 36.0614 20.2251 36.1884 20.2474C36.1955 20.3318 36.2072 20.4151 36.2235 20.498C36.2687 20.7226 36.348 20.9385 36.4583 21.1392C36.6661 21.5168 37.1407 21.6545 37.5182 21.4466C37.8958 21.2383 38.0335 20.7637 37.8256 20.3862C37.7194 20.1941 37.7118 19.9634 37.8038 19.7647C37.8958 19.5655 38.0772 19.4228 38.2921 19.3791C38.3932 19.3582 38.4979 19.3608 38.598 19.3867C38.8683 19.4573 39.1559 19.3775 39.3515 19.1778C39.5472 18.9786 39.6214 18.6895 39.5462 18.4207C39.4704 18.1514 39.257 17.9431 38.9862 17.8745Z" fill="#1AE5BE"/>
<path d="M38.2174 31.4929C37.9938 31.4568 37.7809 31.3709 37.5954 31.2409C37.2418 30.9934 36.755 31.0798 36.508 31.4329C36.2606 31.7861 36.3464 32.2729 36.7001 32.5203C37.2159 32.8806 37.8302 33.0737 38.4593 33.0737C38.5873 33.0732 38.7148 33.065 38.8414 33.0488C38.9277 33.5894 39.1569 34.0971 39.505 34.5193C39.7794 34.8521 40.2712 34.8994 40.6036 34.625C40.9364 34.3506 40.9836 33.8587 40.7093 33.5264C40.3998 33.1504 40.2906 32.6484 40.4161 32.1773C40.4196 32.1657 40.4232 32.154 40.4262 32.1423C40.4974 31.8994 40.6285 31.6784 40.8073 31.4995C41.1122 31.1951 41.1127 30.7007 40.8083 30.3958C40.5035 30.091 40.0096 30.0905 39.7042 30.3953C39.4181 30.6819 39.191 31.0224 39.037 31.3969C38.7778 31.5046 38.4943 31.5376 38.2174 31.4929Z" fill="#1AE5BE"/>
<path d="M17.5401 29.7407C17.537 31.6157 18.6579 33.3103 20.3856 34.0405V34.912C20.38 36.9552 22.0329 38.6157 24.0766 38.6193C24.6427 38.6198 25.2006 38.4887 25.7072 38.2362C26.8292 39.1 28.3439 39.2529 29.6158 38.6305C30.8876 38.008 31.6966 36.7179 31.7027 35.3017V15.2041C31.7027 13.4191 30.2555 11.9724 28.4709 11.9724C26.6859 11.9724 25.2392 13.4191 25.2392 15.2041C25.2392 15.226 25.2367 15.2478 25.2372 15.2692C24.9781 15.226 24.7154 15.2041 24.4527 15.2041C23.0355 15.2021 21.694 15.8429 20.8048 16.946C19.9156 18.0492 19.5741 19.4958 19.8764 20.88C19.7895 20.9282 19.7042 20.9785 19.6214 21.0339C17.9806 22.1264 17.5345 24.3408 18.6234 25.9836C18.7215 26.1269 18.8297 26.2631 18.9471 26.3906C18.0441 27.2712 17.5365 28.4796 17.5401 29.7407ZM19.9232 25.1198C19.3129 24.1991 19.5594 22.9587 20.475 22.3408C20.6493 22.5492 20.9201 22.6513 21.1889 22.6101C21.4577 22.569 21.6854 22.3906 21.7895 22.1396C21.8002 22.411 21.6503 22.6635 21.4069 22.7834C21.0797 22.943 20.9059 23.3068 20.9877 23.661C21.07 24.0156 21.3856 24.2661 21.7494 24.2656C21.7972 24.2656 21.8454 24.2606 21.8922 24.2514C21.9704 24.3617 22.0589 24.4648 22.1554 24.5593C22.4638 24.8612 22.9577 24.8556 23.2591 24.5476C23.5609 24.2392 23.5553 23.7453 23.2474 23.4435C23.1798 23.3769 23.1275 23.2971 23.0924 23.2087C23.3515 22.7163 23.4196 22.1457 23.2824 21.6066C23.1971 21.2738 22.9044 21.0365 22.5614 21.0207C22.2179 21.0055 21.9054 21.2163 21.7906 21.54C21.7779 21.5085 21.7626 21.4775 21.7458 21.4481C21.006 20.1676 21.2657 18.5436 22.3678 17.5578C23.4704 16.5725 25.1132 16.4953 26.3033 17.3739C26.6498 17.63 27.1386 17.5563 27.3947 17.2097C27.6508 16.8632 27.5771 16.3744 27.2306 16.1183C27.1442 16.0543 27.0558 15.9948 26.9664 15.9374C26.8526 15.7097 26.7931 15.4587 26.7921 15.2041C26.8033 14.2875 27.5497 13.5502 28.4669 13.5502C29.3835 13.5502 30.13 14.2875 30.1417 15.2041V35.3017C30.1366 36.0548 29.7397 36.7509 29.0944 37.1391C28.4491 37.5268 27.6478 37.5507 26.9806 37.2021C27.4953 36.5497 27.7743 35.7423 27.7723 34.9115C27.7667 34.4836 27.4181 34.1396 26.9903 34.1396C26.5624 34.1396 26.2138 34.4836 26.2082 34.9115C26.2082 36.0883 25.2545 37.0421 24.0777 37.0421C22.9008 37.0421 21.9471 36.0883 21.9471 34.9115V34.4135C22.039 34.4221 22.131 34.4257 22.2235 34.4237C22.4293 34.4232 22.6269 34.3408 22.7718 34.194C22.9171 34.0476 22.9974 33.8495 22.9958 33.6432C22.9938 33.2113 22.6432 32.8622 22.2113 32.8627C20.4872 32.8637 19.0883 31.4663 19.0878 29.7423C19.0868 28.0182 20.4842 26.6198 22.2082 26.6188C22.6391 26.6188 22.9887 26.2692 22.9882 25.8378C22.9882 25.4069 22.6386 25.0578 22.2072 25.0578C21.5289 25.0573 20.8587 25.2052 20.2433 25.4912C20.1219 25.381 20.0141 25.256 19.9232 25.1198Z" fill="#1AE5BE"/>
<path d="M28.1894 25.5183C28.193 25.3064 28.1711 25.095 28.1244 24.8887C28.0355 24.497 27.8586 24.1311 27.6071 23.8181C27.3373 23.4817 26.8459 23.4279 26.5095 23.6977C26.1737 23.9675 26.1193 24.4589 26.3891 24.7947C26.6137 25.0757 26.6874 25.4482 26.5868 25.7932C25.5919 26.3084 25.0268 27.3918 25.1727 28.5026C25.2285 28.9299 25.6208 29.2307 26.0482 29.1748C26.4755 29.1184 26.7768 28.7266 26.7204 28.2993C26.6986 28.1342 26.7148 27.967 26.7677 27.809C26.8784 27.4751 27.1417 27.2134 27.4765 27.1052C27.8114 26.9965 28.1782 27.0539 28.4638 27.2592C28.6899 27.4253 28.9882 27.4578 29.2443 27.3435C29.5009 27.2287 29.6762 26.9858 29.7031 26.7063C29.7306 26.4268 29.6056 26.1545 29.3764 25.9929C29.0263 25.7393 28.6188 25.5762 28.1904 25.5183H28.1894Z" fill="#1AE5BE"/>
<path d="M25.3277 19.3867C25.5568 19.3282 25.7997 19.3918 25.9715 19.5549C26.1427 19.718 26.2184 19.9573 26.1717 20.189C26.1579 20.2581 26.1341 20.3247 26.1 20.3862C25.8922 20.7637 26.0294 21.2383 26.4069 21.4466C26.7845 21.6545 27.2591 21.5168 27.4674 21.1392C27.5777 20.9385 27.6569 20.7226 27.7022 20.498C27.7184 20.4151 27.7301 20.3318 27.7372 20.2474C27.8643 20.2251 27.9893 20.1921 28.1107 20.1484C28.4293 20.034 28.7179 19.8486 28.9542 19.6062C29.2555 19.2983 29.2504 18.8038 28.942 18.5025C28.6341 18.2012 28.1397 18.2068 27.8383 18.5147C27.6986 18.658 27.5025 18.7322 27.3033 18.7175C26.7606 17.9807 25.8256 17.6473 24.9394 17.8745C24.6686 17.9431 24.4547 18.1514 24.3795 18.4207C24.3038 18.6895 24.378 18.9786 24.5741 19.1778C24.7697 19.3775 25.0568 19.4573 25.3277 19.3867Z" fill="#1AE5BE"/>
<path d="M23.1183 31.4995C23.2977 31.6784 23.4288 31.8994 23.4999 32.1423C23.503 32.154 23.506 32.1657 23.5096 32.1774C23.6351 32.6479 23.5258 33.1499 23.2169 33.5259C22.9425 33.8588 22.9897 34.3506 23.3221 34.625C23.6549 34.8989 24.1468 34.8516 24.4211 34.5193C24.7692 34.0966 24.9979 33.5889 25.0843 33.0483C25.3749 33.0864 25.6691 33.0813 25.9582 33.0341C26.414 32.9609 26.848 32.7856 27.226 32.5198C27.5792 32.2729 27.665 31.7861 27.4176 31.4329C27.1706 31.0798 26.6838 30.9939 26.3307 31.2414C25.9084 31.5361 25.3647 31.5945 24.8896 31.3964C24.7357 31.0219 24.5085 30.6814 24.222 30.3948C23.9171 30.0905 23.4227 30.0905 23.1183 30.3959C22.8134 30.7007 22.8139 31.1946 23.1188 31.4995H23.1183Z" fill="#1AE5BE"/>
</svg>
