<svg width="64" height="64" viewBox="0 0 64 64" fill="none" xmlns="http://www.w3.org/2000/svg">
<path d="M14.7781 14.1557L13.2609 11.5136L4.00562 36.3934L7.35262 34.1166L14.7781 14.1557Z" fill="#D4E1F4"/>
<path d="M17.6019 29.2849C17.4844 29.2307 17.3549 29.2078 17.2259 29.2185C17.0969 29.2292 16.9729 29.2731 16.8659 29.3459L16.2063 29.7945L26.4795 34.534L25.5787 32.965L17.6019 29.2849Z" fill="#D4E1F4"/>
<path d="M61.5176 10.5295H54.8518C54.6529 10.5295 54.4621 10.6085 54.3215 10.7492C54.1808 10.8898 54.1018 11.0806 54.1018 11.2795V14.0132H40.525V11.2795C40.525 11.0806 40.4459 10.8898 40.3053 10.7492C40.1646 10.6085 39.9739 10.5295 39.775 10.5295H33.1093C32.9104 10.5295 32.7196 10.6085 32.579 10.7492C32.4383 10.8898 32.3593 11.0806 32.3593 11.2795V14.0132H15.9858V15.5132H32.3593V18.2471C32.3593 18.446 32.4383 18.6368 32.579 18.7774C32.7196 18.9181 32.9104 18.9971 33.1093 18.9971H39.775C39.9739 18.9971 40.1646 18.9181 40.3053 18.7774C40.4459 18.6368 40.525 18.446 40.525 18.2471V15.5132H54.1018V18.2471C54.1018 18.446 54.1808 18.6368 54.3215 18.7774C54.4621 18.9181 54.6529 18.9971 54.8518 18.9971H57.4347V28.529H54.8518C54.6529 28.529 54.4621 28.608 54.3215 28.7486C54.1808 28.8893 54.1018 29.0801 54.1018 29.279V36.2466C54.1018 36.4455 54.1808 36.6363 54.3215 36.7769C54.4621 36.9176 54.6529 36.9966 54.8518 36.9966H57.4347V46.5286H54.8518C54.6529 46.5286 54.4621 46.6076 54.3215 46.7483C54.1808 46.8889 54.1018 47.0797 54.1018 47.2786V50.0125H40.525V47.2787C40.525 47.0798 40.4459 46.8891 40.3053 46.7484C40.1646 46.6077 39.9739 46.5287 39.775 46.5287H33.1093C32.9104 46.5287 32.7196 46.6077 32.579 46.7484C32.4383 46.8891 32.3593 47.0798 32.3593 47.2787V50.0125H18.7824V47.2787C18.7824 47.0798 18.7034 46.8891 18.5628 46.7484C18.4221 46.6077 18.2314 46.5287 18.0324 46.5287H15.4499V30.0701H13.9499V46.5286H11.3667C11.1678 46.5286 10.977 46.6076 10.8364 46.7483C10.6957 46.8889 10.6167 47.0797 10.6167 47.2786V54.2461C10.6167 54.445 10.6957 54.6358 10.8364 54.7764C10.977 54.9171 11.1678 54.9961 11.3667 54.9961H18.0324C18.2314 54.9961 18.4221 54.9171 18.5628 54.7764C18.7034 54.6358 18.7824 54.445 18.7824 54.2461V51.5125H32.3593V54.2462C32.3593 54.4451 32.4383 54.6359 32.579 54.7766C32.7196 54.9172 32.9104 54.9962 33.1093 54.9962H39.775C39.9739 54.9962 40.1646 54.9172 40.3053 54.7766C40.4459 54.6359 40.525 54.4451 40.525 54.2462V51.5125H54.1018V54.2462C54.1018 54.4451 54.1808 54.6359 54.3215 54.7766C54.4621 54.9172 54.6529 54.9962 54.8518 54.9962H61.5176C61.7165 54.9962 61.9073 54.9172 62.0479 54.7766C62.1886 54.6359 62.2676 54.4451 62.2676 54.2462V47.2787C62.2676 47.0798 62.1886 46.8891 62.0479 46.7484C61.9073 46.6077 61.7165 46.5287 61.5176 46.5287H58.9347V36.9966H61.5176C61.7165 36.9966 61.9073 36.9176 62.0479 36.7769C62.1886 36.6363 62.2676 36.4455 62.2676 36.2466V29.279C62.2676 29.0801 62.1886 28.8893 62.0479 28.7486C61.9073 28.608 61.7165 28.529 61.5176 28.529H58.9347V18.9971H61.5176C61.7165 18.9971 61.9073 18.9181 62.0479 18.7774C62.1886 18.6368 62.2676 18.446 62.2676 18.2471V11.2795C62.2676 11.0806 62.1886 10.8898 62.0479 10.7492C61.9073 10.6085 61.7165 10.5295 61.5176 10.5295ZM39.025 17.4971H33.8593V12.0295H39.025V17.4971ZM17.2824 53.4961H12.1167V48.0286H17.2824V53.4961ZM39.025 53.4961H33.8593V48.0286H39.025V53.4961ZM60.7676 53.4961H55.6018V48.0286H60.7676V53.4961ZM60.7676 35.4961H55.6018V30.029H60.7676V35.4961ZM60.7676 17.4961H55.6018V12.0295H60.7676V17.4961Z" fill="#A9B0B9"/>
<path d="M13.7656 9.38052C13.6947 9.25696 13.59 9.15616 13.4639 9.08991C13.3378 9.02367 13.1954 8.99472 13.0534 9.00646C12.9114 9.01819 12.7757 9.07013 12.6622 9.15619C12.5486 9.24224 12.4619 9.35886 12.4123 9.49239L1.7795 38.075C1.72401 38.2241 1.71739 38.3871 1.7606 38.5402C1.8038 38.6933 1.89459 38.8288 2.01984 38.9269C2.14509 39.0251 2.29831 39.0808 2.45734 39.0861C2.61637 39.0915 2.77297 39.0461 2.9045 38.9565L14.8586 30.825L27.9875 36.8815C28.132 36.9481 28.2939 36.9671 28.4498 36.9357C28.6057 36.9042 28.7476 36.824 28.855 36.7066C28.9624 36.5893 29.0296 36.4408 29.0471 36.2827C29.0645 36.1245 29.0312 35.965 28.952 35.827L13.7656 9.38052ZM15.1018 29.2849C14.9842 29.2307 14.8547 29.2078 14.7257 29.2185C14.5968 29.2292 14.4727 29.2731 14.3658 29.3459L4.0055 36.3934L13.2608 11.5136L26.4794 34.534L15.1018 29.2849Z" fill="#1AE5BE"/>
</svg>
