<svg width="662" height="662" viewBox="0 0 662 662" fill="none" xmlns="http://www.w3.org/2000/svg">
<path d="M518.359 291.823L534.247 289.956L536.657 272.36L521.735 266.256C521.431 260.502 520.426 254.807 518.743 249.296L530.911 238.505L522.795 222.71L506.814 226.404C500.79 218.679 493.218 212.298 484.584 207.669L485.63 191.08L468.696 185.651L459.852 199.844C454.285 199.169 448.657 199.169 443.09 199.844L434.365 185.492L417.391 190.788L418.291 207.577C413.347 210.181 408.729 213.364 404.535 217.056L389.137 210.304L378.254 224.338L388.568 237.512C386.744 241.018 385.22 244.672 384.013 248.435C383.497 250.024 383.06 251.639 382.689 253.241L366.338 256.525L365.464 274.266L381.233 279.112C381.968 284.752 383.382 290.282 385.443 295.583L374.149 307.499L383.616 322.54L399.054 317.575C402.934 321.841 407.322 325.617 412.121 328.815L409.778 344.703L426.156 351.588L435.834 338.878C441.522 340.165 447.349 340.734 453.179 340.572L460.342 354.792L477.699 351.045L478.348 335.157C483.751 332.912 488.856 330.008 493.547 326.512L507.542 334.032L519.604 321.004L511.037 307.618C514.118 302.674 516.577 297.369 518.359 291.823ZM493.441 283.495C490.765 291.845 485.673 299.214 478.809 304.671C471.945 310.127 463.617 313.426 454.879 314.15C446.14 314.875 437.383 312.992 429.714 308.74C422.046 304.487 415.81 298.057 411.796 290.261C407.781 282.466 406.168 273.655 407.161 264.942C408.153 256.23 411.707 248.008 417.372 241.315C423.037 234.622 430.559 229.759 438.987 227.34C447.416 224.922 456.372 225.057 464.724 227.728C470.272 229.502 475.417 232.353 479.863 236.116C484.309 239.88 487.971 244.482 490.637 249.661C493.304 254.84 494.925 260.494 495.406 266.299C495.887 272.104 495.219 277.948 493.441 283.495Z" fill="#3BDFAB"/>
<path d="M181.388 293.2L187.359 292.498L188.26 285.878L182.659 283.587C182.541 281.423 182.163 279.28 181.534 277.206L186.101 273.154L183.056 267.223L177.045 268.547C174.775 265.647 171.925 263.252 168.678 261.516L169.062 255.28L162.72 253.241L159.383 258.537C157.294 258.286 155.183 258.286 153.094 258.537L149.811 253.149L143.442 255.121L143.773 261.437C141.919 262.419 140.186 263.614 138.61 264.998L132.824 262.456L128.733 267.752L132.612 272.704C131.923 274.021 131.347 275.394 130.891 276.809C130.705 277.404 130.546 278.013 130.388 278.622L124.244 279.854L123.926 286.474L129.752 288.38C130.026 290.503 130.56 292.584 131.341 294.577L127.104 299.052L130.652 304.692L136.465 302.838C137.923 304.442 139.573 305.86 141.377 307.062L140.49 313.046L146.646 315.694L150.274 310.915C152.41 311.399 154.599 311.613 156.788 311.55L159.436 316.846L165.95 315.43L166.202 309.472C168.231 308.631 170.148 307.542 171.908 306.228L177.204 309.048L181.745 304.149L178.515 299.131C179.711 297.278 180.676 295.286 181.388 293.2ZM172.027 290.075C171.021 293.215 169.106 295.986 166.525 298.037C163.943 300.089 160.811 301.328 157.525 301.6C154.239 301.871 150.947 301.162 148.064 299.562C145.181 297.961 142.837 295.542 141.33 292.61C139.822 289.678 139.217 286.364 139.593 283.088C139.969 279.813 141.307 276.722 143.44 274.207C145.572 271.692 148.402 269.866 151.573 268.96C154.743 268.054 158.111 268.108 161.25 269.116C165.446 270.481 168.93 273.453 170.94 277.381C172.95 281.309 173.322 285.873 171.974 290.075H172.027Z" fill="#3BDFAB"/>
<path opacity="0.5" d="M518.359 291.823L534.247 289.956L536.657 272.36L521.735 266.256C521.431 260.502 520.426 254.807 518.743 249.296L530.911 238.505L522.795 222.71L506.814 226.404C500.79 218.679 493.218 212.298 484.584 207.669L485.63 191.08L468.696 185.651L459.852 199.844C454.285 199.169 448.657 199.169 443.09 199.844L434.365 185.492L417.391 190.788L418.291 207.577C413.347 210.181 408.729 213.364 404.535 217.056L389.137 210.304L378.254 224.338L388.568 237.512C386.744 241.018 385.22 244.672 384.013 248.435C383.497 250.024 383.06 251.639 382.689 253.241L366.338 256.525L365.464 274.266L381.233 279.112C381.968 284.752 383.382 290.282 385.443 295.583L374.149 307.499L383.616 322.54L399.054 317.575C402.934 321.841 407.322 325.617 412.121 328.815L409.778 344.703L426.156 351.588L435.834 338.878C441.522 340.165 447.349 340.734 453.179 340.572L460.342 354.792L477.699 351.045L478.348 335.157C483.751 332.912 488.856 330.008 493.547 326.512L507.542 334.032L519.604 321.004L511.037 307.618C514.118 302.674 516.577 297.369 518.359 291.823ZM493.441 283.495C490.765 291.845 485.673 299.214 478.809 304.671C471.945 310.127 463.617 313.426 454.879 314.15C446.14 314.875 437.383 312.992 429.714 308.74C422.046 304.487 415.81 298.057 411.796 290.261C407.781 282.466 406.168 273.655 407.161 264.942C408.153 256.23 411.707 248.008 417.372 241.315C423.037 234.622 430.559 229.759 438.987 227.34C447.416 224.922 456.372 225.057 464.724 227.728C470.272 229.502 475.417 232.353 479.863 236.116C484.309 239.88 487.971 244.482 490.637 249.661C493.304 254.84 494.925 260.494 495.406 266.299C495.887 272.104 495.219 277.948 493.441 283.495Z" fill="white"/>
<path opacity="0.5" d="M181.388 293.2L187.359 292.498L188.26 285.878L182.659 283.587C182.541 281.423 182.163 279.28 181.534 277.206L186.101 273.154L183.056 267.223L177.045 268.547C174.775 265.647 171.925 263.252 168.678 261.516L169.062 255.28L162.72 253.241L159.383 258.537C157.294 258.286 155.183 258.286 153.094 258.537L149.811 253.149L143.442 255.121L143.773 261.437C141.919 262.419 140.186 263.614 138.61 264.998L132.824 262.456L128.733 267.752L132.612 272.704C131.923 274.021 131.347 275.394 130.891 276.809C130.705 277.404 130.546 278.013 130.388 278.622L124.244 279.854L123.926 286.474L129.752 288.38C130.026 290.503 130.56 292.584 131.341 294.577L127.104 299.052L130.652 304.692L136.465 302.838C137.923 304.442 139.573 305.86 141.377 307.062L140.49 313.046L146.646 315.694L150.274 310.915C152.41 311.399 154.599 311.613 156.788 311.55L159.436 316.846L165.95 315.43L166.202 309.472C168.231 308.631 170.148 307.542 171.908 306.228L177.204 309.048L181.745 304.149L178.515 299.131C179.711 297.278 180.676 295.286 181.388 293.2ZM172.027 290.075C171.021 293.215 169.106 295.986 166.525 298.037C163.943 300.089 160.811 301.328 157.525 301.6C154.239 301.871 150.947 301.162 148.064 299.562C145.181 297.961 142.837 295.542 141.33 292.61C139.822 289.678 139.217 286.364 139.593 283.088C139.969 279.813 141.307 276.722 143.44 274.207C145.572 271.692 148.402 269.866 151.573 268.96C154.743 268.054 158.111 268.108 161.25 269.116C165.446 270.481 168.93 273.453 170.94 277.381C172.95 281.309 173.322 285.873 171.974 290.075H172.027Z" fill="white"/>
<path d="M394.671 168.836L399.795 167.618L399.914 161.78L394.804 160.35C394.504 158.478 393.975 156.65 393.228 154.908L396.79 150.936L393.546 146.09L388.462 147.891C386.21 145.593 383.505 143.789 380.518 142.595L380.226 137.14L374.493 136.001L372.044 141.019C370.199 141.007 368.36 141.212 366.563 141.628L363.173 137.286L357.877 139.642L358.817 145.097C357.299 146.135 355.908 147.348 354.673 148.712L349.377 147.096L346.358 152.088L350.224 156.06C349.762 157.272 349.403 158.521 349.152 159.794C349.046 160.336 348.967 160.879 348.9 161.422L343.684 163.117L344.068 168.942L349.364 169.922C349.822 171.74 350.498 173.496 351.376 175.152L348.133 179.468L351.8 184.023L356.646 181.812C358.078 183.057 359.656 184.124 361.346 184.989L361.187 190.285L366.801 191.914L369.449 187.386C371.357 187.596 373.283 187.56 375.182 187.28L378.068 191.662L383.589 189.769L383.205 184.566C384.884 183.627 386.441 182.484 387.839 181.163L392.698 183.083L396.141 178.369L392.831 174.318C393.667 172.573 394.285 170.732 394.671 168.836ZM386.211 167.062C385.651 169.885 384.267 172.478 382.235 174.515C380.202 176.552 377.612 177.942 374.791 178.508C371.969 179.074 369.043 178.792 366.382 177.697C363.721 176.601 361.444 174.743 359.839 172.354C358.233 169.966 357.371 167.156 357.361 164.279C357.351 161.401 358.194 158.585 359.783 156.186C361.372 153.787 363.636 151.912 366.29 150.799C368.943 149.686 371.867 149.383 374.692 149.93C376.575 150.294 378.368 151.027 379.967 152.086C381.567 153.146 382.941 154.51 384.011 156.102C385.082 157.694 385.827 159.482 386.204 161.363C386.582 163.244 386.584 165.181 386.211 167.062Z" fill="#263238"/>
<path d="M191.636 245.906C191.636 245.906 179.574 273.446 181.388 275.114C183.202 276.782 197.144 303.871 199.421 303.964C201.698 304.057 200.904 296.92 200.904 296.92L214.395 284.17L191.636 245.906Z" fill="#263238"/>
<path d="M245.112 229.224C245.112 229.224 271.314 243.973 270.877 246.436C270.44 248.899 275.577 278.887 273.803 280.331C272.029 281.774 268.388 275.591 268.388 275.591L249.945 273.525L245.112 229.224Z" fill="#263238"/>
<path d="M524.304 430.631C510.217 390.461 466.18 451.193 443.778 465.346C421.376 479.5 425.242 403.118 389.958 428.089C354.673 453.059 352.886 523.218 319.6 521.192C305.354 520.319 297.45 474.72 287.639 447.75L240.505 258.418L215.256 269.5L277.14 456.184C280.172 472.165 297.847 514.784 296.933 523.774C295.715 535.69 267.037 534.274 238.677 525.098C191.013 509.78 169.326 427.612 131.433 417.351C113.387 412.466 103.06 423.614 95.6854 436.708C97.3448 440.398 99.1455 443.968 101.087 447.419C137.564 511.819 197.528 543.184 286.527 546.534C375.526 549.884 438.151 555.921 514.122 487.02C516.514 484.849 518.818 482.62 521.034 480.334C525.999 464.817 529.666 446.016 524.304 430.631Z" fill="#3BDFAB"/>
<path opacity="0.5" d="M524.304 430.631C510.217 390.461 466.18 451.193 443.778 465.346C421.376 479.5 425.242 403.118 389.958 428.089C354.673 453.059 352.886 523.218 319.6 521.192C305.354 520.319 297.45 474.72 287.639 447.75L240.505 258.418L215.256 269.5L277.14 456.184C280.172 472.165 297.847 514.784 296.933 523.774C295.715 535.69 267.037 534.274 238.677 525.098C191.013 509.78 169.326 427.612 131.433 417.351C113.387 412.466 103.06 423.614 95.6854 436.708C97.3448 440.398 99.1455 443.968 101.087 447.419C137.564 511.819 197.528 543.184 286.527 546.534C375.526 549.884 438.151 555.921 514.122 487.02C516.514 484.849 518.818 482.62 521.034 480.334C525.999 464.817 529.666 446.016 524.304 430.631Z" fill="white"/>
<path d="M251.255 270.189C251.255 270.189 243.311 186.777 236.903 163.646C230.495 140.516 195.647 107.906 183.109 113.44C170.571 118.975 165.235 162.852 168.373 185.638C171.511 208.424 206.888 284.289 217.997 291.558C229.105 298.827 250.329 300.985 251.255 270.189Z" fill="white"/>
<path d="M251.255 270.189C251.255 270.189 251.255 269.646 251.11 268.626C242.755 296.06 224.246 291.558 212.131 284.898C213.71 287.411 215.692 289.648 217.997 291.518C229.052 298.813 250.329 300.985 251.255 270.189Z" fill="#263238"/>
<path d="M183.109 113.44C171.405 118.617 165.99 157.132 167.857 180.739C172.212 184.384 177.274 187.089 182.725 188.683C204.042 194.906 226.669 183.056 236.321 161.78C228.589 138.768 195.316 108.052 183.109 113.44Z" fill="#263238"/>
<path d="M209.589 132.625C218.559 141.733 226.143 152.109 232.097 163.421" stroke="white" stroke-linecap="round" stroke-linejoin="round"/>
<path d="M197.925 121.808C197.925 121.808 200.202 123.609 203.697 126.866" stroke="white" stroke-linecap="round" stroke-linejoin="round"/>
<path d="M247.058 265.436L247.575 269.341" stroke="#263238" stroke-linecap="round" stroke-linejoin="round"/>
<path d="M245.483 253.506L246.648 262.337" stroke="#263238" stroke-linecap="round" stroke-linejoin="round"/>
<path d="M236.413 185.002L244.45 245.708" stroke="#263238" stroke-linecap="round" stroke-linejoin="round"/>
<path d="M234.679 171.961L235.407 177.416" stroke="#263238" stroke-linecap="round" stroke-linejoin="round"/>
<path d="M179.654 209.602L194.588 243.338" stroke="#263238" stroke-linecap="round" stroke-linejoin="round"/>
<path d="M196.137 247.455L199.196 254.314" stroke="#263238" stroke-linecap="round" stroke-linejoin="round"/>
<path d="M232.418 220.406C235.491 209.869 229.913 198.974 219.959 196.071C210.005 193.167 199.444 199.356 196.371 209.892C193.298 220.429 198.876 231.324 208.83 234.227C218.784 237.131 229.345 230.942 232.418 220.406Z" fill="#263238"/>
<path d="M226.51 220.419C225.725 222.63 224.309 224.563 222.438 225.978C220.567 227.394 218.322 228.23 215.981 228.384C213.64 228.538 211.305 228.003 209.265 226.844C207.224 225.686 205.568 223.955 204.5 221.866C203.433 219.777 203 217.421 203.257 215.089C203.513 212.757 204.447 210.551 205.943 208.743C207.439 206.936 209.432 205.607 211.675 204.919C213.919 204.232 216.314 204.217 218.566 204.876C221.677 205.889 224.26 208.093 225.749 211.007C227.238 213.92 227.511 217.305 226.51 220.419Z" fill="#3BDFAB"/>
<path d="M227.556 266.548L241.881 303.408C241.947 303.616 242.056 303.808 242.2 303.972C242.344 304.135 242.521 304.267 242.72 304.358C242.918 304.449 243.133 304.498 243.351 304.5C243.57 304.503 243.786 304.46 243.987 304.374C244.405 304.183 244.735 303.84 244.912 303.416C245.088 302.991 245.098 302.515 244.94 302.084L232.706 264.297C232.577 263.943 232.374 263.621 232.111 263.352C231.848 263.083 231.53 262.873 231.179 262.737C230.828 262.6 230.452 262.54 230.076 262.56C229.7 262.58 229.333 262.68 228.999 262.854C228.364 263.203 227.873 263.765 227.609 264.439C227.345 265.114 227.326 265.86 227.556 266.548Z" fill="#263238"/>
<path d="M459.203 170.055L461.666 174.636" stroke="#263238" stroke-linecap="round" stroke-linejoin="round"/>
<path d="M468.047 170.253L468.497 172.782" stroke="#263238" stroke-linecap="round" stroke-linejoin="round"/>
<path d="M476.799 168.466L476.362 172.544" stroke="#263238" stroke-linecap="round" stroke-linejoin="round"/>
<path d="M501.253 188.524L496.222 189.809" stroke="#263238" stroke-linecap="round" stroke-linejoin="round"/>
<path d="M495.123 182.143L492.965 183.533" stroke="#263238" stroke-linecap="round" stroke-linejoin="round"/>
<path d="M490.529 174.49L487.815 177.575" stroke="#263238" stroke-linecap="round" stroke-linejoin="round"/>
<path d="M482.029 177.138H481.909H481.804C469.782 172.12 456.78 177.284 451.855 188.524C450.373 191.872 449.736 195.532 450.001 199.183C450.001 201.036 449.895 205.564 449.299 211.205C448.93 214.871 448.225 218.497 447.194 222.035L447.088 222.233C446.991 222.438 446.936 222.66 446.926 222.886C446.916 223.113 446.952 223.339 447.031 223.551C447.11 223.763 447.231 223.958 447.386 224.123C447.541 224.287 447.728 224.419 447.936 224.511H448.042L457.31 228.562H457.415L459.905 229.648H460.024L469.292 233.699H469.398C469.604 233.79 469.827 233.838 470.052 233.841C470.278 233.844 470.501 233.802 470.71 233.717C470.919 233.632 471.108 233.505 471.267 233.345C471.426 233.185 471.551 232.995 471.635 232.786C471.635 232.706 471.701 232.64 471.728 232.574C473.631 229.418 475.82 226.444 478.268 223.69C482.029 219.44 485.286 216.302 486.636 215.044C489.633 212.656 491.971 209.543 493.429 205.999C494.886 202.455 495.414 198.597 494.963 194.792C494.512 190.986 493.098 187.359 490.853 184.253C488.607 181.148 485.607 178.667 482.135 177.045L482.029 177.138Z" fill="#3BDFAB"/>
<path d="M469.776 233.854L447.568 224.1L445.305 229.252L467.514 239.006L469.776 233.854Z" fill="#263238"/>
<path d="M464.896 244.953L466.975 240.24L444.758 230.482L442.746 235.063L464.896 244.953Z" fill="#263238"/>
<path d="M467.511 239.009L445.303 229.255L444.765 230.48L466.973 240.233L467.511 239.009Z" fill="white"/>
<path d="M442.746 235.063L445.592 241.657L458.051 247.085L464.896 244.953L442.746 235.063Z" fill="#263238"/>
<path d="M472.443 224.153C474.813 220.496 477.739 217.23 481.115 214.475C489.602 207.762 495.52 201.235 490.648 189.16" stroke="#263238" stroke-linecap="round" stroke-linejoin="round"/>
<path d="M468.484 231.356C468.484 231.356 468.987 230.125 470.007 228.231" stroke="#263238" stroke-linecap="round" stroke-linejoin="round"/>
<path d="M455.456 226.973C455.456 226.973 458.011 210.675 456.25 206.134C454.489 201.592 453.099 215.057 459.653 213.191C466.207 211.324 462.817 203.366 461.877 206.968C460.937 210.569 463.373 215.256 467.293 213.005C471.212 210.754 471.384 207.352 469.08 208.848C466.776 210.344 469.543 216.924 473.317 215.362C477.09 213.8 476.269 211.641 473.476 212.86C470.682 214.078 464.499 226.179 462.645 230.667" stroke="#263238" stroke-linecap="round" stroke-linejoin="round"/>
<path d="M553.948 336.547C552.66 339.546 550.772 342.249 548.401 344.491C544.23 348.609 542.496 357.917 553.829 363.027C565.163 368.138 560.635 387.601 547.05 385.244C533.466 382.887 525.76 361.412 512.971 366.788C500.181 372.163 503.703 392.116 494.21 388.197C484.716 384.278 480.745 374.957 473.264 378.571C465.783 382.186 462.434 399.755 490.833 409.976C519.233 420.198 512.851 377.644 521.788 379.14C530.725 380.637 531.401 393.532 545.62 397.345C559.84 401.159 573.994 380.464 572.008 368.813C570.022 357.162 554.425 357.162 551.857 351.363C549.288 345.564 558.172 338.891 558.172 338.891C558.172 338.891 557.682 334.747 553.948 336.547Z" fill="#3BDFAB"/>
<path d="M555.537 326.631L552.108 335.263C551.812 335.998 551.769 336.81 551.984 337.572C552.2 338.334 552.663 339.003 553.3 339.474C554.039 340.018 554.959 340.259 555.87 340.145C556.782 340.032 557.615 339.574 558.198 338.865L565.044 330.55L555.537 326.631Z" fill="#263238" stroke="#263238" stroke-linecap="round" stroke-linejoin="round"/>
<path d="M574.417 274.624L596.356 290.075C596.356 290.075 582.931 309.657 578.032 319.084C573.133 328.511 566.341 335.091 560.714 334.125C555.087 333.158 551.724 325.307 553.392 318.568C555.061 311.828 567.268 296.669 569.77 289.44C572.273 282.211 574.417 274.624 574.417 274.624Z" fill="#3BDFAB"/>
<path d="M574.418 274.624C574.418 274.624 572.286 282.118 569.77 289.36C568.596 292.263 567.132 295.039 565.401 297.648C570.64 302.757 576.39 307.313 582.56 311.246C588.452 301.634 596.383 290.062 596.383 290.062L574.418 274.624Z" fill="#263238"/>
<path d="M570.644 348.702C570.272 349.292 569.734 349.758 569.097 350.042C568.46 350.326 567.753 350.414 567.065 350.295C566.378 350.177 565.741 349.857 565.236 349.376C564.731 348.895 564.38 348.275 564.227 347.595C564.075 346.914 564.128 346.204 564.38 345.553C564.631 344.903 565.071 344.342 565.642 343.941C566.213 343.541 566.89 343.319 567.587 343.304C568.284 343.289 568.97 343.481 569.558 343.856C569.949 344.101 570.288 344.422 570.555 344.799C570.821 345.176 571.01 345.602 571.111 346.052C571.212 346.503 571.223 346.969 571.143 347.424C571.063 347.879 570.893 348.313 570.644 348.702Z" fill="#3BDFAB"/>
<path d="M540.298 367.953C539.972 368.465 539.501 368.868 538.946 369.113C538.391 369.357 537.775 369.432 537.178 369.327C536.58 369.223 536.027 368.943 535.588 368.525C535.148 368.106 534.843 367.566 534.71 366.974C534.578 366.382 534.623 365.764 534.841 365.198C535.059 364.631 535.44 364.142 535.936 363.792C536.432 363.443 537.02 363.247 537.627 363.231C538.234 363.215 538.831 363.379 539.345 363.703C540.034 364.141 540.521 364.834 540.7 365.631C540.878 366.427 540.734 367.262 540.298 367.953Z" fill="#3BDFAB"/>
<path d="M537.703 418.04C537.595 418.214 537.454 418.365 537.288 418.484C537.122 418.603 536.934 418.689 536.735 418.736C536.536 418.782 536.329 418.789 536.127 418.756C535.925 418.723 535.732 418.651 535.558 418.543C535.384 418.435 535.233 418.294 535.114 418.128C534.995 417.962 534.909 417.774 534.862 417.575C534.816 417.376 534.809 417.169 534.842 416.967C534.875 416.765 534.947 416.572 535.055 416.398C535.273 416.047 535.621 415.797 536.023 415.702C536.426 415.608 536.849 415.677 537.2 415.895C537.551 416.113 537.801 416.461 537.896 416.863C537.99 417.265 537.921 417.689 537.703 418.04Z" fill="#3BDFAB"/>
<path d="M482.969 399.159C486.544 401.414 490.524 402.952 494.686 403.687C506.602 405.687 508.085 398.974 510.574 389.481" stroke="#263238" stroke-linecap="round" stroke-linejoin="round"/>
<path d="M475.223 392.751C476.045 393.693 476.93 394.577 477.871 395.399" stroke="#263238" stroke-linecap="round" stroke-linejoin="round"/>
<path d="M543.754 393.096C543.754 393.096 556.385 398.855 564.196 383.828" stroke="#263238" stroke-linecap="round" stroke-linejoin="round"/>
<path d="M557.854 329.861C557.268 329.51 556.76 329.042 556.361 328.486C555.963 327.93 555.682 327.299 555.537 326.631" stroke="#263238" stroke-linecap="round" stroke-linejoin="round"/>
<path d="M577.767 313.656C577.767 313.656 569.969 328.656 565.017 330.55C563.898 330.993 562.696 331.183 561.495 331.106" stroke="#263238" stroke-linecap="round" stroke-linejoin="round"/>
<path d="M394.089 285.719C394.089 285.719 388.289 274.134 390.99 267.567C393.691 261 404.125 250.567 409.526 254.817C414.928 259.067 412.995 268.719 417.629 271.433C422.263 274.147 437.33 281.085 438.496 294.219C439.661 307.353 429.612 317.389 432.312 322.023C435.013 326.657 455.099 325.505 463.215 338.639C471.331 351.774 468.617 370.309 462.831 377.658C457.045 385.006 421.879 396.194 421.879 404.694C421.879 413.194 432.696 422.462 416.477 430.949C400.258 439.436 375.923 435.199 373.606 415.061C371.289 394.923 395.611 376.056 394.075 362.538C392.54 349.02 378.624 338.97 374.758 326.22C370.892 313.47 391.758 309.617 394.843 305.036C397.928 300.455 394.089 285.719 394.089 285.719Z" fill="#263238" stroke="#263238" stroke-linecap="round" stroke-linejoin="round"/>
<path d="M459.825 362.471C458.859 365.49 457.495 367.331 456.952 367.516" stroke="white" stroke-linecap="round" stroke-linejoin="round"/>
<path d="M413.009 298.032C413.009 298.032 414.677 306.824 421.376 310.584C428.076 314.344 416.358 323.149 423.468 332.351C430.578 341.552 453.192 332.351 458.634 344.902C460.019 348.045 460.788 351.425 460.898 354.859" stroke="white" stroke-linecap="round" stroke-linejoin="round"/>
<path d="M430.432 307.499C431.671 308.278 433.007 308.892 434.404 309.326" stroke="white" stroke-linecap="round" stroke-linejoin="round"/>
<path d="M415.1 271.235C415.1 271.235 415.524 291.757 421.8 299.701C423.078 301.334 424.496 302.853 426.037 304.242" stroke="white" stroke-linecap="round" stroke-linejoin="round"/>
<path d="M303.54 275.922C303.54 275.922 305.712 267.09 305.712 264.522C305.712 261.953 305.063 261.305 304.388 262.748C303.752 264.481 303.217 266.249 302.786 268.044L303.54 275.922Z" fill="white" stroke="#263238" stroke-linecap="round" stroke-linejoin="round"/>
<path d="M226.099 510.376C226.099 510.376 218.831 522.371 212.661 528.912C206.491 535.452 204.717 542.35 211.204 544.164C217.692 545.978 227.556 543.436 232.64 538.352C237.724 533.267 242.093 525.641 247.204 522.728C252.315 519.816 255.558 519.458 255.558 511.474C255.558 503.491 251.931 501.664 251.931 501.664C251.931 501.664 237.367 510.018 226.099 510.376Z" fill="#263238" stroke="#263238" stroke-linecap="round" stroke-linejoin="round"/>
<path d="M243.907 522.371C237.009 528.183 231.184 539.08 219.93 540.536C213.31 541.384 209.338 539.742 207.18 538.233C206.743 541.039 207.908 543.251 211.152 544.164C217.692 545.991 227.503 543.436 232.587 538.352C237.671 533.268 242.04 525.641 247.151 522.729C251.6 520.186 254.658 519.591 255.36 514.123C251.36 516.61 247.534 519.366 243.907 522.371Z" fill="white" stroke="#263238" stroke-linecap="round" stroke-linejoin="round"/>
<path d="M336.561 397.015C336.561 397.015 298.774 386.846 280.953 383.576C263.132 380.306 246.436 378.121 240.624 385.032C234.811 391.944 236.268 445.698 233.726 459.176C231.184 472.655 228.271 498.42 227.543 502.405C226.814 506.39 223.571 510.044 225.729 511.501C227.887 512.957 240.981 514.043 245.708 511.501C250.435 508.959 254.062 507.529 254.062 503.133C254.062 498.738 254.791 459.905 258.034 447.909C261.278 435.914 263.847 415.577 263.847 415.577C263.847 415.577 287.467 421.019 298.363 424.289C309.26 427.559 324.843 439.184 339.791 439.555C354.739 439.925 352.872 417.391 349.96 410.85C347.047 404.31 342.002 398.113 336.561 397.015Z" fill="#3BDFAB"/>
<path opacity="0.39" d="M351.231 414.968C349.487 411.585 347.407 408.387 345.021 405.422C342.267 402.655 338.322 398.961 336.124 396.895L331.305 395.571L316.343 396.816C316.343 396.816 256.988 382.729 255.439 389.269C253.89 395.81 257.452 402.853 257.452 402.853C257.452 402.853 244.874 389.772 246.383 394.804C247.893 399.835 257.452 410.903 257.452 410.903C257.452 410.903 247.389 399.332 247.389 406.375C247.389 413.419 250.408 447.115 244.874 473.78C241.233 491.283 234.136 504.457 231.634 512.719C236.427 513.169 242.676 513.01 245.642 511.395C250.368 508.84 253.996 507.423 253.996 503.027C253.996 498.632 254.724 459.799 257.968 447.803C261.212 435.808 263.781 415.471 263.781 415.471C263.781 415.471 287.401 420.913 298.297 424.183C309.194 427.453 324.777 439.078 339.725 439.449C352.369 439.833 353.058 423.918 351.231 414.968Z" fill="black"/>
<path d="M263.886 415.55C263.886 415.55 265.489 399.305 255.479 389.322" stroke="#263238" stroke-linecap="round" stroke-linejoin="round"/>
<path d="M262.642 390.951C262.642 390.951 266.455 394.658 265.171 405.104" stroke="#263238" stroke-linecap="round" stroke-linejoin="round"/>
<path d="M336.561 397.015C336.561 397.015 298.774 386.846 280.953 383.576C263.132 380.306 246.436 378.121 240.624 385.032C234.811 391.944 236.268 445.698 233.726 459.176C231.184 472.655 228.271 498.42 227.543 502.405C226.814 506.39 223.571 510.044 225.729 511.501C227.887 512.957 240.981 514.043 245.708 511.501C250.435 508.959 254.062 507.529 254.062 503.133C254.062 498.738 254.791 459.905 258.034 447.909C261.278 435.914 263.847 415.577 263.847 415.577C263.847 415.577 287.467 421.019 298.363 424.289C309.26 427.559 324.843 439.184 339.791 439.555C354.739 439.925 352.872 417.391 349.96 410.85C347.047 404.31 342.002 398.113 336.561 397.015Z" stroke="#263238" stroke-linecap="round" stroke-linejoin="round"/>
<path d="M390.99 325.889C390.99 325.889 387.522 326.67 377.472 324.737C367.423 322.804 367.82 327.054 354.686 321.639C341.552 316.224 312.199 294.219 307.565 290.737L302.931 287.308C302.931 287.308 303.54 279.986 303.54 275.961C303.54 271.936 303.315 268.123 303.315 268.123C303.315 268.123 304.441 258.961 303.54 257.385C302.64 255.81 301.078 257.836 301.078 259.623C300.605 262.911 299.779 266.138 298.615 269.249C298.615 269.249 297.053 259.848 296.602 258.061C296.152 256.273 295.04 255.598 293.954 256.048C292.869 256.498 294.18 261.424 294.18 263.436C294.18 265.449 293.954 271.261 293.954 271.261C293.954 271.261 289.982 261.424 288.804 259.411C287.626 257.399 286.341 258.961 286.567 260.735C286.792 262.509 290.141 272.36 290.141 272.36C290.141 272.36 288.129 282.872 288.129 283.548C288.129 284.223 283.879 282.872 281.866 281.085C279.854 279.298 279.218 281.085 280.542 283.323C281.866 285.56 285.468 287.798 289.493 289.585C293.518 291.373 297.993 293.16 297.993 293.16C297.993 293.16 321.255 318.21 329.769 326.048C338.282 333.886 347.669 338.785 352.594 341.473C357.52 344.16 368.244 349.748 368.244 349.748C368.244 349.748 362.882 353.72 362.882 360.26C362.882 366.801 364.206 372.56 361.081 376.81C357.957 381.06 347.444 389.56 347.444 389.56C347.444 389.56 333.132 374.996 324.181 369.7C315.231 364.404 305.844 362.312 298.906 372.825C291.968 383.338 291.532 428.512 290.856 443.275C290.181 458.038 287.282 467.663 285.719 469.225C284.284 470.591 283.351 472.401 283.071 474.363C283.071 475.687 282.846 478.838 282.846 478.838C282.846 478.838 284.859 490.251 290.896 494.726C296.933 499.201 300.296 505.013 302.309 501.213C304.321 497.413 309.459 490.926 309.909 485.325C310.179 480.196 310.741 475.086 311.59 470.02C312.265 467.372 312.04 446.532 315.84 436.02C319.64 425.507 321.653 419.244 321.653 419.244C321.653 419.244 325.241 440.045 340.665 444.295C356.09 448.545 370.415 440.323 378.69 427.97C386.965 415.617 397.703 392.632 404.853 383.457C412.002 374.281 422.978 359.082 422.978 359.082L438.866 380.332C437.629 383.034 436.209 385.649 434.616 388.157C431.968 392.407 422.991 400.682 422.991 400.682C422.991 400.682 426.963 403.807 430.141 404.257C433.319 404.707 448.267 397.544 455.641 391.282C463.016 385.019 464.366 382.345 461.454 378.042C458.541 373.739 446.89 358.354 439.992 348.516C433.094 338.679 432.604 330.841 425.666 328.378C418.728 325.916 410.241 327.941 407.554 327.941C404.846 327.763 402.156 327.387 399.504 326.816L390.99 325.889Z" fill="#3BDFAB"/>
<path opacity="0.39" d="M364.1 422.528C364.1 422.528 352.528 397.372 332.907 383.285C313.285 369.197 313.285 372.693 314.291 375.738C315.297 378.783 316.304 382.782 316.304 382.782C316.304 382.782 308.757 374.732 308.757 380.266C308.757 385.8 315.8 402.403 310.769 423.031C305.738 443.659 300.177 463.268 301.713 472.324C303.249 481.38 305.235 488.927 299.701 482.916C294.166 476.905 291.148 482.916 291.651 485.431C291.863 486.451 296.947 492.422 303.222 499.347C305.579 495.494 309.379 490.079 309.763 485.286C310.083 480.167 310.693 475.07 311.59 470.02C312.265 467.372 312.04 446.532 315.84 436.02C319.64 425.507 321.653 419.245 321.653 419.245C321.653 419.245 325.241 440.045 340.665 444.295C356.09 448.545 370.415 440.323 378.69 427.97C382.252 422.674 386.264 415.392 390.249 408.11L371.713 416.464L364.1 422.528Z" fill="black"/>
<path d="M321.864 380.888C321.864 380.888 329.623 394.128 322.632 416.212" stroke="#263238" stroke-linecap="round" stroke-linejoin="round"/>
<path d="M326.3 379.339C326.3 379.339 328.829 388.422 326.3 395.505" stroke="#263238" stroke-linecap="round" stroke-linejoin="round"/>
<path d="M390.99 325.889C390.99 325.889 387.522 326.67 377.472 324.737C367.423 322.804 367.82 327.054 354.686 321.639C341.552 316.224 312.199 294.219 307.565 290.737L302.931 287.308C302.931 287.308 303.54 279.986 303.54 275.961C303.54 271.936 303.315 268.123 303.315 268.123C303.315 268.123 304.441 258.961 303.54 257.385C302.64 255.81 301.078 257.836 301.078 259.623C300.605 262.911 299.779 266.138 298.615 269.249C298.615 269.249 297.053 259.848 296.602 258.061C296.152 256.273 295.04 255.598 293.954 256.048C292.869 256.498 294.18 261.424 294.18 263.436C294.18 265.449 293.954 271.261 293.954 271.261C293.954 271.261 289.982 261.424 288.804 259.411C287.626 257.399 286.341 258.961 286.567 260.735C286.792 262.509 290.141 272.36 290.141 272.36C290.141 272.36 288.129 282.872 288.129 283.548C288.129 284.223 283.879 282.872 281.866 281.085C279.854 279.298 279.218 281.085 280.542 283.323C281.866 285.56 285.468 287.798 289.493 289.585C293.518 291.373 297.993 293.16 297.993 293.16C297.993 293.16 321.255 318.21 329.769 326.048C338.282 333.886 347.669 338.785 352.594 341.473C357.52 344.16 368.244 349.748 368.244 349.748C368.244 349.748 362.882 353.72 362.882 360.26C362.882 366.801 364.206 372.56 361.081 376.81C357.957 381.06 347.444 389.56 347.444 389.56C347.444 389.56 333.132 374.996 324.181 369.7C315.231 364.404 305.844 362.312 298.906 372.825C291.968 383.338 291.532 428.512 290.856 443.275C290.181 458.038 287.282 467.663 285.719 469.225C284.284 470.591 283.351 472.401 283.071 474.363C283.071 475.687 282.846 478.838 282.846 478.838C282.846 478.838 284.859 490.251 290.896 494.726C296.933 499.201 300.296 505.013 302.309 501.213C304.321 497.413 309.459 490.926 309.909 485.325C310.179 480.196 310.741 475.086 311.59 470.02C312.265 467.372 312.04 446.532 315.84 436.02C319.64 425.507 321.653 419.244 321.653 419.244C321.653 419.244 325.241 440.045 340.665 444.295C356.09 448.545 370.415 440.323 378.69 427.97C386.965 415.617 397.703 392.632 404.853 383.457C412.002 374.281 422.978 359.082 422.978 359.082L438.866 380.332C437.629 383.034 436.209 385.649 434.616 388.157C431.968 392.407 422.991 400.682 422.991 400.682C422.991 400.682 426.963 403.807 430.141 404.257C433.319 404.707 448.267 397.544 455.641 391.282C463.016 385.019 464.366 382.345 461.454 378.042C458.541 373.739 446.89 358.354 439.992 348.516C433.094 338.679 432.604 330.841 425.666 328.378C418.728 325.916 410.241 327.941 407.554 327.941C404.846 327.763 402.156 327.387 399.504 326.816L390.99 325.889Z" stroke="#263238" stroke-linecap="round" stroke-linejoin="round"/>
<path d="M439.978 348.609C433.041 338.759 432.59 330.934 425.653 328.471C418.715 326.008 410.228 328.034 407.54 328.034C404.833 327.856 402.143 327.479 399.491 326.909L390.99 325.889C390.99 325.889 387.522 326.67 377.472 324.737C367.423 322.804 367.82 327.054 354.686 321.639C341.552 316.224 312.199 294.219 307.565 290.737L302.931 287.308C302.931 287.308 303.54 279.986 303.54 275.961C303.54 271.936 303.315 268.123 303.315 268.123C303.315 268.123 304.441 258.961 303.54 257.385C302.64 255.81 301.078 257.836 301.078 259.623C300.605 262.911 299.779 266.138 298.615 269.249C298.615 269.249 297.053 259.848 296.602 258.061C296.152 256.273 295.04 255.598 293.954 256.048C292.869 256.498 294.18 261.424 294.18 263.436C294.18 265.449 293.954 271.261 293.954 271.261C293.954 271.261 289.982 261.424 288.804 259.411C287.626 257.399 286.341 258.961 286.567 260.735C286.792 262.509 290.141 272.36 290.141 272.36C290.141 272.36 288.129 282.872 288.129 283.548C288.129 284.223 283.879 282.872 281.866 281.085C279.854 279.298 279.218 281.085 280.542 283.323C281.866 285.56 285.468 287.798 289.493 289.585C293.518 291.373 297.993 293.16 297.993 293.16C297.993 293.16 321.255 318.21 329.769 326.048C338.282 333.886 347.669 338.785 352.594 341.473C357.52 344.16 368.244 349.748 368.244 349.748C368.244 349.748 362.882 353.72 362.882 360.26V361.108L410.347 376.413C416.583 368.098 423.044 359.201 423.044 359.201L438.932 380.451C437.696 383.153 436.276 385.768 434.682 388.276C432.034 392.526 423.058 400.801 423.058 400.801C423.058 400.801 427.03 403.926 430.207 404.376C433.385 404.826 448.333 397.663 455.708 391.401C463.082 385.138 464.433 382.464 461.52 378.161C458.607 373.858 446.903 358.446 439.978 348.609Z" fill="white"/>
<path d="M439.978 348.609C433.041 338.758 432.591 330.934 425.653 328.471C418.715 326.008 410.228 328.034 407.54 328.034C405.428 327.931 403.325 327.67 401.251 327.253C401.251 327.253 401.251 327.359 401.251 327.425C401.251 327.491 405.66 330.722 416.305 334.403C426.95 338.083 441.633 364.51 447.141 370.376C452.649 376.241 454.49 379.564 453.02 381.391C451.55 383.218 448.611 385.072 443.103 390.937C439.502 394.79 434.815 399.265 432.816 403.846C441.043 400.942 448.74 396.711 455.602 391.321C462.99 385.059 464.327 382.384 461.414 378.081C458.501 373.778 446.903 358.446 439.978 348.609Z" fill="#3BDFAB"/>
<path d="M350.238 321.917C344.386 320.103 338.913 317.241 334.085 313.47C325.28 306.85 312.424 297.675 315.364 304.295C318.303 310.915 338.494 327.425 346.57 331.463C354.647 335.502 359.81 333.29 370.071 332.562C380.332 331.834 378.148 326.684 371.541 326.684C364.934 326.684 355.388 324.115 350.238 321.917Z" fill="#3BDFAB"/>
<path opacity="0.5" d="M350.238 321.917C344.386 320.103 338.913 317.241 334.085 313.47C325.28 306.85 312.424 297.675 315.364 304.295C318.303 310.915 338.494 327.425 346.57 331.463C354.647 335.502 359.81 333.29 370.071 332.562C380.332 331.834 378.148 326.684 371.541 326.684C364.934 326.684 355.388 324.115 350.238 321.917Z" fill="white"/>
<path opacity="0.5" d="M439.978 348.609C433.041 338.758 432.591 330.934 425.653 328.471C418.715 326.008 410.228 328.034 407.54 328.034C405.428 327.931 403.325 327.67 401.251 327.253C401.251 327.253 401.251 327.359 401.251 327.425C401.251 327.491 405.66 330.722 416.305 334.403C426.95 338.083 441.633 364.51 447.141 370.376C452.649 376.241 454.49 379.564 453.02 381.391C451.55 383.218 448.611 385.072 443.103 390.937C439.502 394.79 434.815 399.265 432.816 403.846C441.043 400.942 448.74 396.711 455.602 391.321C462.99 385.059 464.327 382.384 461.414 378.081C458.501 373.778 446.903 358.446 439.978 348.609Z" fill="white"/>
<path d="M439.978 348.609C433.041 338.759 432.59 330.934 425.653 328.471C418.715 326.008 410.228 328.034 407.54 328.034C404.833 327.856 402.143 327.479 399.491 326.909L390.99 325.889C390.99 325.889 387.522 326.67 377.472 324.737C367.423 322.804 367.82 327.054 354.686 321.639C341.552 316.224 312.199 294.219 307.565 290.737L302.931 287.308C302.931 287.308 303.54 279.986 303.54 275.961C303.54 271.936 303.315 268.123 303.315 268.123C303.315 268.123 304.441 258.961 303.54 257.385C302.64 255.81 301.078 257.836 301.078 259.623C300.605 262.911 299.779 266.138 298.615 269.249C298.615 269.249 297.053 259.848 296.602 258.061C296.152 256.273 295.04 255.598 293.954 256.048C292.869 256.498 294.18 261.424 294.18 263.436C294.18 265.449 293.954 271.261 293.954 271.261C293.954 271.261 289.982 261.424 288.804 259.411C287.626 257.399 286.341 258.961 286.567 260.735C286.792 262.509 290.141 272.36 290.141 272.36C290.141 272.36 288.129 282.872 288.129 283.548C288.129 284.223 283.879 282.872 281.866 281.085C279.854 279.298 279.218 281.085 280.542 283.323C281.866 285.56 285.468 287.798 289.493 289.585C293.518 291.373 297.993 293.16 297.993 293.16C297.993 293.16 321.255 318.21 329.769 326.048C338.282 333.886 347.669 338.785 352.594 341.473C357.52 344.16 368.244 349.748 368.244 349.748C368.244 349.748 362.882 353.72 362.882 360.26V361.108L410.347 376.413C416.583 368.098 423.044 359.201 423.044 359.201L438.932 380.451C437.696 383.153 436.276 385.768 434.682 388.276C432.034 392.526 423.058 400.801 423.058 400.801C423.058 400.801 427.03 403.926 430.207 404.376C433.385 404.826 448.333 397.663 455.708 391.401C463.082 385.138 464.433 382.464 461.52 378.161C458.607 373.858 446.903 358.446 439.978 348.609Z" stroke="#263238" stroke-linecap="round" stroke-linejoin="round"/>
<path d="M439.978 348.609C433.041 338.759 432.59 330.934 425.653 328.471C418.715 326.008 410.228 328.034 407.54 328.034C404.833 327.856 402.143 327.479 399.49 326.909L390.99 325.889C390.99 325.889 387.521 326.67 377.472 324.737C367.423 322.804 367.82 327.054 354.686 321.639C353.892 321.308 353.031 320.924 352.118 320.474C348.569 323.122 344.69 327.783 342.453 335.66C346.425 338.202 350.066 340.109 352.528 341.446C357.44 344.094 368.178 349.721 368.178 349.721C368.178 349.721 362.816 353.693 362.816 360.234C362.816 366.774 364.14 372.534 361.015 376.784C358.619 380.041 351.906 385.787 348.887 388.289C354.183 393.175 370.071 409.036 376.691 430.657C377.366 429.797 378.015 428.91 378.637 428.009C386.912 415.709 397.65 392.672 404.8 383.497C411.949 374.321 422.925 359.122 422.925 359.122L428.83 367.066C433.027 362.074 438.35 357.546 444.877 355.56C443.156 353.071 441.448 350.701 439.978 348.609Z" fill="white" stroke="#263238" stroke-linecap="round" stroke-linejoin="round"/>
<path opacity="0.14" d="M408.6 361.73C407.63 362.37 406.698 363.064 405.806 363.809C403.577 365.813 400.952 367.328 398.102 368.256C395.251 369.184 392.238 369.505 389.256 369.197C373.659 368.191 365.609 356.116 365.106 360.141C364.603 364.166 365.106 375.235 374.162 378.757C383.219 382.279 394.79 377.75 391.268 381.775C387.747 385.8 370.733 395.015 374.758 400.55C378.783 406.084 389.627 404.667 403.052 380.849C405.025 377.353 414.491 367.794 414.558 363.332C414.664 358.658 411.287 359.982 408.6 361.73Z" fill="black"/>
<path opacity="0.14" d="M406.216 332.589C408.388 333.582 411.128 334.707 414.491 335.872C419.88 337.726 426.275 345.379 432.008 353.27C433.858 351.902 435.857 350.747 437.966 349.827C431.2 340.096 430.697 332.39 423.826 329.967C418.596 328.114 412.479 328.802 408.639 329.252L406.216 332.589Z" fill="black"/>
<path d="M441.104 350.198C437.805 351.075 434.716 352.608 432.023 354.706C429.33 356.803 427.087 359.422 425.428 362.405L428.883 367.026C433.08 362.035 438.403 357.506 444.93 355.52L441.104 350.198Z" fill="#263238" stroke="#263238" stroke-linecap="round" stroke-linejoin="round"/>
<path d="M399.491 326.909L390.99 325.889C388.825 326.158 386.633 326.127 384.476 325.797C383.325 330.828 381.378 339.368 380.359 344.478C378.849 352.052 386.979 350.026 395.015 344.478C400.206 340.903 404.575 333.357 407.421 328.021C404.755 327.836 402.105 327.464 399.491 326.909Z" fill="#263238" stroke="#263238" stroke-linecap="round" stroke-linejoin="round"/>
<path d="M346.358 338.017C348.08 333.794 351.522 327.081 357.374 322.685C356.54 322.381 355.653 322.036 354.726 321.639C353.799 321.242 353.071 320.924 352.158 320.474C348.609 323.122 344.73 327.783 342.492 335.66C343.816 336.521 345.127 337.302 346.358 338.017Z" fill="#263238" stroke="#263238" stroke-linecap="round" stroke-linejoin="round"/>
<path d="M406.058 277.603C406.058 277.603 396.406 280.317 393.705 282.634C391.004 284.951 387.085 292.286 382.504 293.054C377.922 293.822 377.856 296.536 377.856 298.469C377.827 299.55 378.097 300.618 378.637 301.554C378.637 301.554 378.254 310.438 378.254 315.072C378.254 319.706 379.405 320.871 381.722 320.871H387.138C387.138 320.871 385.972 337.09 384.821 340.956C383.669 344.822 390.606 340.572 392.539 338.639L403.357 327.822C403.357 327.822 401.04 316.621 404.508 308.902C407.977 301.183 401.86 298.469 401.04 289.969C400.729 287.65 401.029 285.289 401.909 283.121C402.789 280.952 404.219 279.05 406.058 277.603Z" fill="white"/>
<path d="M403.357 327.822C403.357 327.822 401.04 316.621 404.508 308.902C407.977 301.183 401.86 298.469 401.04 289.969C401.014 289.48 401.014 288.989 401.04 288.5C398.753 291.517 397.546 295.214 397.61 298.999C398.114 306.069 396.088 314.159 391.547 316.211C388.303 317.641 381.233 318.568 379.061 319.534C379.34 319.994 379.746 320.363 380.23 320.598C380.713 320.833 381.255 320.923 381.789 320.858H387.204C387.204 320.858 387.045 323.043 386.78 326.008C390.011 328.762 393.585 332.099 396.419 334.813L403.357 327.822Z" fill="#3BDFAB"/>
<path opacity="0.5" d="M403.357 327.822C403.357 327.822 401.04 316.621 404.508 308.902C407.977 301.183 401.86 298.469 401.04 289.969C401.014 289.48 401.014 288.989 401.04 288.5C398.753 291.517 397.546 295.214 397.61 298.999C398.114 306.069 396.088 314.159 391.547 316.211C388.303 317.641 381.233 318.568 379.061 319.534C379.34 319.994 379.746 320.363 380.23 320.598C380.713 320.833 381.255 320.923 381.789 320.858H387.204C387.204 320.858 387.045 323.043 386.78 326.008C390.011 328.762 393.585 332.099 396.419 334.813L403.357 327.822Z" fill="white"/>
<path d="M406.058 277.603C406.058 277.603 396.406 280.317 393.705 282.634C391.004 284.951 387.085 292.286 382.504 293.054C377.922 293.822 377.856 296.536 377.856 298.469C377.827 299.55 378.097 300.618 378.637 301.554C378.637 301.554 378.254 310.438 378.254 315.072C378.254 319.706 379.405 320.871 381.722 320.871H387.138C387.138 320.871 385.972 337.09 384.821 340.956C383.669 344.822 390.606 340.572 392.539 338.639L403.357 327.822C403.357 327.822 401.04 316.621 404.508 308.902C407.977 301.183 401.86 298.469 401.04 289.969C400.729 287.65 401.029 285.289 401.909 283.121C402.789 280.952 404.219 279.05 406.058 277.603V277.603Z" stroke="#263238" stroke-linecap="round" stroke-linejoin="round"/>
<path d="M391.97 293.637C391.163 294.961 390.05 295.702 389.481 295.345C388.912 294.987 389.084 293.65 389.878 292.352C390.673 291.055 391.798 290.287 392.381 290.644C392.963 291.002 392.765 292.339 391.97 293.637Z" fill="#263238"/>
<path d="M392.46 287.467C392.46 287.467 397.372 285.322 396.432 291.439" stroke="#263238" stroke-linecap="round" stroke-linejoin="round"/>
<path d="M387.853 303.487C383.258 305.023 381.418 303.487 381.418 303.487" stroke="#263238" stroke-linecap="round" stroke-linejoin="round"/>
<path d="M383.086 304.03V307.87C383.086 307.87 385.006 309.631 386.926 303.712C385.683 304.09 384.374 304.199 383.086 304.03Z" stroke="#263238" stroke-linecap="round" stroke-linejoin="round"/>
<path d="M402.973 305.42C402.973 305.42 414.174 302.335 412.625 307.353C411.076 312.371 401.808 315.853 400.709 311.987" fill="white"/>
<path d="M402.973 305.42C402.973 305.42 414.174 302.335 412.625 307.353C411.076 312.371 401.808 315.853 400.709 311.987" stroke="#263238" stroke-linecap="round" stroke-linejoin="round"/>
<path d="M347.378 389.534C347.378 389.534 363.782 410.003 365.729 427.467" stroke="#263238" stroke-linecap="round" stroke-linejoin="round"/>
<path d="M368.178 349.721C368.178 349.721 371.541 343.234 371.541 338.573" stroke="#263238" stroke-linecap="round" stroke-linejoin="round"/>
<path d="M422.978 359.122L414.637 349.059" stroke="#263238" stroke-linecap="round" stroke-linejoin="round"/>
<path d="M438.853 380.372C440.569 379.038 442.563 378.107 444.688 377.649C446.813 377.191 449.013 377.216 451.127 377.724" stroke="#263238" stroke-linecap="round" stroke-linejoin="round"/>
<path d="M426.659 392.884C425.017 389.95 423.064 387.203 420.833 384.688C418.027 381.881 410.48 382.318 409.619 384.264C408.759 386.211 413.935 385.774 417.166 389.004C420.397 392.235 419.973 395.042 419.973 395.042C417.086 396.154 413.988 396.607 410.903 396.366C406.812 395.717 401.41 394.645 400.987 396.154C400.563 397.663 402.059 399.385 405.515 400.245C408.97 401.106 413.062 400.894 414.359 401.106C415.657 401.318 418.887 404.773 421.482 404.773C424.077 404.773 427.308 404.138 428.168 404.773C429.029 405.409 431.399 408.441 433.994 408.441C436.589 408.441 438.959 405.793 439.171 402.84C439.383 399.888 437.662 397.015 433.994 395.505C430.327 393.996 426.659 392.884 426.659 392.884Z" fill="white" stroke="#263238" stroke-linecap="round" stroke-linejoin="round"/>
<path d="M432.816 393.109C432.816 393.109 424.21 385.747 422.104 385.536C419.999 385.324 413.777 389.23 415.206 390.832C416.636 392.434 418.821 390.077 420.741 390.355C422.661 390.633 427.771 395.055 428.685 395.201" fill="white"/>
<path d="M432.816 393.109C432.816 393.109 424.21 385.747 422.104 385.536C419.999 385.324 413.777 389.23 415.206 390.832C416.636 392.434 418.821 390.077 420.741 390.355C422.661 390.633 427.771 395.055 428.685 395.201" stroke="#263238" stroke-linecap="round" stroke-linejoin="round"/>
<path d="M433.133 396.551L430.485 392.235C430.485 392.235 427.679 396.988 424.448 396.339C421.217 395.691 428.115 388.567 429.625 388.144C431.134 387.72 433.08 386.82 434.802 390.077C436.038 392.701 436.98 395.454 437.608 398.286" fill="white"/>
<path d="M433.133 396.551L430.485 392.235C430.485 392.235 427.679 396.988 424.448 396.339C421.217 395.691 428.115 388.567 429.625 388.144C431.134 387.72 433.08 386.82 434.802 390.077C436.038 392.701 436.98 395.454 437.608 398.286" stroke="#263238" stroke-linecap="round" stroke-linejoin="round"/>
<path d="M438.959 400.444C438.959 400.444 437.873 393.532 436.576 392.672C435.278 391.811 431.187 393.321 429.466 395.32C427.745 397.319 428.817 397.69 430.975 397.69C432.15 397.746 433.303 397.359 434.206 396.604L435.715 399.848" fill="white"/>
<path d="M438.959 400.444C438.959 400.444 437.873 393.532 436.576 392.672C435.278 391.811 431.187 393.321 429.466 395.32C427.745 397.319 428.817 397.69 430.975 397.69C432.15 397.746 433.303 397.359 434.206 396.604L435.715 399.848" stroke="#263238" stroke-linecap="round" stroke-linejoin="round"/>
<path d="M303.196 500.115C300.633 494.042 297.3 488.324 293.279 483.101C287.096 475.316 276.716 472.284 270.096 468.034C263.476 463.784 253.877 457.998 249.627 463.016C245.377 468.034 249.243 474.932 256.247 482.717C263.251 490.502 275.551 496.619 276.716 498.168C277.881 499.717 288.844 512.626 293.094 513.01C297.344 513.394 301.647 507.833 303.196 500.115Z" fill="#263238" stroke="#263238" stroke-linecap="round" stroke-linejoin="round"/>
<path d="M299.992 508.416C297.781 500.565 289.744 493.918 284.236 489.721C277.616 484.73 273.34 477.726 261.344 468.643C256.128 464.671 252.487 463.149 250.051 462.672C249.9 462.794 249.758 462.926 249.627 463.069C245.377 468.087 249.243 474.985 256.247 482.77C263.251 490.555 275.551 496.672 276.716 498.221C277.881 499.77 288.844 512.679 293.094 513.063C295.517 513.235 298.019 511.422 299.992 508.416Z" fill="white" stroke="#263238" stroke-linecap="round" stroke-linejoin="round"/>
<path d="M280.979 492.29C273.366 485.948 256.459 466.909 252.646 465.227C249.468 463.81 248.21 467.253 247.879 468.431C248.197 472.602 251.481 477.474 256.194 482.717C263.145 490.436 275.498 496.619 276.663 498.168C277.828 499.717 288.791 512.626 293.041 513.01C293.552 513.144 294.094 513.083 294.562 512.838C295.03 512.593 295.389 512.182 295.57 511.686C297.688 508.562 288.632 498.632 280.979 492.29Z" fill="white" stroke="#263238" stroke-linecap="round" stroke-linejoin="round"/>
</svg>
