<svg width="622" height="622" viewBox="0 0 622 622" fill="none" xmlns="http://www.w3.org/2000/svg">
<path d="M331.178 536.263C439.449 536.263 527.22 533.301 527.22 529.645C527.22 525.99 439.449 523.027 331.178 523.027C222.907 523.027 135.136 525.99 135.136 529.645C135.136 533.301 222.907 536.263 331.178 536.263Z" fill="#3BDFAB"/>
<path opacity="0.5" d="M331.178 536.263C439.449 536.263 527.22 533.301 527.22 529.645C527.22 525.99 439.449 523.027 331.178 523.027C222.907 523.027 135.136 525.99 135.136 529.645C135.136 533.301 222.907 536.263 331.178 536.263Z" fill="white"/>
<path d="M458.439 498.297C454.296 494.888 448.163 499.69 445.688 503.136C443.635 506.01 440.923 510.463 440.289 511.508V511.234L440.426 511.147L440.276 511.209C439.6 507.324 438.477 503.53 436.93 499.901C437.975 498.844 441.968 497.774 442.864 497.413C446.596 496.169 450.141 495.199 452.542 491.84C454.433 489.178 455.503 485.309 452.02 483.431C447.293 480.943 442.205 486.79 440.451 490.646C439.07 493.681 437.39 498.222 436.868 499.69C435.515 496.568 433.944 493.546 432.166 490.646C433.664 489.278 435.312 488.085 437.079 487.088C440.351 484.924 443.548 483.095 445.004 479.226C446.161 476.178 446.248 472.16 442.341 471.24C437.142 469.996 433.721 476.987 433.011 481.192C432.514 484.128 432.091 488.282 431.904 490.236C430.561 488.046 429.217 486.031 427.998 484.215C426.779 482.398 425.51 480.57 424.677 479.04L425.05 478.903C424.907 478.941 424.757 478.941 424.614 478.903V478.828C425.448 477.584 429.18 475.805 430.013 475.345C433.434 473.429 436.756 471.824 438.485 468.08C439.866 465.119 440.189 461.114 436.42 459.907C431.32 458.29 427.401 465.02 426.381 469.15C425.585 472.372 424.789 477.136 424.527 478.679C424.391 478.418 424.241 478.156 424.117 477.908C422.526 474.753 421.15 471.495 419.999 468.155H420.385C420.24 468.158 420.097 468.133 419.962 468.08C419.962 467.956 419.875 467.831 419.838 467.719C421.095 466.141 422.522 464.706 424.092 463.44C426.978 460.778 429.827 458.464 430.648 454.408C431.295 451.199 430.648 447.23 426.729 446.944C421.393 446.546 419.141 454.01 419.116 458.265C419.116 460.865 419.303 464.373 419.439 466.525C418.718 464.323 418.195 462.457 417.872 461.238C417.71 460.641 417.611 460.193 417.549 459.932C417.588 458.112 417.776 456.298 418.108 454.508C418.606 450.614 419.352 447.044 417.325 443.374C415.757 440.5 412.734 437.863 409.525 440.177C405.183 443.312 408.281 450.465 410.968 453.737C412.884 456.038 415.77 459.073 417.188 460.492C417.486 461.736 418.195 464.385 419.315 467.707C417.872 466.502 416.532 465.179 415.309 463.751C412.597 460.927 410.209 458.115 406.154 457.382C402.932 456.797 398.976 457.481 398.764 461.437C398.478 466.786 405.979 468.901 410.234 468.826C413.307 468.826 417.636 468.416 419.514 468.254C420.674 471.665 422.07 474.99 423.694 478.206C423.793 478.393 423.893 478.579 424.005 478.766C422.289 477.966 420.648 477.013 419.104 475.917C415.77 473.84 412.759 471.7 408.642 471.986C405.382 472.21 401.725 473.852 402.484 477.746C403.529 482.995 411.316 483.182 415.421 482.075C418.382 481.279 422.487 479.873 424.266 479.239C425.162 480.818 426.331 482.56 427.662 484.526C428.993 486.491 430.461 488.718 431.929 491.144C430.772 491.542 426.767 488.656 425.883 488.121C422.549 486.043 419.551 483.904 415.434 484.19C412.175 484.414 408.505 486.056 409.276 489.949C410.309 495.199 418.108 495.386 422.201 494.279C426.033 493.258 431.768 491.193 431.929 491.144V491.33C431.929 491.268 431.929 491.218 431.929 491.156C433.653 493.979 435.171 496.922 436.47 499.964C434.977 500.175 431.17 498.72 430.25 498.496C426.518 497.364 423.035 496.095 419.141 497.451C416.056 498.521 412.921 501.071 414.7 504.616C417.088 509.418 424.652 507.552 428.322 505.412C431.22 503.721 435.263 500.946 436.507 500.088C438.033 503.681 439.139 507.438 439.804 511.284C437.765 511.029 435.764 510.527 433.845 509.791C430.113 508.659 426.617 507.39 422.724 508.746C419.639 509.816 416.504 512.366 418.295 515.912C420.671 520.714 428.247 518.848 431.904 516.708C434.654 515.116 438.398 512.553 439.853 511.545C440.718 516.824 440.693 522.21 439.779 527.481L440.301 527.568C441.225 522.269 441.254 516.854 440.388 511.545C441.409 510.637 445.862 510.301 446.832 510.214C450.726 509.704 454.408 509.455 457.406 506.619C459.695 504.405 461.524 500.81 458.439 498.297Z" fill="#3BDFAB"/>
<path d="M494.552 505.276C490.447 505.636 487.822 508.224 484.861 510.799C484.19 511.384 481.54 513.996 480.035 514.618C479.069 510.851 478.534 506.986 478.442 503.099C479.935 503.36 484.749 504.231 488.096 504.566C492.325 505.002 499.989 503.596 500.175 498.234C500.312 494.279 496.443 493.258 493.184 493.532C489.079 493.905 486.441 496.493 483.493 499.068C482.784 499.678 479.898 502.539 478.442 502.962C478.376 499.636 478.546 496.311 478.952 493.01C478.997 493.049 479.035 493.095 479.064 493.147L478.977 492.985C479.151 492.985 485.197 492.487 489.128 491.84C493.321 491.156 500.324 487.772 499.08 482.56C498.185 478.704 494.104 478.716 491.106 479.861C487.225 481.291 485.372 484.476 483.195 487.735C482.61 488.606 480.159 492.873 478.94 492.985C479.263 490.161 479.711 487.549 480.097 485.197C480.483 482.846 480.843 480.781 481.005 478.977C482.883 478.816 487.225 478.418 490.236 477.92C494.428 477.223 501.432 473.852 500.188 468.64C499.279 464.783 495.212 464.796 492.201 465.928C488.332 467.371 486.479 470.555 484.302 473.815C483.339 475.45 482.236 476.998 481.005 478.442C481.005 478.219 481.005 478.007 481.005 477.796C481.155 474.198 481.059 470.595 480.719 467.01C482.485 466.388 486.591 464.933 489.427 463.701C493.321 461.997 499.292 456.996 496.829 452.244C495 448.736 491.119 449.756 488.432 451.584C485.036 453.936 484.016 457.481 482.709 461.176C482.186 462.981 481.507 464.737 480.682 466.425C480.346 462.93 479.885 460.205 479.662 458.961C480.321 457.12 481.702 453.152 482.485 450.253C483.605 446.161 483.468 438.373 478.218 437.303C474.337 436.52 472.67 440.177 472.434 443.436C472.123 447.554 474.25 450.564 476.303 453.898C477.341 455.398 478.264 456.974 479.064 458.613C479.064 458.874 479.189 459.335 479.301 459.932C479.512 461.176 479.798 463.091 480.047 465.405C479.288 463.378 478.019 460.106 476.937 457.73C475.158 453.873 470.045 448.002 465.331 450.564C461.86 452.455 462.942 456.324 464.845 458.974C467.259 462.32 470.817 463.266 474.549 464.51C476.5 465.013 478.39 465.731 480.184 466.649C480.184 466.774 480.184 466.898 480.184 467.023C480.093 467.136 479.972 467.222 479.836 467.271L480.196 467.147C480.532 470.665 480.623 474.202 480.47 477.733C480.47 478.019 480.47 478.306 480.408 478.604C479.55 477.36 476.85 473.305 474.797 470.68C472.173 467.346 465.828 462.818 461.847 466.401C458.899 469.05 460.852 472.621 463.328 474.698C466.45 477.397 470.132 477.485 474.039 477.82C474.984 477.908 479.127 477.995 480.396 478.778V478.94C480.277 479.023 480.141 479.079 479.997 479.102H480.383C480.221 480.856 479.873 482.896 479.487 485.185C479.102 487.474 478.729 489.726 478.405 492.288C477.435 490.584 475.345 486.964 473.678 484.488C471.302 480.968 465.306 476.004 461.076 479.288C457.954 481.714 459.633 485.359 461.947 487.66C464.87 490.584 468.54 490.945 472.409 491.567C474.432 491.752 476.428 492.169 478.355 492.811C477.927 496.185 477.74 499.586 477.796 502.987C476.713 501.879 473.317 498.421 470.804 496.232C467.62 493.433 460.541 490.161 457.294 494.415C454.893 497.563 457.456 500.635 460.28 502.29C463.85 504.367 467.483 503.783 471.389 503.385C472.334 503.298 476.365 502.613 477.808 503.148C477.885 507.091 478.423 511.012 479.413 514.829C479.36 514.842 479.304 514.842 479.251 514.829H479.413L479.487 515.091C478.48 514.406 474.175 511.458 471.128 509.692C467.396 507.564 459.869 505.723 457.506 510.525C455.764 514.083 458.874 516.621 461.972 517.678C465.866 519.022 469.324 517.678 473.081 516.596C474.026 516.31 478.194 514.742 479.5 515.153C480.907 520.342 483.169 525.261 486.193 529.708L486.628 529.409C483.617 524.991 481.375 520.095 479.997 514.929C481.739 515.252 486.217 516.036 489.365 516.36C493.582 516.795 501.245 515.377 501.432 510.028C501.693 506.022 497.811 504.977 494.552 505.276Z" fill="#3BDFAB"/>
<path d="M194.064 505.599C189.785 504.355 186.152 505.96 182.171 507.403C181.276 507.726 177.606 509.331 175.852 509.368C176.336 505.203 177.301 501.108 178.725 497.165C180.106 498.01 184.622 500.747 187.856 502.389C191.924 504.467 200.172 506.022 202.449 500.71C204.116 496.791 200.62 494.241 197.236 493.246C192.969 492.002 189.324 493.607 185.356 495.05C184.398 495.398 180.38 497.14 178.775 497.003C179.989 493.655 181.444 490.399 183.129 487.262C183.154 487.319 183.174 487.377 183.191 487.436V487.237C183.378 487.237 189.66 489.153 193.84 490.024C198.318 490.957 206.691 490.298 207.524 484.575C208.109 480.358 204.066 478.816 200.545 478.766C196.104 478.704 193.007 481.192 189.548 483.617C188.628 484.264 184.498 487.598 183.229 487.237C184.659 484.538 186.115 482.087 187.421 479.873C188.727 477.659 189.909 475.718 190.743 473.976C192.696 474.536 197.199 475.818 200.433 476.464C204.912 477.397 213.284 476.726 214.117 471.016C214.702 466.786 210.659 465.244 207.138 465.194C202.697 465.194 199.6 467.682 196.141 470.058C194.541 471.325 192.835 472.453 191.041 473.429C191.141 473.218 191.24 473.006 191.327 472.795C192.879 469.24 194.184 465.582 195.233 461.847C197.249 461.91 201.939 462.034 205.185 461.847C209.751 461.648 217.7 458.936 217.066 453.202C216.593 448.96 212.301 448.462 208.88 449.283C204.551 450.316 202.162 453.488 199.401 456.747C198.18 458.358 196.824 459.86 195.345 461.238C196.353 457.593 196.95 454.67 197.199 453.351C198.58 451.746 201.503 448.3 203.419 445.713C206.131 441.981 209.004 434.144 204.14 431.034C200.558 428.745 197.46 431.78 195.955 434.952C194.052 438.97 195.009 442.827 195.781 446.982C196.246 448.887 196.562 450.825 196.726 452.779C196.726 453.065 196.589 453.55 196.452 454.197C196.179 455.54 195.731 457.568 195.084 459.981C195.084 457.655 195.084 453.873 194.922 451.074C194.636 446.509 191.775 438.634 186.053 439.368C181.823 439.916 181.413 444.22 182.321 447.629C183.44 451.933 186.662 454.259 189.921 456.946C191.687 458.214 193.31 459.669 194.761 461.288L194.649 461.686C194.507 461.748 194.355 461.786 194.201 461.798H194.611C193.574 465.463 192.289 469.054 190.767 472.546C190.655 472.819 190.519 473.106 190.369 473.392C190.009 471.75 188.852 466.674 187.807 463.253C186.463 458.874 181.835 451.871 176.449 453.923C172.468 455.453 173.065 459.733 174.72 462.843C176.81 466.761 180.48 468.279 184.274 470.132C185.194 470.58 189.324 472.285 190.295 473.553V473.641C190.144 473.678 189.986 473.678 189.834 473.641L190.232 473.765C189.387 475.469 188.255 477.373 186.986 479.525C185.717 481.677 184.498 483.804 183.142 486.242C182.818 484.152 182.122 479.711 181.4 476.576C180.38 472.123 176.287 464.796 170.764 466.45C166.671 467.694 166.957 471.998 168.388 475.22C170.192 479.276 173.737 481.067 177.382 483.194C178.203 483.667 181.674 485.396 182.88 486.715C181.143 489.94 179.642 493.287 178.39 496.729C177.73 495.187 175.653 490.41 173.986 487.225C171.859 483.17 166.024 477.136 161.098 480.159C157.466 482.386 158.846 486.491 161.098 489.228C163.872 492.699 167.766 493.52 171.834 494.639C172.816 494.913 177.183 495.883 178.377 496.891C176.928 500.886 175.947 505.035 175.454 509.256H175.304L175.454 509.356V509.642C174.707 508.56 171.535 503.932 169.147 500.934C166.273 497.364 159.381 492.574 155.139 496.493C152.004 499.391 154.156 503.148 156.844 505.412C160.252 508.274 164.22 508.323 168.438 508.634C169.495 508.709 174.297 508.746 175.441 509.679C174.836 515.438 175.202 521.258 176.524 526.896L177.071 526.772C175.766 521.161 175.413 515.37 176.026 509.642C177.656 510.637 181.835 513.162 184.883 514.705C188.964 516.782 197.211 518.337 199.475 513.026C200.968 509.119 197.473 506.569 194.064 505.599Z" fill="#3BDFAB"/>
<path d="M152.863 509.057C150.213 510.301 149.131 512.789 147.787 515.203C147.183 516.532 146.423 517.784 145.523 518.935C143.925 516.66 142.594 514.21 141.555 511.632C142.612 511.446 146.058 510.799 148.372 510.189C151.308 509.406 156.072 506.532 154.853 502.899C153.945 500.225 151.121 500.511 148.994 501.519C146.332 502.763 145.262 505.251 143.906 507.676C143.294 509.071 142.49 510.373 141.517 511.545C140.64 509.351 139.916 507.098 139.353 504.803L139.465 504.865L139.365 504.778C139.477 504.778 143.408 502.862 145.859 501.456C148.496 499.939 152.328 495.908 150.201 492.748C148.621 490.397 145.946 491.43 144.18 492.96C141.953 494.888 141.517 497.488 140.883 500.225C140.721 500.946 140.149 504.417 139.365 504.803C138.868 502.837 138.507 500.971 138.121 499.304C137.736 497.637 137.499 496.169 137.163 494.925C138.407 494.341 141.169 492.972 143.06 491.878C145.697 490.36 149.529 486.329 147.402 483.17C145.822 480.831 143.147 481.851 141.381 483.381C139.154 485.322 138.718 487.922 138.084 490.646C137.863 491.985 137.522 493.3 137.064 494.577C137.064 494.415 136.964 494.279 136.927 494.129C136.116 491.687 135.143 489.302 134.016 486.989C135.036 486.13 137.412 484.115 138.992 482.585C141.169 480.47 143.968 475.619 141.045 473.056C138.942 471.177 136.604 472.82 135.273 474.748C133.593 477.174 133.805 479.798 133.867 482.597C133.978 483.934 133.978 485.278 133.867 486.616C132.76 484.364 131.752 482.66 131.292 481.888C131.292 480.495 131.192 477.497 130.993 475.37C130.707 472.347 128.642 467.172 124.873 467.794C122.074 468.242 121.887 471.103 122.546 473.342C123.38 476.178 125.557 477.659 127.784 479.363C128.854 480.113 129.864 480.945 130.807 481.851C130.906 482.013 131.08 482.286 131.304 482.672C131.764 483.456 132.436 484.662 133.195 486.143C132.175 484.986 130.496 483.107 129.177 481.801C127.012 479.674 122.111 477.037 119.611 479.935C117.757 482.075 119.461 484.389 121.402 485.683C123.89 487.312 126.477 487.051 129.289 486.927C130.719 486.764 132.163 486.764 133.593 486.927L133.705 487.175C133.668 487.268 133.613 487.352 133.543 487.424L133.755 487.25C134.86 489.518 135.812 491.858 136.604 494.254C136.604 494.453 136.728 494.652 136.778 494.851C135.87 494.204 133.046 492.213 131.031 490.982C128.431 489.402 123.044 487.984 121.29 491.392C120.046 493.88 122.186 495.759 124.375 496.555C127.149 497.575 129.625 496.704 132.324 495.946C132.984 495.759 135.77 494.776 136.815 494.975V495.037C136.754 495.121 136.678 495.192 136.591 495.249L136.84 495.124C137.176 496.368 137.462 497.787 137.785 499.416C138.109 501.046 138.42 502.638 138.855 504.392C137.773 503.497 135.459 501.618 133.718 500.387C131.23 498.633 125.98 496.816 123.977 500.088C122.497 502.489 124.549 504.504 126.677 505.462C129.364 506.706 131.914 505.985 134.651 505.462C136.047 505.075 137.482 504.845 138.93 504.778C139.503 507.14 140.239 509.459 141.132 511.719C140.124 511.247 136.989 509.804 134.75 508.97C131.914 507.9 126.353 507.502 125.258 511.16C124.45 513.872 126.95 515.29 129.252 515.675C132.15 516.161 134.439 514.854 136.952 513.598C137.562 513.299 140.112 511.819 141.182 511.819C142.226 514.455 143.575 516.96 145.2 519.283H145.1H145.212L145.324 519.445C144.478 519.233 140.858 518.35 138.37 517.939C135.372 517.454 129.849 518.126 129.488 521.945C129.214 524.757 131.976 525.677 134.265 525.59C137.213 525.503 139.241 523.774 141.418 522.07C141.978 521.634 144.379 519.582 145.349 519.482C147.605 522.577 150.363 525.272 153.51 527.456L153.734 527.145C150.606 524.951 147.868 522.247 145.635 519.146C146.879 518.922 150.064 518.313 152.253 517.74C155.189 516.957 159.954 514.083 158.734 510.451C157.826 507.763 154.965 508.05 152.863 509.057Z" fill="#3BDFAB"/>
<path d="M480.719 102.021H196.054C188.043 102.021 181.549 108.515 181.549 116.526V295.923C181.549 303.934 188.043 310.428 196.054 310.428H480.719C488.73 310.428 495.224 303.934 495.224 295.923V116.526C495.224 108.515 488.73 102.021 480.719 102.021Z" fill="#3BDFAB"/>
<path opacity="0.6" d="M480.719 102.021H196.054C188.043 102.021 181.549 108.515 181.549 116.526V295.923C181.549 303.934 188.043 310.428 196.054 310.428H480.719C488.73 310.428 495.224 303.934 495.224 295.923V116.526C495.224 108.515 488.73 102.021 480.719 102.021Z" fill="white"/>
<path d="M313.849 218.533H277.151V239.122H313.849V218.533Z" fill="white"/>
<path d="M313.849 242.841H277.151V263.43H313.849V242.841Z" fill="white"/>
<path d="M354.279 218.533H317.581V239.122H354.279V218.533Z" fill="white"/>
<path d="M394.721 194.213H358.023V214.802H394.721V194.213Z" fill="white"/>
<path d="M394.721 169.893H358.023V190.481H394.721V169.893Z" fill="white"/>
<path d="M394.721 124.948H358.023V141.841H394.721V124.948Z" fill="#3BDFAB"/>
<path d="M354.279 124.948H317.581V141.841H354.279V124.948Z" fill="#3BDFAB"/>
<path d="M354.279 242.841H317.581V263.43H354.279V242.841Z" fill="white"/>
<path d="M354.279 145.573H317.581V166.161H354.279V145.573Z" fill="white"/>
<path d="M354.279 169.893H317.581V190.481H354.279V169.893Z" fill="white"/>
<path d="M354.279 194.213H317.581V214.802H354.279V194.213Z" fill="white"/>
<path d="M394.721 242.841H358.023V263.43H394.721V242.841Z" fill="white"/>
<path d="M232.976 145.573H193.853V166.161H232.976V145.573Z" fill="white"/>
<path d="M232.976 194.213H193.853V214.802H232.976V194.213Z" fill="white"/>
<path d="M232.976 218.533H193.853V239.122H232.976V218.533Z" fill="white"/>
<path d="M232.976 169.893H193.853V190.481H232.976V169.893Z" fill="white"/>
<path d="M478.019 124.948H438.896V141.841H478.019V124.948Z" fill="#3BDFAB"/>
<path d="M232.976 242.841H193.853V263.43H232.976V242.841Z" fill="white"/>
<path d="M435.151 145.573H398.453V166.161H435.151V145.573Z" fill="white"/>
<path d="M394.721 218.533H358.023V239.122H394.721V218.533Z" fill="white"/>
<path d="M435.151 218.533H398.453V239.122H435.151V218.533Z" fill="white"/>
<path d="M435.151 169.893H398.453V190.481H435.151V169.893Z" fill="white"/>
<path d="M435.151 194.213H398.453V214.802H435.151V194.213Z" fill="white"/>
<path d="M435.151 242.841H398.453V263.43H435.151V242.841Z" fill="white"/>
<path d="M394.721 145.573H358.023V166.161H394.721V145.573Z" fill="white"/>
<path d="M478.019 242.841H438.896V263.43H478.019V242.841Z" fill="white"/>
<path d="M435.151 124.948H398.453V141.841H435.151V124.948Z" fill="#3BDFAB"/>
<path d="M478.019 218.533H438.896V239.122H478.019V218.533Z" fill="white"/>
<path d="M435.151 267.161H398.453V288.919H435.151V267.161Z" fill="white"/>
<path d="M478.019 194.213H438.896V214.802H478.019V194.213Z" fill="white"/>
<path d="M354.279 267.161H317.581V288.919H354.279V267.161Z" fill="white"/>
<path d="M394.721 267.161H358.023V288.919H394.721V267.161Z" fill="white"/>
<path d="M478.019 169.893H438.896V190.481H478.019V169.893Z" fill="white"/>
<path d="M478.019 267.161H438.896V288.919H478.019V267.161Z" fill="white"/>
<path d="M232.976 267.161H193.853V288.919H232.976V267.161Z" fill="white"/>
<path d="M478.019 145.573H438.896V166.161H478.019V145.573Z" fill="white"/>
<path d="M232.976 124.948H193.853V141.841H232.976V124.948Z" fill="#3BDFAB"/>
<path d="M273.406 124.948H236.708V141.841H273.406V124.948Z" fill="#3BDFAB"/>
<path d="M273.406 218.533H236.708V239.122H273.406V218.533Z" fill="white"/>
<path d="M313.849 124.948H277.151V141.841H313.849V124.948Z" fill="#3BDFAB"/>
<path d="M313.849 169.893H277.151V190.481H313.849V169.893Z" fill="white"/>
<path d="M273.406 242.841H236.708V263.43H273.406V242.841Z" fill="white"/>
<path d="M313.849 145.573H277.151V166.161H313.849V145.573Z" fill="white"/>
<path d="M273.406 145.573H236.708V166.161H273.406V145.573Z" fill="white"/>
<path d="M313.849 194.213H277.151V214.802H313.849V194.213Z" fill="white"/>
<path d="M273.406 194.213H236.708V214.802H273.406V194.213Z" fill="white"/>
<path d="M273.406 267.161H236.708V288.919H273.406V267.161Z" fill="white"/>
<path d="M273.406 169.893H236.708V190.481H273.406V169.893Z" fill="white"/>
<path d="M313.849 267.161H277.151V288.919H313.849V267.161Z" fill="white"/>
<path d="M211.119 113.59C214.039 113.59 216.406 111.223 216.406 108.303C216.406 105.383 214.039 103.016 211.119 103.016C208.199 103.016 205.832 105.383 205.832 108.303C205.832 111.223 208.199 113.59 211.119 113.59Z" fill="white"/>
<path d="M229.02 113.59C231.94 113.59 234.307 111.223 234.307 108.303C234.307 105.383 231.94 103.016 229.02 103.016C226.1 103.016 223.733 105.383 223.733 108.303C223.733 111.223 226.1 113.59 229.02 113.59Z" fill="white"/>
<path d="M211.219 111.748C210.483 111.748 209.777 111.456 209.257 110.936C208.737 110.416 208.445 109.71 208.445 108.974V90.2148C208.443 89.8494 208.514 89.4874 208.652 89.1494C208.791 88.8113 208.995 88.5041 209.253 88.2451C209.51 87.9862 209.817 87.7808 210.154 87.6406C210.492 87.5004 210.853 87.4282 211.219 87.4282C211.951 87.438 212.651 87.7359 213.165 88.2575C213.68 88.779 213.968 89.4822 213.968 90.2148V108.974C213.968 109.706 213.679 110.408 213.164 110.927C212.649 111.447 211.95 111.742 211.219 111.748Z" fill="#3BDFAB"/>
<path d="M229.282 111.748C228.546 111.748 227.84 111.456 227.32 110.936C226.8 110.416 226.507 109.71 226.507 108.974V90.2148C226.506 89.8494 226.576 89.4874 226.715 89.1494C226.854 88.8113 227.058 88.5041 227.316 88.2451C227.573 87.9862 227.88 87.7808 228.217 87.6406C228.554 87.5004 228.916 87.4282 229.282 87.4282C230.021 87.4282 230.729 87.7218 231.252 88.2444C231.775 88.767 232.068 89.4757 232.068 90.2148V108.974C232.068 109.34 231.996 109.701 231.856 110.039C231.716 110.376 231.51 110.683 231.251 110.94C230.992 111.198 230.685 111.402 230.347 111.541C230.009 111.68 229.647 111.75 229.282 111.748Z" fill="#3BDFAB"/>
<path d="M266.291 113.59C269.21 113.59 271.578 111.223 271.578 108.303C271.578 105.383 269.21 103.016 266.291 103.016C263.371 103.016 261.004 105.383 261.004 108.303C261.004 111.223 263.371 113.59 266.291 113.59Z" fill="white"/>
<path d="M284.179 113.59C287.099 113.59 289.466 111.223 289.466 108.303C289.466 105.383 287.099 103.016 284.179 103.016C281.259 103.016 278.892 105.383 278.892 108.303C278.892 111.223 281.259 113.59 284.179 113.59Z" fill="white"/>
<path d="M266.39 111.748C266.025 111.75 265.663 111.68 265.325 111.541C264.987 111.402 264.679 111.198 264.42 110.94C264.162 110.683 263.956 110.376 263.816 110.039C263.676 109.701 263.604 109.34 263.604 108.974V90.2148C263.604 89.4757 263.897 88.767 264.42 88.2444C264.942 87.7218 265.651 87.4282 266.39 87.4282C266.755 87.4282 267.117 87.5004 267.455 87.6406C267.792 87.7808 268.098 87.9862 268.356 88.2451C268.614 88.5041 268.818 88.8113 268.957 89.1494C269.095 89.4874 269.166 89.8494 269.164 90.2148V108.974C269.164 109.71 268.872 110.416 268.352 110.936C267.831 111.456 267.126 111.748 266.39 111.748Z" fill="#3BDFAB"/>
<path d="M284.453 111.748C284.088 111.75 283.726 111.68 283.388 111.541C283.05 111.402 282.742 111.198 282.483 110.94C282.224 110.683 282.019 110.376 281.879 110.039C281.739 109.701 281.666 109.34 281.666 108.974V90.2148C281.666 89.4757 281.96 88.767 282.483 88.2444C283.005 87.7218 283.714 87.4282 284.453 87.4282C284.818 87.4282 285.18 87.5004 285.517 87.6406C285.855 87.7808 286.161 87.9862 286.419 88.2451C286.677 88.5041 286.881 88.8113 287.019 89.1494C287.158 89.4874 287.229 89.8494 287.227 90.2148V108.974C287.227 109.71 286.935 110.416 286.415 110.936C285.894 111.456 285.189 111.748 284.453 111.748Z" fill="#3BDFAB"/>
<path d="M387.556 113.59C390.476 113.59 392.843 111.223 392.843 108.303C392.843 105.383 390.476 103.016 387.556 103.016C384.636 103.016 382.269 105.383 382.269 108.303C382.269 111.223 384.636 113.59 387.556 113.59Z" fill="white"/>
<path d="M405.444 113.59C408.364 113.59 410.731 111.223 410.731 108.303C410.731 105.383 408.364 103.016 405.444 103.016C402.525 103.016 400.157 105.383 400.157 108.303C400.157 111.223 402.525 113.59 405.444 113.59Z" fill="white"/>
<path d="M387.655 111.748C387.29 111.75 386.928 111.68 386.59 111.541C386.252 111.402 385.944 111.198 385.686 110.94C385.427 110.683 385.221 110.376 385.081 110.039C384.941 109.701 384.869 109.34 384.869 108.974V90.2148C384.869 89.4757 385.162 88.767 385.685 88.2444C386.207 87.7218 386.916 87.4282 387.655 87.4282C388.021 87.4282 388.382 87.5004 388.72 87.6406C389.057 87.7808 389.363 87.9862 389.621 88.2451C389.879 88.5041 390.083 88.8113 390.222 89.1494C390.36 89.4874 390.431 89.8494 390.429 90.2148V108.974C390.429 109.71 390.137 110.416 389.617 110.936C389.097 111.456 388.391 111.748 387.655 111.748Z" fill="#3BDFAB"/>
<path d="M405.718 111.748C405.353 111.75 404.991 111.68 404.653 111.541C404.315 111.402 404.007 111.198 403.748 110.94C403.49 110.683 403.284 110.376 403.144 110.039C403.004 109.701 402.932 109.34 402.932 108.974V90.2148C402.932 89.4757 403.225 88.767 403.748 88.2444C404.27 87.7218 404.979 87.4282 405.718 87.4282C406.083 87.4282 406.445 87.5004 406.783 87.6406C407.12 87.7808 407.426 87.9862 407.684 88.2451C407.942 88.5041 408.146 88.8113 408.285 89.1494C408.423 89.4874 408.494 89.8494 408.492 90.2148V108.974C408.492 109.71 408.2 110.416 407.68 110.936C407.159 111.456 406.454 111.748 405.718 111.748Z" fill="#3BDFAB"/>
<path d="M449.855 113.59C452.775 113.59 455.142 111.223 455.142 108.303C455.142 105.383 452.775 103.016 449.855 103.016C446.935 103.016 444.568 105.383 444.568 108.303C444.568 111.223 446.935 113.59 449.855 113.59Z" fill="white"/>
<path d="M473.031 108.303C473.031 107.257 472.721 106.235 472.14 105.365C471.559 104.496 470.733 103.818 469.767 103.418C468.801 103.018 467.738 102.913 466.713 103.117C465.687 103.321 464.745 103.825 464.006 104.564C463.266 105.304 462.763 106.246 462.559 107.271C462.355 108.297 462.459 109.36 462.859 110.326C463.26 111.292 463.937 112.118 464.807 112.699C465.676 113.28 466.698 113.59 467.744 113.59C469.146 113.59 470.491 113.033 471.483 112.041C472.474 111.05 473.031 109.705 473.031 108.303Z" fill="white"/>
<path d="M449.942 111.748C449.207 111.748 448.501 111.456 447.981 110.936C447.461 110.416 447.168 109.71 447.168 108.974V90.2148C447.167 89.8494 447.237 89.4874 447.376 89.1494C447.515 88.8113 447.719 88.5041 447.976 88.2451C448.234 87.9862 448.54 87.7808 448.878 87.6406C449.215 87.5004 449.577 87.4282 449.942 87.4282C450.681 87.4282 451.39 87.7218 451.913 88.2444C452.435 88.767 452.729 89.4757 452.729 90.2148V108.974C452.729 109.34 452.657 109.701 452.517 110.039C452.376 110.376 452.171 110.683 451.912 110.94C451.653 111.198 451.346 111.402 451.008 111.541C450.67 111.68 450.308 111.75 449.942 111.748Z" fill="#3BDFAB"/>
<path d="M468.018 111.748C467.284 111.745 466.582 111.451 466.064 110.932C465.546 110.412 465.256 109.708 465.256 108.974V90.2148C465.256 89.4757 465.549 88.767 466.072 88.2444C466.595 87.7218 467.303 87.4282 468.042 87.4282C468.408 87.4282 468.77 87.5004 469.107 87.6406C469.444 87.7808 469.751 87.9862 470.008 88.2451C470.266 88.5041 470.47 88.8113 470.609 89.1494C470.748 89.4874 470.818 89.8494 470.817 90.2148V108.974C470.817 109.341 470.744 109.703 470.603 110.042C470.462 110.38 470.255 110.687 469.995 110.945C469.735 111.203 469.426 111.406 469.087 111.544C468.747 111.682 468.384 111.752 468.018 111.748Z" fill="#3BDFAB"/>
<path d="M335.78 108.303C335.783 107.253 335.474 106.227 334.893 105.354C334.311 104.48 333.484 103.799 332.515 103.396C331.546 102.994 330.479 102.888 329.45 103.092C328.421 103.296 327.476 103.801 326.734 104.543C325.992 105.285 325.487 106.23 325.283 107.259C325.079 108.288 325.185 109.355 325.587 110.324C325.99 111.293 326.671 112.12 327.545 112.702C328.418 113.283 329.444 113.592 330.493 113.59C331.896 113.59 333.24 113.033 334.232 112.041C335.223 111.05 335.78 109.705 335.78 108.303Z" fill="white"/>
<path d="M348.382 113.59C351.302 113.59 353.669 111.223 353.669 108.303C353.669 105.383 351.302 103.016 348.382 103.016C345.462 103.016 343.095 105.383 343.095 108.303C343.095 111.223 345.462 113.59 348.382 113.59Z" fill="white"/>
<path d="M330.581 111.749C329.845 111.749 329.139 111.456 328.619 110.936C328.099 110.416 327.806 109.71 327.806 108.974V90.2149C327.805 89.8495 327.875 89.4875 328.014 89.1495C328.153 88.8115 328.357 88.5042 328.615 88.2452C328.872 87.9863 329.179 87.7809 329.516 87.6407C329.853 87.5005 330.215 87.4283 330.581 87.4283C330.949 87.425 331.314 87.4947 331.655 87.6333C331.996 87.7718 332.306 87.9766 332.567 88.2357C332.828 88.4947 333.036 88.803 333.178 89.1427C333.319 89.4825 333.392 89.8469 333.392 90.2149V108.974C333.392 109.342 333.319 109.706 333.177 110.045C333.036 110.384 332.828 110.691 332.566 110.949C332.305 111.207 331.994 111.411 331.654 111.548C331.313 111.685 330.948 111.753 330.581 111.749Z" fill="#3BDFAB"/>
<path d="M348.643 111.748C348.276 111.753 347.911 111.685 347.57 111.548C347.229 111.411 346.919 111.207 346.658 110.949C346.396 110.691 346.188 110.384 346.047 110.045C345.905 109.706 345.832 109.342 345.832 108.974V90.2148C345.83 89.8494 345.901 89.4874 346.04 89.1494C346.178 88.8113 346.382 88.5041 346.64 88.2451C346.898 87.9862 347.204 87.7808 347.542 87.6406C347.879 87.5004 348.241 87.4282 348.606 87.4282C349.345 87.4282 350.054 87.7218 350.576 88.2444C351.099 88.767 351.393 89.4757 351.393 90.2148V108.974C351.393 109.706 351.104 110.408 350.589 110.927C350.074 111.447 349.375 111.742 348.643 111.748Z" fill="#3BDFAB"/>
<path d="M125.793 278.42V117.633C125.794 116.353 126.163 115.101 126.854 114.025C127.546 112.949 128.532 112.094 129.696 111.562C130.859 111.03 132.151 110.844 133.418 111.025C134.684 111.205 135.872 111.746 136.84 112.582L381.099 324.062" stroke="#263238" stroke-width="2" stroke-linecap="round" stroke-linejoin="round"/>
<path d="M136.268 114.647C136.268 113.378 135.891 112.136 135.186 111.081C134.481 110.025 133.478 109.202 132.305 108.717C131.132 108.231 129.842 108.104 128.596 108.351C127.351 108.599 126.208 109.21 125.31 110.108C124.412 111.006 123.801 112.15 123.553 113.395C123.305 114.64 123.432 115.931 123.918 117.104C124.404 118.276 125.227 119.279 126.283 119.984C127.338 120.69 128.579 121.066 129.849 121.066C131.551 121.066 133.184 120.39 134.388 119.186C135.591 117.982 136.268 116.35 136.268 114.647Z" fill="#3BDFAB" stroke="#263238" stroke-linecap="round" stroke-linejoin="round"/>
<path d="M175.852 357.526L122.435 257.657L136.591 265.42C138.14 266.268 139.963 266.466 141.658 265.97C143.352 265.474 144.781 264.325 145.629 262.776C146.477 261.227 146.675 259.405 146.179 257.71C145.683 256.015 144.534 254.587 142.985 253.739L108.639 234.929C107.657 234.391 106.555 234.11 105.435 234.111C104.316 234.111 103.214 234.395 102.233 234.934C101.252 235.474 100.423 236.252 99.8227 237.197C99.2223 238.142 98.87 239.223 98.7985 240.341L96.1737 282.077C96.118 282.949 96.2347 283.824 96.5172 284.652C96.7997 285.479 97.2423 286.242 97.82 286.898C98.3976 287.555 99.0988 288.091 99.8835 288.476C100.668 288.861 101.521 289.088 102.394 289.143H102.817C104.506 289.14 106.131 288.497 107.364 287.342C108.597 286.188 109.346 284.608 109.46 282.923L110.704 263.865L164.196 363.808C165.029 365.365 166.446 366.528 168.136 367.04C169.827 367.552 171.651 367.371 173.208 366.538C174.766 365.705 175.928 364.288 176.44 362.598C176.952 360.907 176.772 359.083 175.939 357.526H175.852Z" fill="#263238" stroke="#263238" stroke-linecap="round" stroke-linejoin="round"/>
<path d="M175.852 354.602L122.435 254.734L136.591 262.484C137.359 262.933 138.209 263.223 139.091 263.337C139.973 263.452 140.869 263.388 141.726 263.151C142.583 262.913 143.384 262.506 144.081 261.954C144.778 261.402 145.357 260.715 145.785 259.935C146.212 259.156 146.479 258.298 146.569 257.413C146.66 256.528 146.572 255.634 146.311 254.784C146.05 253.934 145.621 253.145 145.05 252.463C144.479 251.781 143.777 251.221 142.985 250.815L108.639 232.006C107.656 231.468 106.553 231.186 105.432 231.188C104.312 231.189 103.21 231.473 102.228 232.014C101.247 232.555 100.418 233.335 99.8185 234.282C99.2189 235.229 98.8681 236.311 98.7985 237.43L96.1737 279.166C96.1164 280.038 96.232 280.913 96.514 281.74C96.796 282.567 97.2388 283.331 97.8168 283.986C98.3949 284.642 99.0969 285.176 99.8823 285.56C100.668 285.943 101.521 286.167 102.394 286.219H102.817C104.506 286.217 106.131 285.573 107.364 284.419C108.597 283.264 109.346 281.685 109.46 279.999L110.704 260.941L164.196 360.884C165.029 362.442 166.446 363.604 168.136 364.116C169.827 364.628 171.651 364.448 173.208 363.615C174.766 362.782 175.928 361.364 176.44 359.674C176.952 357.984 176.772 356.159 175.939 354.602H175.852Z" fill="#3BDFAB" stroke="#263238" stroke-linecap="round" stroke-linejoin="round"/>
<path d="M283.483 437.328C282.217 437.329 280.978 436.966 279.913 436.283L168.699 365.512C167.905 365.071 167.21 364.472 166.656 363.752C166.103 363.032 165.703 362.206 165.48 361.325C165.258 360.445 165.218 359.528 165.363 358.631C165.508 357.735 165.835 356.877 166.324 356.112C166.813 355.347 167.454 354.689 168.206 354.181C168.959 353.672 169.807 353.323 170.7 353.155C171.593 352.987 172.51 353.003 173.396 353.203C174.282 353.402 175.118 353.781 175.852 354.316L287.066 425.1C288.28 425.874 289.209 427.022 289.716 428.37C290.222 429.718 290.278 431.194 289.874 432.576C289.47 433.958 288.629 435.173 287.477 436.036C286.324 436.9 284.923 437.366 283.483 437.366V437.328Z" fill="#263238" stroke="#263238" stroke-linecap="round" stroke-linejoin="round"/>
<path d="M283.483 434.405C282.219 434.404 280.982 434.046 279.913 433.372L168.699 362.589C167.905 362.148 167.21 361.548 166.656 360.828C166.103 360.108 165.703 359.283 165.48 358.402C165.258 357.521 165.218 356.605 165.363 355.708C165.508 354.811 165.835 353.954 166.324 353.189C166.813 352.423 167.454 351.766 168.206 351.258C168.959 350.749 169.807 350.4 170.7 350.232C171.593 350.063 172.51 350.08 173.396 350.279C174.282 350.479 175.118 350.858 175.852 351.393L287.066 422.164C288.28 422.939 289.209 424.086 289.716 425.434C290.222 426.782 290.278 428.258 289.874 429.64C289.47 431.023 288.629 432.237 287.477 433.1C286.324 433.964 284.923 434.43 283.483 434.43V434.405Z" fill="#3BDFAB" stroke="#263238" stroke-linecap="round" stroke-linejoin="round"/>
<path d="M386.884 472.098C386.191 472.1 385.502 471.991 384.844 471.775L279.104 437.776C277.423 437.235 276.026 436.048 275.22 434.477C274.414 432.906 274.265 431.079 274.806 429.398C275.347 427.717 276.534 426.32 278.105 425.514C279.676 424.708 281.503 424.559 283.184 425.1L388.924 459.111C390.432 459.599 391.716 460.608 392.545 461.958C393.375 463.309 393.695 464.91 393.449 466.476C393.204 468.041 392.407 469.467 391.204 470.498C390 471.528 388.469 472.096 386.884 472.098Z" fill="#263238" stroke="#263238" stroke-linecap="round" stroke-linejoin="round"/>
<path d="M386.884 469.187C386.192 469.183 385.504 469.074 384.844 468.864L279.104 434.853C277.472 434.273 276.131 433.081 275.364 431.529C274.597 429.977 274.465 428.187 274.996 426.54C275.527 424.892 276.679 423.516 278.208 422.703C279.736 421.891 281.521 421.706 283.184 422.189L388.924 456.187C390.425 456.682 391.702 457.695 392.526 459.044C393.35 460.393 393.667 461.991 393.422 463.553C393.177 465.115 392.385 466.539 391.188 467.571C389.99 468.603 388.465 469.175 386.884 469.187Z" fill="#3BDFAB" stroke="#263238" stroke-linecap="round" stroke-linejoin="round"/>
<path d="M386.884 472.098C385.251 472.096 383.676 471.494 382.459 470.407C381.241 469.319 380.465 467.822 380.279 466.2C380.094 464.578 380.51 462.944 381.451 461.61C382.391 460.275 383.789 459.332 385.379 458.961L518.649 427.712C520.368 427.309 522.176 427.606 523.676 428.537C525.176 429.468 526.245 430.957 526.648 432.676C527.05 434.394 526.753 436.203 525.822 437.703C524.892 439.203 523.403 440.272 521.684 440.674L388.414 471.924C387.913 472.043 387.399 472.101 386.884 472.098Z" fill="#263238" stroke="#263238" stroke-linecap="round" stroke-linejoin="round"/>
<path d="M386.884 469.187C385.251 469.185 383.676 468.583 382.459 467.496C381.241 466.408 380.465 464.911 380.279 463.289C380.094 461.667 380.51 460.033 381.451 458.699C382.391 457.364 383.789 456.421 385.379 456.05L518.649 424.801C519.512 424.563 520.414 424.503 521.302 424.622C522.189 424.741 523.044 425.039 523.814 425.496C524.584 425.953 525.253 426.561 525.783 427.283C526.312 428.006 526.69 428.827 526.895 429.699C527.099 430.571 527.125 431.475 526.972 432.357C526.819 433.24 526.489 434.082 526.002 434.834C525.516 435.585 524.883 436.231 524.141 436.733C523.399 437.234 522.563 437.58 521.684 437.751L388.414 468.988C387.914 469.116 387.4 469.182 386.884 469.187Z" fill="#3BDFAB" stroke="#263238" stroke-linecap="round" stroke-linejoin="round"/>
<path d="M179.41 359.728C179.397 358.011 178.878 356.336 177.916 354.913C176.955 353.491 175.594 352.384 174.006 351.733C172.417 351.082 170.671 350.914 168.988 351.252C167.304 351.59 165.759 352.418 164.545 353.633C163.33 354.847 162.502 356.393 162.164 358.076C161.826 359.759 161.994 361.505 162.645 363.094C163.296 364.682 164.403 366.043 165.825 367.004C167.248 367.966 168.923 368.486 170.64 368.498C171.794 368.506 172.938 368.285 174.006 367.847C175.073 367.409 176.043 366.764 176.859 365.948C177.676 365.131 178.321 364.161 178.759 363.094C179.197 362.026 179.418 360.882 179.41 359.728Z" fill="#263238" stroke="#263238" stroke-linecap="round" stroke-linejoin="round"/>
<path d="M292.066 430.25C292.079 428.513 291.575 426.811 290.619 425.361C289.663 423.91 288.297 422.776 286.696 422.103C285.094 421.43 283.329 421.247 281.624 421.578C279.918 421.91 278.35 422.74 277.117 423.964C275.884 425.188 275.043 426.751 274.699 428.454C274.356 430.157 274.526 431.923 275.188 433.529C275.85 435.136 276.974 436.509 278.417 437.475C279.861 438.442 281.559 438.958 283.296 438.958C285.611 438.958 287.833 438.042 289.476 436.411C291.119 434.78 292.05 432.565 292.066 430.25Z" fill="#263238" stroke="#263238" stroke-linecap="round" stroke-linejoin="round"/>
<path d="M387.568 474.312C392.412 474.312 396.339 470.386 396.339 465.542C396.339 460.699 392.412 456.772 387.568 456.772C382.725 456.772 378.798 460.699 378.798 465.542C378.798 470.386 382.725 474.312 387.568 474.312Z" fill="#263238" stroke="#263238" stroke-linecap="round" stroke-linejoin="round"/>
<path d="M127.933 266.079L118.814 281.629" stroke="#263238" stroke-width="2" stroke-linecap="round" stroke-linejoin="round"/>
<path d="M131.155 271.976L122.036 287.526" stroke="#263238" stroke-width="2" stroke-linecap="round" stroke-linejoin="round"/>
<path d="M133.83 276.802L124.711 292.365" stroke="#263238" stroke-width="2" stroke-linecap="round" stroke-linejoin="round"/>
<path d="M384.495 364.903C387.031 364.903 389.086 357.562 389.086 348.507C389.086 339.452 387.031 332.111 384.495 332.111C381.96 332.111 379.905 339.452 379.905 348.507C379.905 357.562 381.96 364.903 384.495 364.903Z" stroke="#263238" stroke-width="2" stroke-linecap="round" stroke-linejoin="round"/>
<path d="M386.946 374.382C389.481 374.382 391.537 366.016 391.537 355.697C391.537 345.378 389.481 337.012 386.946 337.012C384.411 337.012 382.356 345.378 382.356 355.697C382.356 366.016 384.411 374.382 386.946 374.382Z" stroke="#263238" stroke-width="2" stroke-linecap="round" stroke-linejoin="round"/>
<path d="M383.326 336.415C383.326 336.415 378.885 381.896 384.433 390.218C389.982 398.54 392.196 368.585 390.529 338.082" stroke="#263238" stroke-width="2" stroke-linecap="round" stroke-linejoin="round"/>
<path d="M387.904 340.645C387.904 340.645 413.655 370.849 417.76 371.197C421.865 371.546 431.842 369.132 431.842 369.132L430.81 361.93L416.043 359.18L394.423 338.928C394.423 338.928 389.957 330.344 387.892 329.66C385.827 328.976 383.438 327.259 381.373 327.259C379.308 327.259 377.641 335.843 379.656 337.895C381.672 339.948 387.904 340.645 387.904 340.645Z" fill="white" stroke="#263238" stroke-linecap="round" stroke-linejoin="round"/>
<path d="M443.461 298.336C443.461 298.336 436.395 298.013 439.928 290.312C443.461 282.612 453.737 289.666 453.737 289.666C453.737 289.666 455.988 287.103 465.94 292.875C475.892 298.647 467.868 315.678 467.868 321.139C467.868 326.6 479.064 328.852 490.037 339.799C501.009 350.746 497.09 366.781 490.671 371.595C484.252 376.41 485.857 381.547 489.713 388.937C493.57 396.326 486.815 409.164 468.839 409.811C450.863 410.458 438.647 398.254 441.533 385.727C444.419 373.2 458.887 353.296 455.988 345.919C453.09 338.542 446.36 329.859 445.066 322.793C443.772 315.727 445.389 305.775 446.036 302.889C446.683 300.003 443.461 298.336 443.461 298.336Z" fill="#263238" stroke="#263238" stroke-linecap="round" stroke-linejoin="round"/>
<path d="M479.002 400.568C480.722 400.475 482.396 399.981 483.891 399.125" stroke="white" stroke-linecap="round" stroke-linejoin="round"/>
<path d="M457.021 321.176C457.021 321.176 463.465 332.994 473.193 337.348C482.921 341.702 492.487 354.54 487.648 364.169C482.809 373.797 465.069 373.312 465.604 385.677C465.915 392.756 469.336 397.545 473.728 399.536" stroke="white" stroke-linecap="round" stroke-linejoin="round"/>
<path d="M453.251 295.375C453.251 295.375 451.112 307.741 453.799 315.279" stroke="white" stroke-linecap="round" stroke-linejoin="round"/>
<path d="M494.988 361.133C494.745 362.665 494.067 364.094 493.035 365.251" stroke="white" stroke-linecap="round" stroke-linejoin="round"/>
<path d="M466.04 305.228C464.082 310.114 463.385 315.415 464.012 320.641C465.617 330.854 478.517 338.368 485.508 343.207C489.454 346.033 492.482 349.957 494.216 354.49" stroke="white" stroke-linecap="round" stroke-linejoin="round"/>
<path d="M468.304 300.215C468.304 300.215 467.931 300.849 467.408 301.969" stroke="white" stroke-linecap="round" stroke-linejoin="round"/>
<path d="M370.625 436.644C370.625 436.644 366.321 440.774 366.321 443.623C366.321 446.472 379.159 469.996 383.55 479.052C387.941 488.108 406.042 515.24 405.009 517.827C403.977 520.415 395.443 527.655 393.888 528.949C392.333 530.243 396.475 530.504 400.618 529.981C404.76 529.459 409.139 527.145 409.4 525.851C409.791 523.647 410.776 521.591 412.249 519.905C414.053 518.089 417.673 516.285 416.13 513.959C414.588 511.632 411.217 512.404 409.662 509.816C408.107 507.229 403.865 496.132 400.506 484.215C397.147 472.297 396.214 468.714 392.855 461.524C390.342 456.505 387.216 451.817 383.55 447.566L370.625 436.644Z" fill="#263238" stroke="#263238" stroke-linecap="round" stroke-linejoin="round"/>
<path d="M409.662 509.829C407.707 505.87 406.044 501.775 404.686 497.575C402.662 499.802 400.088 501.458 397.222 502.377C401.812 510.04 405.544 516.633 405.009 517.84C403.977 520.427 395.443 527.667 393.888 528.961C392.333 530.255 396.475 530.516 400.618 529.994C404.76 529.471 409.139 527.145 409.4 525.864C409.791 523.659 410.776 521.603 412.249 519.917C414.053 518.101 417.673 516.297 416.13 513.971C414.588 511.645 411.217 512.416 409.662 509.829Z" fill="white" stroke="#263238" stroke-linecap="round" stroke-linejoin="round"/>
<path d="M416.131 513.971C414.949 512.205 412.747 512.217 411.067 511.209C410.172 515.539 407.684 516.857 407.497 515.862C407.497 515.862 405.818 513.486 403.628 513.747C404.661 515.85 405.208 517.33 405.009 517.84C403.977 520.427 395.443 527.668 393.888 528.961C393.216 529.521 393.627 529.894 394.647 530.081C396.618 530.296 398.609 530.25 400.568 529.944C404.698 529.434 409.089 527.095 409.351 525.814C409.351 525.491 409.512 525.068 409.649 524.57C410.103 522.811 410.978 521.188 412.2 519.843C414.053 518.101 417.673 516.26 416.131 513.971Z" fill="#263238" stroke="#263238" stroke-linecap="round" stroke-linejoin="round"/>
<path d="M441.272 398.006C441.509 390.918 441.318 383.822 440.699 376.758L422.512 374.531L404.71 394.186C397.444 399.582 390.952 405.948 385.416 413.108C378.733 421.779 372.763 430.977 367.565 440.613L383.55 447.517C388.821 441.472 394.547 435.841 400.68 430.673C409.388 423.483 411.391 420.534 411.391 420.534L394.485 453.936C391.997 459.248 391.076 465.132 389.994 468.528C388.178 474.213 377.554 505.4 374.494 513.15C372.69 517.71 370.527 522.12 368.025 526.337C364.133 527.958 360.054 529.09 355.883 529.708C348.892 530.74 346.317 532.544 348.121 534.099C349.925 535.654 358.981 537.197 362.601 536.164C366.221 535.132 372.429 533.577 373.2 531.512C373.751 529.66 374.098 527.754 374.232 525.827C374.232 525.827 384.321 514.195 390.529 505.923C396.736 497.65 406.216 473.877 409.064 467.359C413.121 458.817 418.443 450.937 424.851 443.984C440.077 427.837 440.264 420.124 441.272 398.006Z" fill="#263238" stroke="#263238" stroke-linecap="round" stroke-linejoin="round"/>
<path d="M411.391 420.534L418.171 400.829" stroke="white" stroke-linecap="round" stroke-linejoin="round"/>
<path d="M416.889 404.337L414.339 393.813" stroke="white" stroke-linecap="round" stroke-linejoin="round"/>
<path d="M362.601 536.164C366.221 535.132 372.429 533.577 373.2 531.512C373.751 529.66 374.098 527.754 374.233 525.826C374.233 525.826 380.166 518.972 385.74 512.043C382.337 511.892 379.031 510.859 376.148 509.045L374.444 513.15C372.641 517.71 370.478 522.119 367.975 526.337C364.083 527.958 360.005 529.09 355.834 529.708C348.843 530.74 346.267 532.544 348.071 534.099C349.875 535.654 358.981 537.197 362.601 536.164Z" fill="white" stroke="#263238" stroke-linecap="round" stroke-linejoin="round"/>
<path d="M452.057 329.585C452.057 329.585 444.817 334.76 436.806 340.184C428.794 345.608 426.456 348.196 426.207 353.109C425.958 358.023 427.451 365.786 426.456 368.112C425.461 370.438 419.738 374.568 421.803 378.188C423.868 381.809 441.197 378.972 441.197 378.972C447.147 372.515 452.69 365.692 457.792 358.546C464.522 348.718 464.261 338.119 462.196 334.238C460.131 330.357 456.449 326.998 452.057 329.585Z" fill="white"/>
<path d="M441.197 378.972C447.147 372.515 452.69 365.693 457.792 358.546C464.522 348.718 464.261 338.119 462.196 334.238C460.342 330.78 457.22 327.744 453.488 328.963L454.209 330.382C454.209 330.382 460.056 335.358 457.133 345.869C454.209 356.381 434.057 364.529 434.057 364.529L443.698 371.259L432.601 379.88C437.042 379.644 441.197 378.972 441.197 378.972Z" fill="#3BDFAB"/>
<path d="M452.057 329.585C452.057 329.585 444.817 334.76 436.806 340.184C428.794 345.608 426.456 348.196 426.207 353.109C425.958 358.023 427.451 365.786 426.456 368.112C425.461 370.438 419.738 374.568 421.803 378.188C423.868 381.809 441.197 378.972 441.197 378.972C447.147 372.515 452.69 365.692 457.792 358.546C464.522 348.718 464.261 338.119 462.196 334.238C460.131 330.357 456.449 326.998 452.057 329.585Z" stroke="#263238" stroke-linecap="round" stroke-linejoin="round"/>
<path d="M373.2 531.512C373.627 530.193 373.918 528.834 374.071 527.456C372.634 528.321 371.132 529.073 369.58 529.708C369.667 529.042 369.534 528.365 369.202 527.782C368.87 527.198 368.356 526.739 367.739 526.473C363.926 528.008 359.947 529.094 355.883 529.708C348.892 530.74 346.317 532.544 348.121 534.099C349.925 535.654 358.981 537.197 362.601 536.164C366.221 535.132 372.429 533.577 373.2 531.512Z" fill="#263238" stroke="#263238" stroke-linecap="round" stroke-linejoin="round"/>
<path d="M425.448 355.187C425.448 355.187 411.826 349.713 408.741 348.121C401.601 344.389 386.262 331.414 386.262 331.414C385.779 329.521 385.459 327.59 385.304 325.642C385.304 323.714 382.418 321.786 381.124 320.815C379.831 319.845 375.663 318.576 375.663 320.815C375.663 323.055 374.058 324.025 374.058 325.319C374.058 326.612 373.113 328.628 376.957 331.738C378.377 332.814 379.878 333.779 381.448 334.624C381.448 334.624 392.37 345.546 396.861 350.684C401.352 355.821 413.879 367.391 418.009 368.672C422.139 369.953 429.205 363.858 429.205 363.858L425.448 355.187Z" fill="white" stroke="#263238" stroke-linecap="round" stroke-linejoin="round"/>
<path d="M460.392 339.898C460.392 339.898 457.232 335.408 452.928 337.298C448.624 339.189 424.03 354.54 424.03 354.54L426.804 367.839C426.804 367.839 448.624 360.499 453.637 357.377C456.499 355.692 458.827 353.234 460.355 350.286" fill="white"/>
<path d="M460.392 339.898C460.392 339.898 457.232 335.408 452.928 337.298C448.624 339.189 424.03 354.54 424.03 354.54L426.804 367.839C426.804 367.839 448.624 360.499 453.637 357.377C456.499 355.692 458.827 353.234 460.355 350.286" stroke="#263238" stroke-linecap="round" stroke-linejoin="round"/>
<path d="M441.969 323.117C442.858 325.786 443.278 328.589 443.213 331.402C443.059 333.738 442.446 336.021 441.409 338.119L452.008 329.585C452.008 329.585 451.746 326.737 451.236 322.121C450.726 317.506 450.714 315.404 450.714 315.404L441.969 323.117Z" fill="white" stroke="#263238" stroke-linecap="round" stroke-linejoin="round"/>
<path d="M450.328 294.032C450.328 294.032 444.245 294.716 441.297 298C438.348 301.285 438.025 304.22 435.985 305.925C433.944 307.629 431.668 307.007 432.738 308.537C433.808 310.067 435.226 312.02 435.226 312.02C435.226 312.02 433.186 320.106 433.335 321.835C433.484 323.565 436.097 324.025 439.555 324.323C443.013 324.622 450.875 323.751 452.07 322.831C452.971 322.105 453.831 321.328 454.645 320.504C454.645 320.504 444.506 303.972 450.328 294.032Z" fill="white"/>
<path d="M452.157 322.781C453.058 322.055 453.918 321.278 454.732 320.455C454.732 320.455 445.364 305.34 449.694 295.326C448.114 298.597 444.245 307.368 445.053 312.854C446.074 319.708 447.753 321.288 449.445 322.868L450.054 323.465C450.789 323.36 451.501 323.129 452.157 322.781Z" fill="#3BDFAB"/>
<path d="M441.147 307.082C440.861 307.803 440.388 308.326 440.09 308.189C439.791 308.052 439.766 307.38 440.09 306.659C440.413 305.937 440.849 305.415 441.147 305.551C441.446 305.688 441.433 306.36 441.147 307.082Z" fill="#263238"/>
<path d="M435.835 314.856C435.835 314.856 439.07 315.615 440.811 314.297" stroke="#263238" stroke-width="0.75" stroke-linecap="round" stroke-linejoin="round"/>
<path d="M440.376 301.981C440.376 301.981 442.976 300.463 443.921 302.603" stroke="#263238" stroke-width="0.75" stroke-linecap="round" stroke-linejoin="round"/>
<path d="M450.328 294.032C450.328 294.032 444.245 294.716 441.297 298C438.348 301.285 438.025 304.22 435.985 305.925C433.944 307.629 431.668 307.007 432.738 308.537C433.808 310.067 435.226 312.02 435.226 312.02C435.226 312.02 433.186 320.106 433.335 321.835C433.484 323.565 436.097 324.025 439.555 324.323C443.013 324.622 450.875 323.751 452.07 322.831C452.971 322.105 453.831 321.328 454.645 320.504C454.645 320.504 444.506 303.972 450.328 294.032Z" stroke="#263238" stroke-linecap="round" stroke-linejoin="round"/>
<path d="M453.09 325.965L439.903 334.947L438.61 343.294L457.232 329.585L453.09 325.965Z" fill="white" stroke="#263238" stroke-linecap="round" stroke-linejoin="round"/>
</svg>
