<svg width="658" height="658" viewBox="0 0 658 658" fill="none" xmlns="http://www.w3.org/2000/svg">
<path d="M572.131 508.331H97.4762C97.4762 508.331 78.6047 514.556 68.1952 465.482C57.7856 416.409 111.36 403.341 124.099 361.018C136.838 318.696 81.263 327.605 85.9348 269.688C90.6066 211.771 166.935 210.652 203.98 218.456C241.025 226.26 236.393 199.519 279.229 154.959C322.065 110.399 386.904 114.861 419.304 149.392C451.704 183.924 441.308 219.561 481.827 219.561C522.347 219.561 559.392 227.365 583.699 301.983C608.005 376.6 563.577 410.71 564.38 444.347C565.059 465.863 567.653 487.276 572.131 508.331Z" fill="#3BDFAB"/>
<path opacity="0.7" d="M572.131 508.331H97.4762C97.4762 508.331 78.6047 514.556 68.1952 465.482C57.7856 416.409 111.36 403.341 124.099 361.018C136.838 318.696 81.263 327.605 85.9348 269.688C90.6066 211.771 166.935 210.652 203.98 218.456C241.025 226.26 236.393 199.519 279.229 154.959C322.065 110.399 386.904 114.861 419.304 149.392C451.704 183.924 441.308 219.561 481.827 219.561C522.347 219.561 559.392 227.365 583.699 301.983C608.005 376.6 563.577 410.71 564.38 444.347C565.059 465.863 567.653 487.276 572.131 508.331Z" fill="white"/>
<path d="M211.31 467.641L216.074 465.469L215.061 459.758L209.797 459.35C209.126 457.586 208.242 455.911 207.165 454.362L209.876 449.796L205.77 445.69L201.164 448.427C198.512 446.629 195.513 445.405 192.36 444.834L191.044 439.57H185.24L183.924 444.834C182.11 445.176 180.343 445.733 178.66 446.492L174.502 442.9L169.764 446.256L171.725 451.401C170.463 452.708 169.363 454.162 168.448 455.731L162.973 455.165L160.934 460.6L165.461 463.679C165.244 464.949 165.134 466.234 165.132 467.522C165.132 468.075 165.132 468.614 165.132 469.154L160.368 471.786L161.881 477.405L167.264 477.326C168.056 479.011 169.05 480.593 170.225 482.038L167.961 486.92L172.409 490.657L176.726 487.565C178.358 488.505 180.099 489.244 181.911 489.763L182.779 495.027L188.557 495.54L190.307 490.605C192.205 490.439 194.075 490.036 195.873 489.407L199.519 493.118L204.546 490.21L203.23 485.209C204.682 483.968 205.977 482.554 207.086 480.998L212.192 481.946L214.653 476.682L210.705 473.365C211.141 471.489 211.344 469.566 211.31 467.641ZM202.717 467.535C202.717 470.398 201.868 473.197 200.277 475.578C198.686 477.958 196.426 479.814 193.78 480.909C191.135 482.005 188.225 482.292 185.417 481.733C182.608 481.175 180.029 479.796 178.005 477.771C175.98 475.747 174.601 473.168 174.043 470.359C173.484 467.551 173.771 464.641 174.867 461.996C175.962 459.35 177.818 457.09 180.198 455.499C182.579 453.908 185.378 453.059 188.241 453.059C192.071 453.073 195.739 454.605 198.443 457.318C201.146 460.031 202.664 463.705 202.664 467.535H202.717Z" fill="white"/>
<path d="M175.976 414.053L180.739 411.882L179.726 406.157L174.462 405.749C173.794 403.988 172.91 402.318 171.83 400.775L174.541 396.195L170.435 392.089L165.816 394.8C163.163 393.003 160.165 391.779 157.012 391.207L155.696 385.943H149.892L148.576 391.207C146.761 391.544 144.993 392.101 143.312 392.866L139.154 389.273L134.403 392.602L136.364 397.735C135.084 399.042 133.962 400.495 133.021 402.064L127.652 401.564L125.665 407.026L130.192 410.092C129.975 411.366 129.865 412.656 129.863 413.948C129.863 414.501 129.863 415.04 129.929 415.58L125.165 418.212L126.665 423.818L132.061 423.752C132.856 425.431 133.85 427.008 135.022 428.45L132.692 433.293L137.14 437.017L141.457 433.938C143.087 434.88 144.829 435.614 146.642 436.122L147.51 441.386L153.288 441.887L155.038 436.965C156.937 436.794 158.807 436.387 160.605 435.754L164.25 439.465L169.277 436.557L167.895 431.556C169.355 430.323 170.654 428.913 171.764 427.358L176.87 428.292L179.331 423.028L175.318 419.725C175.766 417.868 175.987 415.963 175.976 414.053ZM167.382 413.948C167.382 416.811 166.533 419.61 164.942 421.99C163.352 424.371 161.091 426.226 158.446 427.322C155.801 428.418 152.89 428.704 150.082 428.146C147.274 427.587 144.695 426.208 142.67 424.184C140.645 422.159 139.267 419.58 138.708 416.772C138.15 413.964 138.436 411.053 139.532 408.408C140.628 405.763 142.483 403.502 144.864 401.911C147.244 400.321 150.043 399.472 152.906 399.472C156.745 399.472 160.427 400.997 163.142 403.712C165.857 406.427 167.382 410.109 167.382 413.948Z" fill="white"/>
<path d="M250.474 321.907L262.016 316.643L259.568 302.772L246.829 301.785C245.212 297.515 243.073 293.462 240.46 289.718L247.04 278.624L237.077 268.662L225.891 275.242C219.461 270.883 212.19 267.915 204.546 266.53L201.309 253.764H187.227L183.99 266.622C179.623 267.442 175.372 268.79 171.33 270.636L161.263 261.924L149.721 270.004L154.485 282.453C151.38 285.63 148.663 289.164 146.392 292.981L133.14 291.665L128.323 304.825L139.299 312.274C138.77 315.365 138.501 318.495 138.496 321.631C138.496 322.947 138.496 324.263 138.654 325.579L127.112 332.027L130.758 345.634L143.826 345.463C145.744 349.544 148.153 353.375 150.998 356.873L145.365 368.599L156.143 377.653L166.671 370.165C170.637 372.431 174.867 374.199 179.266 375.429L181.358 388.036L195.387 389.273L199.611 377.324C204.216 376.918 208.752 375.936 213.113 374.402L221.97 383.404L234.156 376.363L230.813 364.229C234.343 361.222 237.49 357.792 240.183 354.017L252.567 356.307L258.515 343.542L248.724 335.58C249.862 331.111 250.45 326.519 250.474 321.907ZM229.642 321.67C229.642 328.625 227.58 335.423 223.716 341.206C219.852 346.988 214.36 351.495 207.935 354.157C201.51 356.818 194.439 357.515 187.618 356.158C180.797 354.801 174.532 351.452 169.614 346.534C164.696 341.617 161.347 335.351 159.991 328.53C158.634 321.709 159.33 314.639 161.992 308.214C164.653 301.788 169.16 296.296 174.943 292.433C180.725 288.569 187.524 286.506 194.478 286.506C199.097 286.505 203.67 287.413 207.937 289.18C212.204 290.946 216.081 293.536 219.347 296.802C222.612 300.067 225.202 303.944 226.969 308.211C228.735 312.478 229.644 317.052 229.642 321.67Z" fill="white"/>
<path d="M541.113 280.045L545.877 277.873L544.824 272.149L539.56 271.741C538.887 269.983 538.003 268.312 536.928 266.766L539.626 262.2L535.612 258.094L531.006 260.831C528.357 259.028 525.357 257.804 522.202 257.239L520.886 251.975H515.082L513.766 257.239C511.951 257.574 510.183 258.131 508.502 258.897L504.331 255.304L499.567 258.634L501.528 263.779C500.252 265.082 499.134 266.531 498.198 268.096L492.737 267.53L490.749 272.991L495.277 276.057C495.06 277.331 494.95 278.621 494.948 279.913C494.948 280.466 494.948 281.006 494.948 281.545L490.184 284.177L491.684 289.783L497.079 289.717C497.867 291.402 498.857 292.984 500.027 294.429L497.711 299.258L502.159 302.996L506.463 299.903C508.119 300.851 509.888 301.59 511.727 302.101L512.582 307.365L518.372 307.865L520.109 302.943C522.008 302.777 523.878 302.375 525.676 301.746L529.335 305.444L534.362 302.549L532.98 297.548C534.436 296.307 535.735 294.892 536.849 293.336L541.955 294.271L544.403 289.007L540.455 285.691C540.909 283.843 541.13 281.947 541.113 280.045ZM532.532 279.94C532.532 282.803 531.683 285.601 530.093 287.982C528.502 290.363 526.241 292.218 523.596 293.314C520.951 294.409 518.04 294.696 515.232 294.137C512.424 293.579 509.845 292.2 507.82 290.176C505.796 288.151 504.417 285.572 503.859 282.764C503.3 279.956 503.587 277.045 504.682 274.4C505.778 271.755 507.633 269.494 510.014 267.903C512.395 266.313 515.193 265.464 518.056 265.464C521.896 265.464 525.578 266.989 528.293 269.704C531.007 272.418 532.532 276.1 532.532 279.94Z" fill="white"/>
<path d="M349.122 542.192C396.575 542.192 435.043 535.782 435.043 527.874C435.043 519.966 396.575 513.556 349.122 513.556C301.668 513.556 263.2 519.966 263.2 527.874C263.2 535.782 301.668 542.192 349.122 542.192Z" fill="#3BDFAB"/>
<path opacity="0.5" d="M349.122 542.192C396.575 542.192 435.043 535.782 435.043 527.874C435.043 519.966 396.575 513.556 349.122 513.556C301.668 513.556 263.2 519.966 263.2 527.874C263.2 535.782 301.668 542.192 349.122 542.192Z" fill="white"/>
<path d="M341.699 214.508C331.99 232.279 329.384 253.072 334.409 272.688C342.844 305.667 366.256 343.831 366.256 343.831L395.418 334.619C395.418 334.619 393.115 279.782 380.837 253.843C368.559 227.905 345.924 213.758 341.699 214.508Z" fill="#263238" stroke="#263238" stroke-linecap="round" stroke-linejoin="round"/>
<path d="M361.65 212.574C351.922 231.09 349.328 252.532 354.359 272.833C362.808 307.049 386.22 346.529 386.22 346.529L415.382 336.896C415.382 336.896 413.079 280.111 400.801 253.238C388.523 226.365 365.848 211.876 361.65 212.574Z" fill="#3BDFAB"/>
<path opacity="0.29" d="M360.584 227.668C351.956 244.089 349.656 263.107 354.122 281.111C361.61 311.379 382.377 346.463 382.377 346.463L408.249 337.962C408.249 337.962 406.21 287.572 395.313 263.753C384.417 239.933 364.295 227.023 360.584 227.668Z" fill="black"/>
<path d="M361.65 212.574C351.922 231.09 349.328 252.532 354.359 272.833C362.808 307.049 386.22 346.529 386.22 346.529L415.382 336.896C415.382 336.896 413.079 280.111 400.801 253.238C388.523 226.365 365.848 211.876 361.65 212.574Z" stroke="#263238" stroke-linecap="round" stroke-linejoin="round"/>
<path d="M361.65 212.573C355.589 223.957 352.259 236.595 351.925 249.487C357.488 249.725 363.06 249.328 368.533 248.303C377.114 246.79 385.33 243.665 392.747 239.091C380.469 221.351 365.058 211.955 361.65 212.573Z" fill="#263238" stroke="#263238" stroke-linecap="round" stroke-linejoin="round"/>
<path d="M415.027 330.566L383.377 341.528C385.141 344.687 386.22 346.503 386.22 346.503L415.382 336.896C415.382 336.896 415.277 334.54 415.027 330.566Z" fill="#263238" stroke="#263238" stroke-linecap="round" stroke-linejoin="round"/>
<path d="M288.822 511.042C288.822 511.042 277.768 519.083 268.727 521.57C259.686 524.057 265.713 529.098 272.741 529.098C279.768 529.098 291.336 526.584 296.863 526.584C302.39 526.584 307.391 528.598 309.431 523.571C311.471 518.543 309.931 515.53 309.931 515.53C309.931 515.53 295.863 511.542 288.822 511.042Z" fill="white" stroke="#263238" stroke-linecap="round" stroke-linejoin="round"/>
<path d="M297.837 523.4C289.112 523.4 285.427 526.163 276.465 526.848C272.257 527.314 268.02 526.264 264.516 523.887C262.832 526.347 267.516 529.151 272.741 529.151C279.782 529.151 291.336 526.637 296.863 526.637C302.39 526.637 307.391 528.65 309.431 523.623C309.891 522.497 310.205 521.316 310.365 520.11C306.461 522.06 302.196 523.18 297.837 523.4Z" fill="white" stroke="#263238" stroke-linecap="round" stroke-linejoin="round"/>
<path d="M373.481 513.516C373.481 513.516 366.822 524.558 362.953 527.769C359.084 530.98 356.518 534.664 360.874 534.901C365.229 535.138 374.218 532.598 382.495 529.15C390.773 525.702 398.814 516.74 398.814 515.359C398.814 513.977 394.682 507.765 394.682 507.765C394.682 507.765 379.232 510.305 373.481 513.516Z" fill="white" stroke="#263238" stroke-linecap="round" stroke-linejoin="round"/>
<path d="M397.919 513.24C392.511 519.121 385.906 523.775 378.547 526.887C368.388 531.243 361.755 532.427 358.689 532.756C358.281 533.967 358.794 534.836 360.834 534.941C365.203 535.165 374.178 532.638 382.456 529.19C390.734 525.742 398.774 516.78 398.774 515.398C398.621 514.633 398.332 513.902 397.919 513.24Z" fill="white" stroke="#263238" stroke-linecap="round" stroke-linejoin="round"/>
<path d="M312.445 340.699L306.417 360.294C306.417 360.294 284.256 408.026 279.782 420.594C275.307 433.161 285.809 455.27 286.822 469.285C287.835 483.301 287.322 502.449 287.322 502.449C286.765 502.867 286.299 503.394 285.953 503.998C285.607 504.602 285.388 505.271 285.309 505.962V512.542L311.431 518.57C311.431 518.57 312.445 506.015 311.431 499.488C310.418 492.96 309.431 452.243 309.431 446.216C309.431 440.189 307.418 428.134 307.418 428.134L326.513 403.012C326.513 403.012 320.985 432.648 322.999 438.175C325.012 443.702 342.594 464.811 347.108 468.825C351.622 472.839 374.744 504.002 374.744 504.002C374.744 504.002 371.23 507.015 371.23 509.529C371.375 511.899 371.71 514.253 372.231 516.569L395.853 509.989C395.853 509.989 392.839 500.448 387.812 487.881C382.785 475.313 354.649 431.108 354.649 431.108C354.649 431.108 377.258 374.823 377.258 362.268C377.258 349.714 377.758 340.66 377.758 340.66C377.758 340.66 338.567 351.254 312.445 340.699Z" fill="#263238" stroke="#263238" stroke-linecap="round" stroke-linejoin="round"/>
<path d="M326.513 403.012L332.54 373.362L324.499 362.808" stroke="white" stroke-linecap="round" stroke-linejoin="round"/>
<path d="M288.533 333.79C288.023 333.894 287.493 333.801 287.05 333.529C286.606 333.258 286.282 332.828 286.143 332.326C286.005 331.825 286.061 331.29 286.302 330.829C286.543 330.367 286.95 330.015 287.441 329.842L339.673 310.102C339.925 310.007 340.193 309.963 340.463 309.972C340.732 309.98 340.998 310.042 341.243 310.153C341.489 310.264 341.71 310.423 341.895 310.62C342.079 310.816 342.223 311.048 342.318 311.3C342.413 311.552 342.457 311.821 342.449 312.09C342.44 312.36 342.378 312.625 342.267 312.87C342.156 313.116 341.997 313.337 341.8 313.522C341.604 313.706 341.373 313.85 341.12 313.945L288.901 333.685C288.782 333.731 288.659 333.766 288.533 333.79Z" fill="#263238" stroke="#263238" stroke-linecap="round" stroke-linejoin="round"/>
<path d="M290.731 307.944C290.731 307.944 296.337 309.629 311.379 301.14L315.511 317.393C315.511 317.393 304.838 321.999 289.059 319.828L290.731 307.944Z" fill="white"/>
<path opacity="0.15" d="M290.731 307.944C290.731 307.944 296.337 309.629 311.379 301.14L315.511 317.393C315.511 317.393 304.838 321.999 289.059 319.828L290.731 307.944Z" fill="black"/>
<path d="M290.731 307.944C290.731 307.944 296.337 309.629 311.379 301.14L315.511 317.393C315.511 317.393 304.838 321.999 289.059 319.828L290.731 307.944Z" stroke="#263238" stroke-linecap="round" stroke-linejoin="round"/>
<path d="M290.046 330.211C289.302 330.207 288.579 329.96 287.99 329.506C287.4 329.051 286.976 328.416 286.783 327.697L278.742 297.429C278.628 296.997 278.6 296.547 278.66 296.104C278.72 295.661 278.866 295.235 279.091 294.848C279.316 294.462 279.615 294.124 279.97 293.853C280.326 293.583 280.731 293.385 281.163 293.271C281.595 293.157 282.046 293.129 282.488 293.189C282.931 293.249 283.358 293.395 283.744 293.62C284.13 293.845 284.468 294.144 284.739 294.499C285.01 294.855 285.208 295.26 285.322 295.692L293.363 325.96C293.478 326.389 293.507 326.836 293.449 327.276C293.391 327.716 293.246 328.14 293.024 328.524C292.801 328.908 292.505 329.244 292.152 329.513C291.799 329.783 291.397 329.979 290.967 330.092C290.668 330.175 290.357 330.215 290.046 330.211Z" fill="#3BDFAB" stroke="#263238" stroke-miterlimit="10"/>
<path d="M293.152 301.719C289.309 300.061 286.44 311.813 291.362 315.274C293.994 317.117 295.652 313.616 295.902 311.326C296.152 309.036 296.074 305.062 294.771 303.18C294.373 302.556 293.814 302.051 293.152 301.719Z" fill="white" stroke="#263238" stroke-linecap="round" stroke-linejoin="round"/>
<path d="M291.902 319.248C291.902 319.248 286.204 319.038 284.006 320.946C281.808 322.854 283.44 325.131 284.743 324.894C286.046 324.657 292.099 324.091 293.297 322.841C294.494 321.591 294.508 320.893 291.902 319.248Z" fill="white" stroke="#263238" stroke-linecap="round" stroke-linejoin="round"/>
<path d="M290.362 314.011C290.362 314.011 283.782 313.642 281.242 315.919C278.702 318.196 280.663 321.038 282.177 320.828C283.69 320.617 290.718 319.985 292.086 318.472C293.455 316.959 293.468 316.064 290.362 314.011Z" fill="white" stroke="#263238" stroke-linecap="round" stroke-linejoin="round"/>
<path d="M289.757 308.655C289.757 308.655 281.729 307.181 278.334 309.576C274.939 311.971 276.834 315.722 278.716 315.708C280.597 315.695 289.244 315.998 291.152 314.392C293.06 312.787 293.165 311.642 289.757 308.655Z" fill="white" stroke="#263238" stroke-linecap="round" stroke-linejoin="round"/>
<path d="M289.323 302.272C289.323 302.272 281.308 300.798 277.9 303.193C274.491 305.588 276.413 309.326 278.294 309.313C280.176 309.3 288.822 309.602 290.731 307.997C292.639 306.391 292.731 305.312 289.323 302.272Z" fill="white" stroke="#263238" stroke-linecap="round" stroke-linejoin="round"/>
<path d="M310.3 244.908C310.3 244.908 300.456 262.989 302.325 278.15C304.193 293.31 310.3 308.418 311.892 315.103C313.484 321.788 308.431 337.475 309.497 342.213C310.563 346.95 332.895 349.398 352.043 350.201C371.191 351.003 379.679 345.937 380.758 340.62C381.837 335.304 382.351 336.106 381.548 326.263C380.745 316.419 371.98 264.319 366.664 254.212C361.347 244.105 336.093 235.34 331.829 234.248C327.565 233.156 315.84 234.814 310.3 244.908Z" fill="white"/>
<path opacity="0.15" d="M358.162 257.449L348.069 273.241C348.069 273.241 347.2 280.703 351.148 286.401C353.456 289.768 355.947 293.006 358.61 296.1L339.291 286.006C339.291 286.006 352.03 305.746 355.53 309.694C359.031 313.642 364.308 320.222 359.044 327.697C353.951 334.909 330.803 344.187 328.487 348.358C335.738 349.28 344.16 349.885 352.043 350.214C371.178 351.004 379.679 345.95 380.758 340.633C381.837 335.317 382.351 336.12 381.548 326.276C380.798 317.064 373.06 270.793 367.717 256.646C363.729 255.686 360.308 255.725 358.162 257.449Z" fill="black"/>
<path d="M310.3 244.908C310.3 244.908 300.456 262.989 302.325 278.15C304.193 293.31 310.3 308.418 311.892 315.103C313.484 321.788 308.431 337.475 309.497 342.213C310.563 346.95 332.895 349.398 352.043 350.201C371.191 351.003 379.679 345.937 380.758 340.62C381.837 335.304 382.351 336.106 381.548 326.263C380.745 316.419 371.98 264.319 366.664 254.212C361.347 244.105 336.093 235.34 331.829 234.248C327.565 233.156 315.84 234.814 310.3 244.908Z" stroke="#263238" stroke-linecap="round" stroke-linejoin="round"/>
<path d="M331.04 228.695L311.892 252.883L322.065 267.24L338.949 235.577L331.04 228.695Z" fill="white" stroke="#263238" stroke-linecap="round" stroke-linejoin="round"/>
<path d="M304.272 251.277L304.062 262.187L312.787 256.949L304.272 251.277Z" fill="white" stroke="#263238" stroke-linecap="round" stroke-linejoin="round"/>
<path d="M307.338 242.328L304.272 251.277L316.274 261.963L307.338 242.328Z" fill="white" stroke="#263238" stroke-linecap="round" stroke-linejoin="round"/>
<path d="M302.469 229.905C302.469 229.905 312.208 256.633 314.998 255.791C317.788 254.949 328.921 236.051 329.474 232.406C330.026 228.76 326.131 220.154 326.131 220.154C320.835 221.438 315.698 223.305 310.813 225.72C302.18 229.905 302.469 229.905 302.469 229.905Z" fill="white"/>
<path d="M310.813 225.72L310.444 225.905C310.216 226.664 309.88 227.387 309.444 228.05C306.917 231.827 304.772 233.011 303.772 233.379C303.851 233.59 303.93 233.801 304.022 234.024L323.315 244.776C326.421 239.604 329.197 234.248 329.474 232.445C330.026 228.826 326.131 220.193 326.131 220.193C320.837 221.465 315.699 223.318 310.813 225.72Z" fill="#3BDFAB"/>
<path opacity="0.5" d="M310.813 225.72L310.444 225.905C310.216 226.664 309.88 227.387 309.444 228.05C306.917 231.827 304.772 233.011 303.772 233.379C303.851 233.59 303.93 233.801 304.022 234.024L323.315 244.776C326.421 239.604 329.197 234.248 329.474 232.445C330.026 228.826 326.131 220.193 326.131 220.193C320.837 221.465 315.699 223.318 310.813 225.72Z" fill="white"/>
<path d="M302.469 229.905C302.469 229.905 312.208 256.633 314.998 255.791C317.788 254.949 328.921 236.051 329.474 232.406C330.026 228.76 326.131 220.154 326.131 220.154C320.835 221.438 315.698 223.305 310.813 225.72C302.18 229.905 302.469 229.905 302.469 229.905Z" stroke="#263238" stroke-linecap="round" stroke-linejoin="round"/>
<path d="M302.325 278.15C302.325 278.15 307.904 285.861 335.817 285.585L340.87 293.034C340.87 293.034 318.801 297.824 303.654 285.059L302.325 278.15Z" fill="#263238" stroke="#263238" stroke-linecap="round" stroke-linejoin="round"/>
<path d="M345.121 239.328C345.121 239.328 336.356 240.92 332.106 257.936C327.855 274.952 337.949 297.284 353.899 303.404C369.849 309.523 378.1 298.613 378.1 298.613L375.705 292.77C375.705 292.77 370.125 303.667 356.294 297.824C342.463 291.981 337.146 277.676 338.212 263.516C339.278 249.356 352.043 242.789 352.043 242.789L345.121 239.328Z" fill="#263238" stroke="#263238" stroke-linecap="round" stroke-linejoin="round"/>
<path d="M318.472 344.963C317.898 344.982 317.339 344.78 316.909 344.4C316.479 344.02 316.211 343.49 316.158 342.918C316.106 342.347 316.275 341.777 316.629 341.325C316.983 340.874 317.496 340.574 318.064 340.489L415.119 306.352C415.709 306.24 416.319 306.367 416.815 306.705C417.311 307.044 417.652 307.565 417.764 308.155C417.876 308.745 417.749 309.355 417.411 309.851C417.072 310.347 416.551 310.688 415.961 310.8L318.893 344.937C318.754 344.959 318.613 344.968 318.472 344.963Z" fill="#263238" stroke="#263238" stroke-linecap="round" stroke-linejoin="round"/>
<path d="M321.815 341.081C320.985 341.081 320.178 340.808 319.519 340.303C318.861 339.799 318.386 339.092 318.169 338.291L309.26 304.562C309.102 304.074 309.045 303.559 309.093 303.048C309.14 302.537 309.292 302.041 309.537 301.591C309.783 301.14 310.118 300.744 310.521 300.428C310.925 300.111 311.389 299.88 311.885 299.748C312.38 299.616 312.898 299.587 313.406 299.662C313.913 299.737 314.4 299.915 314.837 300.184C315.273 300.454 315.651 300.809 315.945 301.229C316.24 301.649 316.446 302.125 316.551 302.627L325.526 336.343C325.784 337.305 325.653 338.329 325.16 339.194C324.667 340.059 323.853 340.695 322.894 340.962C322.541 341.049 322.178 341.088 321.815 341.081Z" fill="#3BDFAB" stroke="#263238" stroke-miterlimit="10"/>
<path d="M340.844 322.538C340.844 322.538 329.145 313.511 325.697 311.115C322.249 308.72 314.261 311.905 311.602 311.905C308.944 311.905 305.483 314.537 306.023 316.432C306.546 317.743 307.466 318.856 308.655 319.617C308.655 319.617 306.786 322.815 308.378 325.21C309.261 326.356 309.816 327.721 309.984 329.158C310.634 330.772 311.631 332.223 312.905 333.409C314.498 334.474 317.959 335.001 322.209 335.001C326.46 335.001 333.909 332.079 333.909 332.079L341.357 331.816L340.844 322.538Z" fill="white"/>
<path d="M333.961 332.119L341.41 331.856L341.305 330.026L340.173 324.604C340.173 324.604 327.447 316.708 322.17 317.143C316.893 317.577 313.84 317.538 313.392 325.486C313.274 327.176 313.517 328.871 314.105 330.459C314.693 332.047 315.612 333.492 316.801 334.698C318.61 334.955 320.435 335.078 322.262 335.067C326.513 335.04 333.961 332.119 333.961 332.119Z" fill="#3BDFAB"/>
<path opacity="0.5" d="M333.961 332.119L341.41 331.856L341.305 330.026L340.173 324.604C340.173 324.604 327.447 316.708 322.17 317.143C316.893 317.577 313.84 317.538 313.392 325.486C313.274 327.176 313.517 328.871 314.105 330.459C314.693 332.047 315.612 333.492 316.801 334.698C318.61 334.955 320.435 335.078 322.262 335.067C326.513 335.04 333.961 332.119 333.961 332.119Z" fill="white"/>
<path d="M340.844 322.538C340.844 322.538 329.145 313.511 325.697 311.115C322.249 308.72 314.261 311.905 311.602 311.905C308.944 311.905 305.483 314.537 306.023 316.432C306.546 317.743 307.466 318.856 308.655 319.617C308.655 319.617 306.786 322.815 308.378 325.21C309.261 326.356 309.816 327.721 309.984 329.158C310.634 330.772 311.631 332.223 312.905 333.409C314.498 334.474 317.959 335.001 322.209 335.001C326.46 335.001 333.909 332.079 333.909 332.079L341.357 331.816L340.844 322.538Z" stroke="#263238" stroke-linecap="round" stroke-linejoin="round"/>
<path d="M348.582 247.842C348.582 247.842 339.015 256.607 342.739 268.306C346.463 280.005 361.9 290.902 365.848 296.218C368.752 299.932 371.956 303.4 375.428 306.589C375.428 306.589 363.453 312.445 354.951 316.169C350.127 318.289 345.152 320.048 340.068 321.433L340.331 331.527C340.331 331.527 369.572 332.843 383.127 327.579C396.682 322.315 406.526 315.616 406.526 307.641C406.526 299.666 389.536 284.796 380.482 270.438C371.428 256.08 364.795 248.632 355.767 247.303" fill="white"/>
<path opacity="0.15" d="M383.14 327.592C396.708 322.328 406.539 315.63 406.539 307.655C406.539 299.68 389.536 284.796 380.482 270.438C373.994 260.121 368.73 253.396 362.926 249.922C365.453 252.448 373.165 260.515 373.533 264.911C373.968 270.175 352.03 267.99 355.978 270.622C359.926 273.254 377.916 279.4 385.825 286.414C393.734 293.429 403.815 299.574 399.432 304.838C395.05 310.102 374.428 316.682 359.492 326.342C357.308 327.608 355.493 329.422 354.228 331.606C363.624 331.422 375.731 330.5 383.14 327.592Z" fill="black"/>
<path d="M348.582 247.842C348.582 247.842 339.015 256.607 342.739 268.306C346.463 280.005 361.9 290.902 365.848 296.218C368.752 299.932 371.956 303.4 375.428 306.589C375.428 306.589 363.453 312.445 354.951 316.169C350.127 318.289 345.152 320.048 340.068 321.433L340.331 331.527C340.331 331.527 369.572 332.843 383.127 327.579C396.682 322.315 406.526 315.616 406.526 307.641C406.526 299.666 389.536 284.796 380.482 270.438C371.428 256.08 364.795 248.632 355.767 247.303" stroke="#263238" stroke-linecap="round" stroke-linejoin="round"/>
<path d="M345.661 319.88L346.727 331.579" stroke="#263238" stroke-linecap="round" stroke-linejoin="round"/>
<path d="M375.442 306.628C375.442 306.628 385.009 300.245 391.128 298.653" stroke="#263238" stroke-linecap="round" stroke-linejoin="round"/>
<path d="M299.508 187.372C298.461 189.954 297.552 192.59 296.784 195.268C296.139 197.979 292.705 202.888 290.691 204.138C288.678 205.388 283.98 207.138 286.046 209.402C287.882 211.068 289.975 212.428 292.244 213.429C292.244 213.429 290.625 222.772 291.652 228.155C292.678 233.537 296.468 234.445 299.903 234.393C303.338 234.34 316.3 232.8 320.683 227.536C325.065 222.272 332.119 205.625 328.658 194.807C325.197 183.99 305.641 177.094 299.508 187.372Z" fill="white"/>
<path d="M307.694 206.099C309.444 213.126 312.958 222.773 309.444 228.05C305.93 233.327 303.141 233.551 303.141 233.551L304.009 234.024C309.273 233.327 317.393 231.471 320.683 227.523C325.065 222.259 332.119 205.612 328.658 194.794C328.124 193.194 327.303 191.705 326.236 190.399L311.642 193.373C311.642 193.373 305.93 199.071 307.694 206.099Z" fill="#3BDFAB"/>
<path opacity="0.5" d="M307.694 206.099C309.444 213.126 312.958 222.773 309.444 228.05C305.93 233.327 303.141 233.551 303.141 233.551L304.009 234.024C309.273 233.327 317.393 231.471 320.683 227.523C325.065 222.259 332.119 205.612 328.658 194.794C328.124 193.194 327.303 191.705 326.236 190.399L311.642 193.373C311.642 193.373 305.93 199.071 307.694 206.099Z" fill="white"/>
<path d="M299.508 187.372C298.461 189.954 297.552 192.59 296.784 195.268C296.139 197.979 292.705 202.888 290.691 204.138C288.678 205.388 283.98 207.138 286.046 209.402C287.882 211.068 289.975 212.428 292.244 213.429C292.244 213.429 290.625 222.772 291.652 228.155C292.678 233.537 296.468 234.445 299.903 234.393C303.338 234.34 316.3 232.8 320.683 227.536C325.065 222.272 332.119 205.625 328.658 194.807C325.197 183.99 305.641 177.094 299.508 187.372Z" stroke="#263238" stroke-linecap="round" stroke-linejoin="round"/>
<path d="M317.156 225.628C317.156 225.628 309.26 232.419 303.206 233.524C303.206 233.524 313.734 235.024 324.697 225.984L317.156 225.628Z" fill="#263238" stroke="#263238" stroke-linecap="round" stroke-linejoin="round"/>
<path d="M300.785 196.545C300.785 196.545 303.667 191.399 306.825 197.966" stroke="#263238" stroke-linecap="round" stroke-linejoin="round"/>
<path d="M294.863 216.89C294.863 216.89 300.035 219.246 304.167 216.219" stroke="#263238" stroke-linecap="round" stroke-linejoin="round"/>
<path d="M301.838 201.796C301.535 203.112 300.877 204.006 300.351 203.875C299.824 203.743 299.64 202.625 299.943 201.348C300.245 200.072 300.903 199.15 301.43 199.269C301.956 199.387 302.14 200.519 301.838 201.796Z" fill="#263238"/>
<path d="M294.1 191.11C294.1 191.11 315.59 197.005 316.05 201.124C316.511 205.243 312.721 213.929 314.734 222.68C316.748 231.432 328.671 233.972 338.62 230.576C348.569 227.181 355.728 208.862 354.412 193.728C353.096 178.594 337.686 169.764 325.631 167.487C313.576 165.211 295.271 173.936 294.1 191.11Z" fill="#3BDFAB"/>
<path opacity="0.29" d="M334.909 179.766C332.893 179.414 330.849 179.251 328.802 179.279C329.627 180.11 330.098 181.227 330.118 182.398C330.118 183.794 329.564 185.133 328.577 186.12C327.589 187.107 326.251 187.662 324.854 187.662C323.458 187.662 322.119 187.107 321.132 186.12C320.145 185.133 319.59 183.794 319.59 182.398C319.589 182.065 319.629 181.734 319.709 181.411C314.313 184.122 310.497 189.122 306.549 195.163C311.418 197.045 315.906 199.269 316.116 201.124C316.59 205.243 312.787 213.929 314.8 222.68C316.814 231.432 328.737 233.972 338.686 230.576C348.082 227.379 354.991 210.836 354.636 196.216C352.819 192.254 347.279 181.884 334.909 179.766Z" fill="black"/>
<path d="M294.1 191.11C294.1 191.11 315.59 197.005 316.05 201.124C316.511 205.243 312.721 213.929 314.734 222.68C316.748 231.432 328.671 233.972 338.62 230.576C348.569 227.181 355.728 208.862 354.412 193.728C353.096 178.594 337.686 169.764 325.631 167.487C313.576 165.211 295.271 173.936 294.1 191.11Z" stroke="#263238" stroke-linecap="round" stroke-linejoin="round"/>
<path d="M320.735 223.299C315.471 214.89 322.301 202.243 319.156 198.611C316.524 195.623 300.469 189.859 294.547 187.806C294.328 188.897 294.179 190 294.1 191.11C294.1 191.11 315.59 197.005 316.05 201.124C316.511 205.243 312.721 213.929 314.734 222.68C316.748 231.432 328.671 233.972 338.62 230.576H338.751C331.698 230.919 324.183 228.813 320.735 223.299Z" fill="#263238" stroke="#263238" stroke-linecap="round" stroke-linejoin="round"/>
</svg>
